<?xml version="1.0" encoding="utf-8"?>
<!-- Generator: Adobe Illustrator 19.0.1, SVG Export Plug-In . SVG Version: 6.00 Build 0)  -->
<svg version="1.1" id="Layer_1" xmlns="http://www.w3.org/2000/svg" xmlns:xlink="http://www.w3.org/1999/xlink" x="0px" y="0px"
	 viewBox="0 0 127.8 112.7" enable-background="new 0 0 127.8 112.7" xml:space="preserve">
<g>
	<g>
		<path fill="#010101" stroke="#ead44d" stroke-miterlimit="10" d="M110.5,103.6c-0.2-0.1-0.1,0-0.2-0.5c0-0.4,0.3-0.4,0.2-0.6
			c-0.2-0.3-0.5-0.5-0.5-0.5s-0.3,0.1-0.2-0.1c0-0.1-0.1-0.2-0.2-0.1c-0.2-0.1-0.3-0.3-0.4,0.1c-0.1,0.4-0.4,0.3-0.6,0.2
			c-0.2-0.1-0.2-0.2-0.4-0.2c0,0.2-0.2,0.2-0.3,0.5c-0.1,0.3-0.5,0.2-0.5,0.1c-0.1-0.1-0.4-0.1-0.5,0.1c-0.1,0.2-0.3,0.2-0.5,0
			c-0.2-0.1-0.5,0-0.7,0.2c-0.2,0.2-0.4,0-1.1,0.3c-0.4,0.2-1,0-1.3-0.1c-0.4-0.3-0.9-0.2-0.9-0.4c0-0.2-0.1-0.2-0.4-0.2
			c-0.4,0,0-0.3-0.7-0.3c-0.8-0.2-0.1-0.3-0.4-0.5c-0.4-0.2,0.2,0.3-0.6,0.2c-0.6-0.6-0.5-0.1-0.7-0.3c0,0-0.5-0.2-0.6-0.2
			c-0.1,0.1-0.1,0.2,0,0.5c0.1,0.3,0,0.4-0.2,0.4c-0.2-0.1-0.1,0.5,0,0.6c0.1,0.2,0.1,0.3,0.1,0.6c0,0.1,0.2,0.3,0.3,0.5
			c0,0.1-0.1,0.2-0.1,0.2c0.2,0.3,0.4,0.5,0.4,0.6c0,0.3,0.5,0.8,0.8,1.1c0.3,0.3,0.4,0.6,0.3,0.9l0,0.1c-0.1,0.2,0,0.2,0.2,0.1
			c0.2-0.2,0.3,0.3,0.4,0.4c0.1,0.1,0.2,0,0.3,0.2c0.1,0.2-0.2,0.1-0.3,0c-0.5-0.3-0.2-0.2-0.4-0.4c-0.1,0-0.1,0-0.1,0
			c-0.3-0.4-0.3-0.4-0.3-0.2c0.1,0.2,0.1,0.2,0,0.3c-0.1,0.1,0,0.2,0.1,0.4c0.1,0.2,0.1,0.5,0.2,0.7c0.1,0.3,0.4,0.1,0.3,0.4
			c-0.1,0.3,0.1,0.4,0.2,0.5c0.3,0.7,0.2,0.2,0.5,0.5c0.2,0.2,0.2,0.4,0.4,0.6c0,0,0.6,0.8,0.5,0.4c0-0.5,0.1-0.3,0.2-0.1
			c0.1,0.2,0.6,0.1,0.7,0.2c0.3,0.2-0.2,0.2-0.3,0.1c-0.2-0.1-0.5-0.1-0.5,0.2c0.3,0.1,0.4,0.3,0.3,0.5c0,0.3,0.1,0.3,0.4,0
			c0.3-0.3,0.5,0.3,0.5-0.1c0.2,0,0.1,0.2,0.4,0.1c0.1-0.1,0.3,0,0.5,0.1c0.3,0.2,0.4,0.3,0.6,0.2c0.2,0,0.1,0.2,0.4,0
			c0-0.2,0.1-0.3,0.2-0.4c0.1-0.1,0.1-0.4,0.3-0.6c0.3-0.3-0.1-0.3-0.2-0.5c-0.2-0.2,0-0.7,0-0.5c0,0.7,0.4,0.5,0.5,0.7
			c0.1,0.2,0,0.1,0.2-0.1c0.2-0.1,0-0.3,0.1-0.5c0.1-0.1,0-0.6,0.1-0.4c0.2,0.3,0.2-0.1,0.1-0.2c0-0.1,0,0,0.1-0.1
			c0,0-0.1-0.3-0.1-0.3c0.1,0,0.3,0.2,0.3,0.3c0.1,0.3-0.3,0.5,0.2,0.3c0.3,0,0.2-0.1,0.2-0.3c0-0.2-0.3-0.4,0-0.4
			c0.4,0-0.8-0.4-0.1-0.3c0.2,0,0.2,0.1,0.3,0.3c0.1,0.1,0.2,0.1,0.4,0c0,0,0.2,0,0.2,0c0,0,0-0.2,0-0.3c0.2-0.2,0.3-0.1,0.2-0.3
			c-0.1-0.2,0.3,0,0-0.5c-0.2-0.3,0.3,0.4,0.4-0.2c0-0.2-0.2-0.2,0-0.4c0.2-0.2-0.2-0.2,0.1-0.6c0.1-0.1,0.2,0,0.1-0.3
			c-0.1-0.3,0.4-0.2,0.5,0c0.2,0.2,0.2,0.1,0.1,0.3c-0.1,0.2-0.2,0.4,0,0.4c0.5,0.1,0.1-0.1,0.1-0.3c0.1-0.3,0.2-0.1,0-0.4
			c-0.2-0.3,0.3,0-0.1-0.4c-0.1-0.1,0-0.2,0-0.5c0-0.3-0.2-0.3-0.1-0.4c0.3-1.1,0-0.8,0-1.3C110.3,104,110.6,103.8,110.5,103.6z"/>
		<path fill-rule="evenodd" clip-rule="evenodd" fill="#010101" stroke="#ead44d" stroke-miterlimit="10" d="M127.1,59.1
			c-0.4,0-0.2-0.6-0.2-0.7c0.1-1.3-0.1-0.7-0.4-1.3c-0.2-0.6,0-1.1,0.1-1.7c0-0.2,0.3-0.5,0.1-0.4c-0.2,0-0.2-0.2-0.3-0.1
			c0,0.2-0.1,0.4-0.1,0.5c0,0.1,0,0.2-0.1,0.4c-0.2-0.9-0.6-0.5-0.6-1.1c-0.3,0-0.5-0.2-0.3-0.3c0.1,0,0-0.2,0.1-0.3
			c-0.4,0-0.2-0.4,0.3-0.3c-0.4-0.5-0.1-1.1-0.3-1.3c-0.2-0.2-0.2-0.6-0.1-1.1c-0.4-0.1,0.2-1.4,0.2-1.6c-0.3-0.1-0.3,0.2-0.4-0.3
			c-0.3,0-0.4-2.3-0.4-1.6c0-0.3-0.1-0.3-0.3-0.5c0,0-0.6,0.3-0.6-0.3c-0.3-0.3-0.5-0.6-0.5-1.1c-0.1,0-0.1-0.3-0.4-0.3
			c-0.4,0-0.8-0.9-0.9-1c-0.3-0.3-0.8-0.8-0.8-1.2c-0.1-0.5-0.2,0-0.3-0.3c-0.9-0.4,0.5,0.7-0.8,0c-0.2-0.1-0.2-0.1-0.3-0.2
			c-0.1-0.2-0.6-0.6-0.6-0.6c0,0,0.5,0.4,0.5,0.2c0-0.2,0-0.4-0.1-0.4c-0.3-0.2,0-0.4-0.1-0.6c-0.1-0.1-0.1,0.1-0.3,0.1
			c-0.1,0-0.2-0.1-0.3-0.2c-0.1-0.1-0.3,0.1-0.3,0.1c0.1,0.1,0,0.3-0.2,0.1c-0.1-0.1-0.2-0.2-0.3-0.3c0-0.2-0.2-0.4,0-0.4
			c0.1-0.1-0.3-0.4-0.1-1c0-0.1,0.1-0.7,0.1-0.9c0-0.1-0.2-0.1-0.2-0.2c0-0.2,0-0.2,0-0.3c0-0.1-0.1,0-0.1,0c0,0,0,0.1-0.1,0
			c0,0-0.1-0.2-0.1-0.2c0.1,0,0.2,0.1,0.2-0.1c0-0.2-0.3,0-0.2-0.4c-0.8-0.3-0.3,0.3-0.4,0.5c0.5,0.9-0.1-0.1-0.9-0.3
			c-0.1,0-0.2-0.1-0.3-0.3c-0.1-0.2-0.3-0.3-0.3-0.4c0.1-0.2-0.2-0.2-0.4,0c-0.4,0.6,0,0.9,0.2,1.4c0,0.1,0.1,0.2,0.1,0.3
			c0,0,0,0-0.1-0.1c-0.2-0.2-0.2-0.5-0.4-0.5c-0.2-0.1-0.1-0.2-0.2-0.3c-0.3,0.4-0.2,0.2-0.2,0c0-0.1-0.2-0.1-0.3-0.2
			c-0.2-0.2-0.2-0.1-0.2-0.4c0-0.3-0.2-0.5-0.3-0.8c0-0.2-0.1-0.4-0.1-0.8c0-0.1,0-0.3,0-0.4c0.2-0.7-0.1-0.1-0.2-0.3
			c-0.1-0.4-0.4,0.2-0.3-0.3c0.1-0.7-0.5-0.6-0.2-1.1c-0.1-0.1-0.2-0.3-0.4-0.4c-0.9,0.3,0.1-0.1-0.3-0.2c-0.2-0.1-0.9-0.4-1.1-1
			c0.2-0.1,0.2-0.5,0.5-0.2c0.1,0.1,0.1,0,0.1-0.2c0-0.1,0-0.2,0-0.3c-0.1-0.1-0.1-0.1-0.2-0.2c-0.1-0.1-0.1-0.1-0.1-0.2
			c-0.1-0.2-0.1,0.1-0.3,0c0,0-0.1-0.2-0.2-0.3c0,0-0.1-0.1-0.2-0.1c0,0-0.1-0.1-0.1-0.1c-0.1-0.1-0.1-0.1-0.3-0.2
			c0.1,0.3-0.5,0.7-0.6-0.2c-0.6-0.1-0.6-0.4-0.8-0.2c-0.1,0.3-0.6-0.1-0.5-0.4c0.1-0.2-0.4-0.4-0.4-0.2c0.1,0.3-0.1,0.5-0.3,0.2
			c-0.1-0.1-0.1-0.4-0.2-0.6c-0.1-0.3-0.1-0.1-0.5-0.8c-0.3-0.6,0,0.1-0.3,0.1c-0.5,0-0.9,0.2-0.9-0.6c-0.4-0.3-0.1,0.5-0.6,0.2
			c-0.3-0.2-0.1-0.3-0.3-0.4c-0.6,0.3-0.6-0.4-1.5-0.9c0-0.6,0-0.5,0.1-0.7c0.2-0.4-0.1-0.2,0-0.7c0-0.1,0-0.1,0-0.3
			c0-0.1-0.1-0.1-0.2-0.2c0-0.1,0.1-0.1,0.1-0.2c0-0.1-0.1-0.1-0.1-0.1c-0.1,0,0,0.1,0,0.2c0,0.1,0,0.1-0.1-0.1
			c-0.1-0.1-0.1-0.2-0.2-0.1c-0.1,0.1-0.1,0.1,0,0.2c0.1,0.1,0.2,0.3,0.1,0.2c0,0-0.1-0.1,0,0c0.1,0.1,0.1,0.2,0,0.2
			c0,0-0.1-0.2-0.2-0.2c-0.1-0.1-0.1-0.2-0.1-0.3c0-0.1,0-0.2-0.1-0.1c-0.2,0.1,0-0.3,0.1-0.9c0.1-0.3,0-0.7,0.1-0.9
			c0.4-0.3-0.2-0.3-0.1-0.9c0.1-0.4-0.4-0.2-0.3-0.8c0-0.3-0.4-0.4-0.2-0.7c0.1-0.1,0.2-0.2,0.1-0.3c-0.1-0.1-0.5,0.2-0.8-0.5
			c-0.1-0.1-0.4-0.4-0.5-0.5c-0.3-0.3-0.2-0.5-0.2-0.8c0-0.2,0-0.5,0-0.8c0-0.5-0.4-0.4-0.3-1c0-0.2-0.2-0.7-0.3-0.9
			c-0.3-0.4,0.4-0.6,0.2-0.8c-0.1-0.1-0.3,0.3-0.3-0.4c0-0.4,0.4-0.3,0.3-0.5c0.1-0.2-0.2,0-0.2-0.2c0-0.1,0-0.2-0.2-0.2
			c-0.4,0-0.9-0.2-0.7-0.5c-0.2-0.1-0.1,0-0.1-0.3c-0.7,0-0.4,0-0.4-0.2c-0.5,0-0.6-0.2-0.5-0.5c0.2-0.3-0.2-0.1-0.2-0.3
			c0.1-0.4-0.2-0.1-0.1-0.3c0-0.1,0-0.2-0.2-0.2c0,0.2-0.6,0.7-0.7,0.4c0-0.2-0.2-0.1-0.2,0c0,0.2-0.1,0.1-0.1,0.2
			c-0.1,0.5-1.3,0.5-1.3-0.4c0-0.6-0.1-0.8-0.3-1.1c-0.3-0.6-0.3-0.8-0.1-1.5c0.1-0.4-0.3-0.5-0.3-0.8c0-0.2-0.1-0.8,0.1-1
			c0.1-0.2,0-0.3-0.4-0.1C94.9,7.6,95,7.1,95,7.1c0.5-0.8-0.4,0-0.3-1c0-0.3-0.8,0-0.6-0.5c0.1-0.2,0.2-0.8,0.4-0.9
			c0.3,0,0.4-0.1-0.1-0.1c-0.1-0.5-0.4,0.2-0.8-0.3c-0.1-0.1-0.2-0.2-0.2-0.4c-0.1-0.3,0-0.6-0.1-1c0-0.1,0.1-0.2,0.1-0.3
			c-0.1-0.4-0.2,0-0.2-0.9c0-0.2-0.4-0.7-0.6-0.7c-0.2,0-0.2-0.3,0-0.5c0.1-0.1-0.1-0.2-0.4-0.1c-0.1,0-0.3,0.1-0.4,0.1
			c0.1,0.5-0.2,0.6-0.5,0.6c-0.4,0-0.3,0.2-0.3,0.5c0,0.3-0.1,0.9-0.2,1.3c-0.1,0.6-0.4,0.8-0.5,1.5c0.2,0.1,0,0.7-0.2,0
			c-0.2,0-0.8,1.5-0.9,1.9c0.1,0.2,0.5-0.1,0.2-0.1c0.2-0.5,0.3-0.1,0.2,0.2c0.4,0.1,0.8-0.1,0.2,0.4c-0.1,0.7-0.5,0.7-0.6,0.8
			c-0.4,0.3,0.5,0.8,0.1,1.4c-0.4,0.7-0.5,1-0.5,1.3c-0.1,0.6,0.1,0.7,0.4,1c0.3,0.2-0.2,0.9-0.2,1.1c0,0.4,0.3,1.2,0.3,1.9
			c0.1,0.5,0,0.6-0.5,1.6c-0.2,0.5-0.2,0.7-0.2,1.1c0,0.1-0.2,0.2-0.2,0.3c0,0.1,0.2,0.1,0.2,0.4c0,0.2-0.3,0.3-0.3,0.6
			c0,0.5-0.2,1.5-1.2,2.5c-0.1,0.6-0.2,1.6-1.5,2.1c-0.4,0.1-0.6,0.1-1.2,0.1c-0.5,0-1-0.6-1.5-0.9c-0.2-0.1-0.6-0.3-0.8-0.4
			c-0.4-0.1-0.6-0.5-0.5-0.9c-0.1-0.2-0.7-0.4-0.7-0.6c-0.4,0.1-0.9-0.2-1.1-0.3c-0.8,0.4-0.9,0-1.5-0.3c-0.6-0.3-0.7-0.5-1-0.9
			c-0.2-0.2-0.4-0.7-0.7-0.7c-1.2,0-0.5-0.5-1.3-0.6c-0.2,0-0.3,0.1-0.5-0.2c-0.5-0.6-0.2,0.2-0.8-0.2c0,0.3-0.1,0.2-0.2,0.2
			c-0.2,0,0-0.1,0-0.2c0-0.1-0.1-0.1,0-0.2c0.1-0.1,0.2,0,0.3-0.1c0.1-0.1,0.1-0.2,0-0.3c-0.1-0.1-0.2,0.1-0.3,0.1
			c-0.1,0-0.2-0.1-0.3,0.3c-0.1,0.3-0.1,0.1-0.2,0.1c-0.2-0.1-0.2-0.3-0.3-0.4c-0.5-0.4-0.6-0.5-0.7-0.9c-0.8-0.2-0.9-0.4-1.3-0.7
			c-0.2-0.2-0.1-0.1-0.2,0c-0.1,0,0,0.1-0.1,0.3c0,0.1,0.2,0.6,0.1,0.7c-0.1,0.1-0.7-0.4-0.7-0.5c0-0.1,0.2-0.3,0.2-0.4
			c0-0.1-0.1-0.3-0.2-0.3c-0.1,0-0.2-0.1-0.2-0.2c-0.1-0.1,0-0.3-0.1-0.3c-0.1,0-0.3,0.3-0.4,0.2c0,0-0.1-0.5-0.1-0.7
			c0-0.1-0.2-0.1-0.2,0c-0.2,0.2-0.4,0.2-0.5,0.1c-0.1-0.2,0.4-0.8,0.6-0.9c0.1,0,0.4,0.3,0.4,0.3c0.5,0.2,0.2-0.1,0.9-0.8
			c0.4-0.4,0.6-0.5,0.6-0.7c0-0.2,0.4-1.2,0.6-1.4c0.1-0.3,0-0.4-0.2,0c-0.2,0.4-0.2,0-0.3-0.2c-0.3-0.5,0.2-0.2-0.1-0.6
			c1.2,0.1-0.6-0.3,0.4-0.7c0.5,0.5,0.3-0.5,0.4-0.1c0,0.1,0,0.5,0.4-0.2c0-0.1,0,0.1,0.1,0.1c0.1,0,0.2-0.2,0.2-0.1
			C73.1,8.6,72.8,9,73,9c0.1,0.1,0.1-0.4,0.4-0.3c0.2,0.1-0.1-0.3,0.2-0.3c0.2-0.3,0.1-0.3-0.1-0.6C73.6,8,73.6,8,73.7,8
			c0.1,0,0-0.1,0.1-0.1c0.1,0,0.3,0.3,0.1-0.1c-0.2-0.2-0.6-0.5-0.5-0.6c0.1-0.1,0.1,0.1,0.2,0c0,0-0.1-0.2,0.1-0.2
			c0,0.1,0.2,0.4,0.2,0.4C74,7.5,73.6,6.7,74,7.1c0.2-0.1-0.2-0.4,0.2-0.5C74.5,6.5,74,6.7,75,5.9c-0.4,0-0.1-0.4-0.3-0.4
			c-0.3,0-0.4-0.3-0.6-0.1c0.2,0.3,0,0.5-0.3,0c0-0.2-0.1-0.8-0.3-0.6c-0.5-0.1,0.3-0.3,0.2-0.3c-0.1-0.1-0.4,0.1-0.5,0.1
			c-0.2,0.1-0.1,0.2-0.5,0.3c0,0.4-0.5,0.2-0.3,0.4c0.6,0,0.4,0.7-0.2,0.7c-0.6,0.1-0.5-0.2-0.4-0.3c0.5-0.6-1,0.3-0.1-0.5
			C72,5.2,72.1,5.1,72,5c-0.8,0.2-0.6,0.6-1,0.5c-0.5-0.1,0-0.5,0.2-0.6c0.2-0.1,0.4-0.3,0.4-0.4c-0.2,0-0.6,0.5-0.7,0.4
			c-0.1-0.1,0.2-0.4,0.1-0.5c-0.1-0.1-0.3,0.7-0.5,0.7c-0.2,0-0.4-0.2-0.6-0.1c-0.1,0-0.2,0.2-0.4,0.3c-0.1,0.1,0.3,0.3,0.2,0.3
			c-0.1,0-0.3-0.1-0.4-0.1c-0.2-0.1-0.4,0.3-0.6-0.2c-0.1-0.3,0.1-0.2-0.1-0.2c-0.3,0,0-0.2-0.3-0.2c-0.2,0,0.1,0.1-0.2,0.1
			c-0.3-0.4,0-0.1,0-0.3c0-0.1-0.3,0-0.4,0c-0.2,0.5-0.7,0.3-1.1,0.1c-0.1-0.2-0.3-0.1-0.3,0.1c-0.3,0.2-0.5-0.1-0.3-0.3
			c-0.2-0.2-0.1,0-0.3,0c-0.1-0.2-0.2-0.3-0.3-0.1c-0.1,0.3-0.7,0-0.3-0.3c0.1-0.1,0-0.2,0.1-0.2c0.2,0,0-0.2-0.2-0.1
			c-0.1,0.1-0.1-0.1-0.2-0.1c-0.3,0,0.2,0.1-0.4,0.2c0,0.3-0.6,0.2-0.5,0C64,4,64,4.1,63.9,4c0.1-0.5-0.6,0.4-0.3-0.2
			c-0.3,0-0.6,0.3-0.7-0.3c0-0.4-0.4-0.3-0.4-0.6c0-0.3-0.3-0.3-0.4-0.2c0.1,0.1,0,0.5-0.1,0.2c0-0.1-0.1,0-0.2,0.1
			c-0.1,0.3-0.1,0.2-0.3,0.2c-0.2,0-0.1-0.3-0.2-0.3c-0.1,0-0.2,0-0.3-0.1c-0.1-0.1-0.1-0.3-0.3-0.4c-0.1-0.1,0,0.2-0.1,0.2
			c-0.2,0,0-0.4-0.2-0.6c0,0.2-0.2,0-0.2,0.2c0,0.4-0.1,0.4-0.1,0.2c-0.2-0.2,0-0.1-0.2-0.3c-0.4-0.2,0,0.2,0,0.5c0,0,0,0.7-0.1,0.1
			c-0.1-0.5-0.2,0.3-0.2-0.5c-0.2,0.1-0.2-0.2-0.4-0.2c-0.2,0.1,0.1,0.5-0.3,0.1C59,2,59.3,2.4,58.9,2.2c0.3,0.3-0.4,0.2-0.2,0.4
			c0.1,0,0.3-0.1,0.4,0c0.4-0.1,0.1,0.1,0.3,0.3c0-0.2,0.4,0.1,0.2,0.2c0.2,0.1,0.3,0.1,0.4-0.1c0.1-0.1,0.4-0.2,0.6-0.1
			c0.3-0.1,0.5,0.1,0.5,0.3c0,0.2,0.2,0.2,0.4,0.2c0.1,0,0,0.2-0.3,0.5c0.4,0.1,0.1,0.7,0.1,0.8c-0.1,0.4,0.7,0.5,0.5,0.5
			c-0.9,0-0.4-0.1-1-0.1c-0.1,0.1-0.3,0.2-0.5,0.2c-0.5,0.2-0.1-0.1-0.4-0.1c-0.4,0.2,0.2,0.4-0.6,0.4c-0.5,0-0.2-0.3-0.5-0.3
			c-0.1,0.1-1.4,0.4-1.6,0.1c0-0.1-0.3-0.3-0.2-0.4c-0.1-0.1,0-0.4-0.1-0.1c0.1,0.1,0,0.1,0,0.2c0,0.1,0,0-0.1,0.3
			c-0.2,0.1-0.1-0.4-0.4-0.2c-0.1,0.1-0.1-0.1-0.3-0.1c-0.1,0.3,0.1,0.2,0.1,0.5C56.3,6,56.8,6,56.4,6c0,0-0.4-0.2-0.4-0.2
			c-0.1,0.2-0.4,0.4-0.1,0.5C56,6,56.3,6.6,56,6.5c0.2,0.6,0,0.5-0.1,0.2c-0.1-0.3-0.2,0.1-0.3,0c-0.1-0.1,0-0.4-0.1-0.5
			c-0.1-0.1-0.2,0-0.2-0.2c0-0.1-0.3,0-0.2,0.1c0.2,0.1,0.1,0.2,0,0.5c-0.1,0.5,0.5,0.2,0.3,0.5c-0.7,0.1-0.5,0.1-0.5-0.1
			c0.1-0.2-0.3-0.4-0.4-0.1c-0.1,0.1-0.1-0.1-0.1,0.3c0,1.4-0.7-0.2-0.7,1c0,0.3,0.1,0.2,0.3,0.4c0.3,0.4-0.1,0.5-0.1,0.7
			c-0.1,0.4-0.7,0.7-0.8,0.3c-0.1-0.5-0.1,0.3-0.4,0.2c0.1,0.6-0.1,0.6-0.2,0.9c-0.1,0.5,0.4-0.1-0.2,0.6c-0.1,0.1-0.1-0.1-0.2,0
			c-0.1,0.5-0.3,0.1-0.3,0.1s0,0.1,0,0.1c0,0-0.1,0.2-0.1,0.3c0,0.1,0,0.1-0.2,0.2c-0.1,0.1,0,0.1,0,0.2c0,0.1,0,0.1-0.1,0.1
			c-0.1,0.1,0,0,0,0.1c0,0.1,0,0.2,0,0.2l0.1,0c0,0,0.1,0.1,0.1,0.1c0,0,0,0,0,0.1c0,0.1,0,0,0.1,0c0.1,0,0.2,0.1,0.2,0.2
			C51.8,13,51.9,13,52,13c0.1,0,0.1,0,0.2,0c0.1,0,0.1,0,0.3-0.1c0.2,0,0.2,0,0.2,0c-0.1,0-0.1,0-0.1,0c0,0,0,0.1,0,0.1
			s-0.1,0-0.2,0.1c-0.1,0-0.2,0.1-0.3,0.1c-0.1,0-0.2,0.1-0.2,0.1c0,0,0,0,0.1,0.1c0,0,0.1,0.2,0.2,0.3c0.1,0.1,0.1,0.1,0.2,0.1
			c0.1,0,0.1,0,0,0c-0.1,0,0,0.1,0,0.1s0.1,0,0.2,0c0.1,0,0.1,0,0.2-0.1c0.1,0,0.1-0.1,0,0.1c-0.1,0.1,0,0.1,0,0.1s0,0,0,0.1
			c0,0-0.1,0-0.2,0c-0.1,0-0.1,0-0.3,0c-0.2,0,0,0,0,0c0,0-0.1,0-0.1-0.1c-0.1-0.1-0.2-0.1-0.2-0.1s0,0.1,0.1,0.2
			c0.1,0.1,0,0.1,0,0.1c-0.1,0-0.1,0-0.1-0.1c-0.1-0.1-0.1-0.1-0.2-0.1c0,0,0.1,0.2,0.2,0.3c0.1,0.1,0.1,0.1,0.2,0.2
			c0,0.1,0.1,0.2,0.1,0.3c0,0,0,0.2,0.1,0.2c0.1,0.1,0.1,0.2,0.1,0.2c-0.1-0.1-0.1,0-0.1,0s-0.2-0.1-0.2-0.2
			c-0.1-0.1-0.3-0.4-0.4-0.5c-0.1,0-0.3-0.1-0.3-0.1c0,0-0.3-0.1-0.3-0.1c-0.1-0.1-0.1,0-0.1,0c0,0.1,0,0.2,0.1,0.4
			c0,0.2,0,0.1,0,0.3c0,0.3,0,0.1,0,0.2c0,0.1,0,0.1-0.1,0c0,0-0.1,0.1-0.2,0.2c-0.1,0.1,0-0.1,0-0.2c0-0.1,0.1-0.2,0.1-0.2
			c0,0,0-0.2,0-0.3c0-0.1-0.1-0.1-0.2-0.2c-0.1-0.1-0.3-0.1-0.5-0.2c-0.2-0.1-0.2-0.1-0.7-0.3c-0.5-0.1-0.5-0.1-0.6-0.1
			c-0.1,0-0.3,0.1-0.4,0.1c-0.1,0-0.1,0.1,0,0.3c0.1,0.1,0.2,0.3,0.3,0.4c0.1,0.1,0,0.1,0,0.1c0,0-0.1,0-0.1,0c-0.1,0,0-0.1-0.1-0.2
			c-0.1-0.1,0,0.1,0,0.1l0,0.1c0,0-0.1,0-0.2-0.1c-0.1-0.1,0,0,0,0c0,0,0,0,0,0.1c0,0.1-0.1,0-0.1,0c0,0,0,0-0.1-0.1
			c-0.1-0.1-0.1-0.1-0.1-0.1c0,0-0.1-0.2-0.1-0.2l-0.1,0c0,0-0.1,0-0.1,0c0,0-0.1,0.1-0.1,0.1c0,0.1,0,0.1,0,0.2c0,0,0,0,0.1,0.1
			c0,0,0,0,0,0.1c0,0,0,0,0,0s0,0,0,0.1c0,0.1,0,0.1,0.1,0.2c0.1,0.2,0,0,0,0.1c0,0.1-0.1,0-0.1-0.1c-0.1-0.1,0-0.1-0.2-0.2
			C47.3,15,47.4,15,47.4,15c0,0,0,0.1,0,0.1s0,0,0,0.2c0,0.2,0,0,0,0.1c0,0.1,0,0.1,0,0.2c0,0.1,0,0.1,0,0.2c0,0.1,0,0.1,0,0.1
			c0,0-0.1,0-0.1,0.1c0,0,0,0-0.1,0.1c0,0-0.1,0-0.1,0s0,0,0-0.1c0-0.1,0-0.1,0-0.1c0,0,0-0.1,0-0.1s0,0,0-0.1c0-0.1,0-0.1,0-0.1
			s0-0.1,0-0.2c0-0.1,0-0.1,0-0.1l0-0.1c0,0,0-0.1,0-0.1c0,0,0-0.1-0.1-0.2c0-0.1-0.1-0.1-0.1-0.1c0,0,0.1-0.1,0.1-0.2
			c0.1-0.1,0-0.1,0-0.2c0-0.1,0-0.2,0-0.3c0-0.1,0.1-0.2,0.2-0.2c0,0,0-0.1,0-0.1s0-0.1,0-0.2c0-0.1,0.1-0.1,0.1-0.1
			c0,0,0-0.1-0.1-0.2c-0.1,0-0.1,0-0.2,0c-0.7-0.6-0.3-0.2-0.6-0.5c-0.3-0.3-0.5-0.6-0.7-0.8c-0.1-0.1-0.4-0.5-0.6-0.6
			c-0.3-0.1-0.2-0.2-0.2-0.3c0-0.1-0.1-0.2-0.2-0.2c-0.2-0.2-0.1,0-0.1,0.2c0.1,0.2-0.3-0.4-0.4-0.3c0.1,0.2-0.4,0.4-0.4,0.2
			c0-0.1-0.3-0.5-0.5-0.7c-0.1-0.1-0.4,0-0.3,0.1c0,0.1,0-0.2-0.4,0c0,0.1,0.1,0.1,0.1,0.2c0,0.2,0.1,0.2,0.1,0.2
			c0.1,0.1,0.1,0.1,0.2,0.2c0.1,0.1-0.1,0.1-0.1,0c-0.1,0-0.1,0-0.1,0.1c0,0.1,0,0-0.1,0c0,0-0.1-0.1-0.1-0.1
			c-0.3,0-0.3,0.1-0.1,0.2c0.2,0.1,0.1,0.3-0.1,0.2c-0.1-0.1-0.2-0.2-0.2,0.1c0,0.3-0.1,0.1-0.2,0.3c0.1-0.4-0.2-0.1-0.2-0.3
			c0-0.1,0-0.2-0.1-0.2c-0.2,0-0.1-0.1,0-0.2c0-0.1-0.9,0.4-0.5,0.5c0.2,0-0.4,0.4-0.3,0.2c0.2-0.2-0.2-0.2-0.1-0.3
			c0,0,0-0.1-0.1-0.1c-0.3-0.1,0-0.2,0-0.2c0-0.1-0.3,0.1-0.2,0c0.1-0.1-0.1-0.2-0.2-0.2c-0.1,0,0.3,0.6-0.1,0.3
			c-0.1-0.1-0.1,0,0,0.3c0.4-0.1,0.4,0.2,0.3,0.4c-0.5,0,0.1,0.4-0.1,0.4c-0.1,0-0.2,0.1-0.2,0.2c0,0.1,0.1,0.1,0.1,0.2
			c0,0.1,0.1,0.1,0.1,0.2c-0.1,0-0.2-0.2-0.4,0c-0.2,0.2-0.1,0.1,0,0.3c0.1,0.2-0.1,0.3-0.2-0.1c0-0.2-0.1-0.4-0.2-0.5
			c-0.2,0.3-0.2-0.5-0.3,0.2c0,0.1-0.2,0.8-0.1,0.3c0.1-0.3,0-0.5,0-0.7c0-0.2-0.1-0.3,0.1-0.2c0.3,0.1-0.2-0.3-0.3-0.2
			c-0.2,0.2,0,0.2,0,0.8c0,0.3-0.3,0.2-0.3,0c0-0.1-0.3-0.2-0.1,0.1c0.1,0.1,0,0-0.1,0c-0.1,0-0.2,0.1-0.2-0.1
			c-0.2,0-0.1-0.1-0.1,0.1c0,0.1-0.1,0.1-0.2,0.2c-0.2,0-0.2,0.2-0.3,0.5c0.2,0.1,0.1,0.3,0.3,0.3c0.5,0,0.2,0.2,0.2,0.2
			c-0.3,0-0.6,0,0,0.2c0.3,0,0.2,0.1,0.3,0.2c0.1,0.1,0,0,0.1,0.2c-0.3,0-0.4,0.2-0.4,0c0-0.2-0.1-0.1-0.4-0.2
			c0.2,0.4,0.1,0.4-0.1,0.3c-0.2-0.1-0.3-0.2-0.3-0.1c0,0.1-0.2,0-0.3,0c-0.4,0-0.2,0.3-0.2,0.4c0,0.2,0.4-0.4,0.5-0.3
			c0.3,0.2-0.5,0.3-0.3,0.6c0,0.1,0.2,0.1,0.3-0.1c0.1-0.1,0.1-0.3,0.2-0.1c0,0,0.1,0.2,0.2,0.2c0,0.1-0.2,0.2-0.2,0.2
			c0,0.1,0,0.2,0,0.3c-0.2,0.4-0.2,0.2-0.3,0.1c0-0.1,0.2-0.1,0.1-0.2c-0.1-0.1-0.4-0.2-0.5-0.3c-0.2-0.2-0.3-0.1-0.5,0.1
			c-0.1,0.1,0.1,0.4-0.2,0.2c-0.1,0.1,0,0.4-0.3,0.1c-0.2-0.2-0.4,0-0.4,0.2c0.2,1-0.3-0.3,0,1.1c0,0,0.1-0.2,0.2,0
			c0.1,0.3,0,0.6,0.2,0.1c0.1-0.1,0.2-0.3,0.3-0.4c0.1-0.1,0.2-0.4,0.3-0.4c0.3,0,0.1,0.4-0.4,0.9c-0.1,0.1-0.1,0.3-0.1,0.6
			c-0.1,0-0.1,0.2-0.2,0.2c-0.1,0-0.2-0.2-0.1-0.2c0.1-0.1-0.1-0.2-0.1,0.1c0,0.5-0.3,0-0.1,0.4c0.1,0.3-0.1,0.1,0.4,0.1
			c0.9,0-0.1,0.3,0.9,0.3c0.9,0.4-0.3,0-0.7,0c-0.9,0-0.3-0.1-0.7-0.1c-0.2,0,0,0.1,0,0.1c0.7,0.9,0,0.1-0.1,0.2
			c-0.1,0-0.1-0.1-0.2-0.1c-0.2,0-0.2-0.1-0.2-0.1c0-0.1,0-0.1-0.1-0.2c-0.1-0.1-0.3,0-0.4-0.1c-0.2-0.1-0.2-0.1-0.2,0
			c0.1,0.1,0,0.1-0.1,0c-0.1,0-0.1,0.1,0,0.2c0.1,0.1,0,0.1-0.1,0.1c-0.1,0-0.1,0-0.1,0.1c0,0.1-0.1-0.1-0.1-0.2
			c0-0.1,0-0.1-0.1-0.1c-0.1,0-0.1-0.1-0.1-0.1c0,0-0.1-0.1,0-0.1c0.1-0.1,0.1-0.1,0-0.2c0,0,0-0.1-0.1-0.2c-0.1-0.1-0.2,0-0.1,0.1
			c0.1,0.1,0,0-0.1,0c-0.1,0-0.2,0-0.3,0c-0.1,0-0.2,0-0.2,0.1c0,0.1,0,0.2,0,0.2c0,0-0.1,0-0.1-0.1c0-0.1-0.2,0-0.2,0
			c0,0,0,0.1,0.1,0.2c0.1,0.1,0.1,0,0.2,0.2c0.2,0.1,0.2,0,0.4,0.1c0.2,0.1-0.1,0.1-0.3,0.1c-0.2,0,0.1,0,0.2,0.1
			c0.1,0.1,0,0.1-0.1,0c-0.1,0-0.2-0.1-0.4-0.1c-0.1,0-0.1,0-0.2,0.1c0,0.1,0.1,0,0.2,0.1c0.1,0.1,0.1,0.1,0.2,0.1
			c0.1,0.1-0.2,0.1-0.3,0c-0.2-0.1-0.2,0-0.2,0.1c0,0,0,0.1,0,0.1c0,0,0.2,0.1,0.4,0.1c0.2,0.1,0,0.1-0.1,0.1
			c-0.1,0-0.3,0.1-0.3,0.1c0.1,0,0.2-0.1,0.2,0.1c1,0.4,0.4,0.5,0.8,0.8c0,0,0.4-0.3,0.4-0.2c0.1,0.1,0,0.3,0,0.4
			c0.7,1.2-0.2,0.3-0.3,0.3c0,0,0.3,0.3,0.3,0.4c0,0.1-0.2-0.1-0.2-0.1c0,0,0.2,0.3,0.2,0.3c-0.1,0-0.1,0-0.3-0.2
			c0-0.1-0.4-0.1-0.4-0.2c-0.1-0.2-0.3-0.7-0.4-0.2c0.2,0.2,0.2,0.2,0.2,0.3c0,0.1,0.4,0.3,0.3,0.7c0,0.1-0.2-0.2-0.3-0.2
			c0,0.1,0.2,0.3,0.2,0.6c0,0.2-0.3,0-0.3,0.1c-0.6-0.1-1.3-1.9-1.4-2.2c-0.4,0,0.1-0.1-0.1-0.3c-0.2-0.1-0.2-0.1-0.2-0.1
			c0,0,0,0,0,0c-0.1-0.1,0-0.1-0.2-0.3c-0.1,0.1,0-0.1,0-0.2c0,0,0-0.1,0-0.1c0,0,0.1,0,0.1-0.1c0,0,0,0,0-0.1c0,0,0.1,0,0.2,0
			c0.5-0.1-0.4,0-0.1-0.3c-0.6,0-0.5,0.4-0.6,0.5c-0.3,0-0.6,0.7-0.3,0.7c-0.3,0.5-0.9-0.4-0.7,0.7c-0.1,0.1-0.1-0.3-0.3-0.2
			c-0.2,0.1-0.4,0.4-0.6,0.6c-0.3,0.2-0.3,0.3-0.5,1c0,0.1,0.1,0.9,0.2,1.2c0,0.1,0,0.5,0,0.6c-0.1,0.3,0.1,0.1,0.3,0.1
			c0.2,0,0.4,0.1,0.1,0.5c-0.1,0.1-0.4,0.1-0.5,0.4c-0.1,0.2-0.6,0.4-0.6,0.5c-0.2,0.4-0.2,0.2-0.3,0.2c-0.1,0-0.2-0.1-0.2,0.1
			c0,0.4-0.3,0.2-0.1,0.3c0.3,0.2,0,0.4-0.2,0.4c-0.2,0-0.2-0.1-0.1,0.3c-0.3,0.7-0.5,1.3-0.8,1.6c-0.3,0.4-0.9,1.1-2,1.3
			c-0.2,0.1-1,0.6-2.2,0.6c-0.3,0-0.6,0.1-0.8,0.1c-0.1,0-0.4,0.3-0.5,0.3c-0.3,0.1-0.3-0.2-0.8-0.3c-0.3,0-0.4,0.1-0.5-0.3
			c-0.3-0.2,0,0.2-0.3,0.1c-0.2,0.4-0.3,0.2-0.4,0.3c-0.2,0.1,0.3,0.2-0.2,0.4c-0.1,0-0.1,0.1-0.2,0.2c-0.1,0.1-0.3,0.4-0.6,0.4
			c-0.7-0.1-0.5,0.1-1.4,0.1c-0.2,0,0.1-0.4-1.1,0.6c-0.5,0.4-0.4,0.3-0.8,0.4c-2.1,0.6-1.2-0.3-1.5-0.2c-0.3,0.4-0.2,0-0.3,0
			c-0.2,0.1-0.2,0.1-0.4,0.3c-0.3,0.3-0.6,0-0.4-0.2c0.1-0.2,0.3-0.4,0.3-0.5c-0.2-0.4,0.1-0.1,0.1-0.2c0,0-0.3-0.3-0.3-0.1
			c-0.1,0.2,0,0.6-0.4,0.9c-0.1,0.1-0.3,0-0.4,0.2c-0.1,0.2-0.2,0.2-0.4,0.3c-0.1,0.1-0.2,0-0.3,0.1c-0.1,0.1,0,0-0.2,0.1
			c-0.1,0.1-0.1-0.1-0.3-0.1c-0.3,0.1,0.1,0.4-0.7,0.7c-0.7,0-0.4,0.7-0.9,0.8c-0.3,0-0.5,0.4-0.7,0.7c-0.1,0.1-0.3,0.1-0.5,0.3
			c-0.2,0.1-0.2-0.1-0.4,0.1c-0.2,0.2-0.4,0.3-0.5,0.3c-0.2,0-0.3-0.2-0.5,0.1c-0.3,0.5-0.5,0.1-0.7,0.4c-0.1,0.1,0,0.3-0.1,0.5
			c-0.1,0.2-0.2,0-0.3,0c-0.1,0.1,0.1,0.2,0.1,0.3c-0.1,0.1-0.1,0.3-0.2,0.3c-0.4,0.5,0,0.5-0.2,1c-0.4,0-0.2-0.3-0.3-0.3
			c-0.4,0.1,0,0.4-0.4,0.4c-0.1-0.1-0.1-0.2-0.1-0.3c0-0.1,0.2-0.2,0.2-0.3c0-0.1-0.1-0.1-0.2-0.2c-0.1-0.1-0.1-0.5,0-0.8
			c0-0.2,0.1-0.4,0.1-0.5c0.2-0.6,0-0.5-0.5-0.1c-0.2,0.1-0.4,0.7-0.5,0.9c0,0.2-0.4,0.9-0.4,1.1c-0.1,0.1-0.4,0.2-0.1,0.5
			c-0.2,0.3,0.2,0.2,0.2,0.3c0,0.1,0.6,0.8,0,1.3c0.2,0.8,0.1,1.2,0,1.3c-0.1,0.1-0.4,0.2-0.5,0.4c0,0.1,0,0.2-0.1,0.3
			c0,0.1-0.1,0.1-0.1,0.1c0,0.1,0,0.2,0,0.2c0,0.1-0.1,0-0.1,0.1c0,0.1,0,0.3,0,0.4c0,0.1-0.1,0.1-0.1,0.2c0,0.1,0.1,0.3,0.1,0.4
			c0,0.1-0.2,0.1-0.2,0.2c0,0.1,0,0.3,0.1,0.4c0,0.2,0,0.3,0,0.4c0.2,0.5,0.6,0.4,0.7,1.4c0,0.2,0.2-0.1,0.1,0.7
			c0,0.3,0.4-0.1,0.8,1.5c0.1,0.2,0.2,0.4,0.3,0.6c0.6,0.8,0.9,0.8,0.7,1c-0.5-0.1,0.2,0.3-0.2,0.7c-0.1,0.1,0.1,0.3,0.1,0.5
			c-0.1,0.3-0.4,0.5-0.5,0.3C2.9,51,2.8,50.1,2.8,50c0-0.1-0.3-0.2-0.1,0.2c0.1,0.2,0,0.3-0.1,0.5c-0.1,0.2-0.2,0-0.3,0
			c-0.1,0,0.1-0.6,0.2-0.8c0-0.1-0.2,0-0.1-0.4c0-0.1-0.2,0.1-0.2-0.1c-0.1-0.2-0.1-0.1-0.2-0.1C1.8,49.1,1.9,49,1.8,49
			c-0.2-0.1-0.1-0.1-0.2-0.4c0-0.1-0.3,0.4-0.3,0.5c-0.1,0.4,0.3,0.4,0.4,1.1c0.1,0.6,0.1,0,0.5,0.8c0.1,0.1,0.4,0,0.5,0.2
			c0.2,0.6,0.1,1-0.4,1c-0.1,0-0.2,0.2-0.2-0.1C1.9,51,1.9,52.3,1.8,52c-0.1-0.2,0-0.8-0.1-0.9c-0.1-0.1-0.1,0-0.2-0.1
			c-0.2-0.2,0-0.2-0.3-0.5c-0.1-0.1,0-0.3-0.1-0.3c-0.1,0,0.1,0.2,0.1,0.4c-0.1,0.4-0.1,1-0.2-0.1c0-0.5-0.3-0.2-0.2,0.3
			c-0.1-0.1-0.5-0.1-0.3,0c0.5,0.4,0.2,0.7,0.4,0.8c1.5,1.3,2.2,3,2.2,3.1c0.1,0.1,0.6,1.2,0.3,1.4c-0.1,0.1-0.1,0.2,0,0.7
			c0.1,0.2,0,0.4,0.3,0.7C4.5,58.1,5,58.9,5,59.5c0,0.1-0.2,0-0.1,0.1c0.1,0,0.3,0.6,0.5,0.7C5.8,60.6,6,61,6,61.4
			c0,0.3,0.2,0.3,0.2,0.6c0,0.3-0.2,0.1-0.1,1c0.1,1.1-0.1,0.6,0,0.9c0,0.1,0.2,0.2,0.2,0.3c0,0.1,0,0.1,0,0.2c0,0,0.1,0.1,0.2,0.2
			c0,0.1-0.1,0.1-0.1,0.2c0,0.1,0.1,0,0.1,0.1c0.1,0.2,0.1,0.5,0.1,0.7c0.1,0.3,0.1-0.1,0.1,0.2c0,0.4,0.1,0.5,0.2,0.6
			C6.9,66.6,7,66.6,7,66.7c0.1,0.3,0.4,0.9,0.5,1.2c0.1,0.2,0.2,0.2,0.3,0.4c0.1,0.3,0.6,0.8,0.7,1.5c0,0.1,0,0.5,0.1,1.1
			c0,0.2,0,0.4-0.1,0.5c0,0-0.2-0.5-0.2-0.5c-0.1,0.1,0,0.3,0.2,0.6c0.2,0.5,0,0.6-0.1,0.6c0,0.1,0.1,0-0.1,0.3
			c-0.3-0.1,0.5,0.4,0.2,0.6c-0.1-0.2-0.2-0.4-0.3-0.5c-0.3-0.2,0.4,2.5,0,2.3c-0.1,0.6-0.4,1-1.1,1.2c-0.5,0.1-0.4-0.3-0.9-0.4
			c0.2,0.7-0.2,0.5-0.1,0.7c0.1,0.3,0,0.4,0,0.7c0,0.2,0.1,0.5,0.1,0.7c0.2,0.4,0.1,0.6,0.3,0.8c0.4,0.3,0.2-0.5,1.2,0.1
			c0.6,0.4,1.2,0.7,1.7,1.5c0.1,0.3,0.5,0,1.1,0.4c0.9,0.6,1.1,0.3,1.3,0.3c0.2,0,0.3,0.1,0.4,0.1c0.3-0.1,0.3,0,0.7,0
			c0.5-0.1,0.6-0.2,1,0.2c0.1,0,0.4,0.1,0.5,0.1c0.2,0-0.1-0.3,0.2-0.3c0.2,0,0.5,0.3,0.7,0.3c0.1,0,0.2-0.2,0.3-0.1
			c0-0.1-0.7-0.3-0.2-0.3c0.3,0,0.2-0.2,0.6,0c0.1,0.1,0.2,0,0-0.1c-0.3-0.2-0.2-0.5,0-0.3c0.3,0.3,0.2-0.1,0.5,0
			c0.2,0.1,0.3,0.2,0.4,0.1c0.1-0.1-0.6-0.3,0-0.7c0.3-0.2,0.6-0.2,0.8-0.3c0.2-0.2-0.4-0.4,0.5-0.5c0.1,0-0.2-0.1,0.4-0.1
			c0.4,0,0.3,0,0.5,0.2c0.2,0.1,0.4,0.1,0.4,0c-0.2-0.2,0-0.3,0.2-0.2c0.3,0.2,0-0.2,0.2-0.3c0.2-0.1,0.1,0.2,0.2,0.1
			c0.5-0.3-0.3,0.1,0.2-0.8c0.1-0.2,0.7-0.8,1.1-0.7c0.2-0.1,0.1-0.2,0.4-0.2c0.4,0.1,0.2-0.1,0.8,0.1c0.8,0.1,0.4-0.1,0.8-0.1
			c0-0.3,0.1,0,1-0.2c0.3-0.1,0.4,0,0.6,0c0.1,0,0.4,0.1,0.8-0.1c0.2-0.1,0.7-0.1,0.9,0.2c0.3,0.3,0.2-0.4,0.5,0.1
			c0.3,0,0.3-0.1,0.4-0.1c0-0.1-0.1,0,0.1-0.2c0.2-0.1,0.5,0.3,0.4,0.3c0,0,0.1,0.1,0.1,0.2c0,0.3,0.2,0.1,0.3,0.1
			c0.1,0,0.2,0,0.3-0.2c0.1-0.1,0.4-0.2,0.6,0c0,0,0.5,0,0.3-0.1c-0.1-0.2,0.6,0,0.7-0.1c0.1,0,0.4,0.1,0.5,0c0-0.1,0.1,0,0-0.1
			c0.4,0,0.5,0.3,0.5,0.6c0.2-0.2,0.3-0.1,0.4-0.1c0.2-0.4,0.6-0.3,0.8-0.1c0.1-0.2,0.2-0.2,0.3-0.2c0.2-0.4,0.5,0,0.4-0.3
			c-0.1-0.4,0.3-0.3,0.3-0.5c0-0.2,0.4-0.1,0.4-0.2c0-0.3,0.1-0.8,0.2-0.9c0.2-0.4,0-0.4,0.3-0.6c0.2-0.3,0.4-0.4,0.6-0.5
			c0.3-0.2,1-0.1,1.3-0.2c0.3-0.2,0.4-0.1,0.5-0.3c0.2-0.3,0.4-0.2,0.6-0.3c0.5-0.5,0.9-0.3,1.4-0.6c0.3-0.2,1-0.9,1.4-0.9
			c0.7,0,0.2-0.2,0.7-0.2c0.8,0.1,0.7,0.4,1.6,0.2c0.3-0.1,1.2,0,1.5-0.1c0.2,0,0.7-0.2,0.9-0.2c0-0.2,1.6-0.6,1.7-0.6
			c0.8-0.2,1.3-0.3,1.7-0.6c1.5-1,2.6-0.8,4.1-0.9c2.9-0.2,2.6,0.1,3.1,0c0.9-0.3,0.5-0.9,2.4,0.2c0.4,0.2,1.3,0.8,1.6,1.1
			c0.2,0.2,0.4,0.2,0.8,0.1c0.1,0,0.2,0.1,0.3,0.1c0.1-0.1-0.5-0.6,1.1-0.1c0.1,0,0.5,0.3,0.9,0.6c0.1,0.1,0.2,0,0.4,0.1
			c0.1,0.1,0-0.2,0.3-0.1c0.2,0.1,0.5,0.1,0.3-0.2c0.6,0.4,0.2-0.3,0.6-0.1c0.1,0,0,0.3,0.1,0.4c0,0,0.1,0,0.2,0c0,0,0,0.2,0,0.2
			c0.3-0.2,0.6,0.5,0.5,0.5c-0.1,0-0.8-0.4-0.3,0c0.1,0.1,0.2,0.1,0.1,0.1c-0.2,0.1,0,0.5,0,0.4c0,0.1,0.2-0.2,0.2-0.1
			c0.4,0.2-0.1-0.4,0.8-0.1c0.2,0.1,0.3,0.3,0.3,0.6c0,0.2-0.2,0.4-0.3,0.1c-0.5-0.1-0.5,0-0.2,0.2c0.3,0.2-0.2,0.3-0.2,0.5
			c1,0.1,0.1,0.3,0.3,0.4c0.5-0.1,0.2,0.7,0.6,0.4c0.4-0.3,0.8,0.1,1.1,0.4c0.5,0.4,0.4,0.8,0.3,1c0,0.2-0.6-0.1,0.2,0.4
			c0.3,0.2,1,0.7,1.1,1.3c0,0.2-0.2,0.2,0,0.4c0.1,0.1,0.2,0.1,0.2,0.3c0,0,0.1,0.3,0.1,0.5c0.1,0.3,0.1,0.5-0.4,0
			c-0.2-0.2-0.6,0.6-0.3,0.6c0,0,0.2-0.2,0.3-0.2c0.2,0,0.3,0.2,0.3,0.4c0.5,0.1,0.7,0.5,0.9,0.7c0.1,0.1,0,0.1,0.1,0.2
			c0.2,0,0.1,0,0.2-0.1c0.1-0.2,0.2-0.3,0.6,0.1c0.3,0.3,0.4,0.3,0.4-0.1c-0.1-0.1-0.1-0.3,0-0.4c0.1-0.2,0.1-0.3,0-0.2
			c-0.1,0.2-0.2,0.1-0.4,0.2c-0.4-0.1,0.1-0.1,0.1-0.2c0-0.2-0.3-0.3,0.1-0.4c0.2,0,0.1-0.1,0.1-0.3c0.1-0.3,0.6,0.2,0.6,0
			c-0.1-0.7,0.2-0.5,0.3-0.7c0.2-0.1,0.3-0.4,0.4-0.8c0.2-0.5,0.2,0,0.5-0.4c0.2-0.3,0.4-0.3,0.5-0.4c0.3-0.2,0.4-0.3,0.9-0.4
			c0.5-0.1,0.6,0,0.9-0.4c0.1-0.2,0.1-0.3,0.2-0.4c0.3-0.3,0.2-0.3,0.3-0.6c0.2-0.9,0.2-0.5,0.4-0.7c0.2-0.2,0.1-0.5,0.5-0.4
			c0.5,0.1,0-0.2,0.2-0.4c0.2-0.2,0.1-0.6,0-0.7c-0.1-0.1,0-0.4,0-0.5c0.1,0,0.3,0.4,0.4,0.6c0.1,0.2,0,0.2,0,0.4
			c0,0.1,0.1,0.2,0.1,0.3c0,0.5,0.3,0.4,0.3,0.7c-0.9,0.3-0.7,0.5-0.5,0.8c0.1,0.1,0,0.4,0.1,0.4c0.3,0.1,0.2,0.4-0.3,0.7
			c-0.2,0.1-0.2,0.5-0.6,0.7c-0.1,0.1,0.2-0.1,0.1,0.1c-0.1,0.2-0.3,0.2-0.3,0.3c0.2,0.2,0,0.4-0.3,0.5c-0.1,0.1,0.2,0,0.1,0.7
			c0,0.1-0.5,0.7-0.1,0.3c0,0,0.1,0.1,0,0.1c-0.1,0.2,0.2,0,0,0.8c-0.1,0.6,0,0.8-0.4,0.7c-0.5-0.2-0.7,0-1-0.1
			c-0.2-0.1-0.3,0.2-0.4,0.4c0,0.1,0.1,0.1,0.1,0.2c0,0.3-0.8,0.6-0.2,0.8c0.6-0.6,0.7,0.1,1-0.2c0,0,0.1-0.3,0.3-0.2
			c0.2,0.1,0-0.2,0.4-0.2c0.6-0.1,0.5,0.5,0.8,0.2c0.1-0.1,0.2,0.1,0.1-0.3c0-0.2,0.2-0.8,0.4-1.1c0.1-0.3,0-0.6,0.1-0.9
			c0.1-0.2,0.3-0.2,0.3-0.4c0.2-0.5-0.1-0.7,0.3-0.7c0.3,0,0.2,0.8,0.7,1.3c0.2,0.2,0.4,0.1,0.4,0.4c0,0.1,0.6,0.3,0.4,0.5
			c-0.1,0.1-0.3-0.4-0.3-0.2c0,0.3,0.1,0.6,0.1,0.9c0,0.3-0.2,0-0.1,0.5c0,0.5-0.2,1.1-0.6,1.4c-0.2,0.2-0.5,0.2-0.5,0.6
			c0.6,0.2,0.8,0,1.2,0c0.5,0,0.2-0.4,0.9-0.3c0.8,0.1,2.2,1.4,2.8,2.6c0.2,0.5,0.3,0.7,0.5,1.2c0.3,1.1-0.3,0.9-0.5,1.3
			c-0.1,0.2,0.6,0.7,0.2,0.7c-0.1,0,0,0.1,0.1,0.2c0,0,0.2,0.6,0.8,1c0-0.1,0.5,0.4,0.4,0.3c0.5,0.5,0.6,0.8,0.9,1.3
			c0.3,0.2,0.3,0.3,0.6,0.4c0.4,0.1,0.9,0,1.2,0.1c0.3,0.1,0.5,0.3,0.9,0.6c0.5,0.4,0.2,0.4,0.2,0.5c0.2,0.2,0.1-0.2,0.5,0.2
			c0.2-0.3,0.5,0.1,0.3-0.3c-0.2-0.4,0.9-0.4,1.2,0c0.2,0.2,0.5,0.2,0.7,0.2c0.1,0-0.2-0.3,0.3-0.1c0.3-0.1,0-0.1,0.7,0.2
			c0.2,0.1,1,0.8,1.2,0.7c0.4-0.1,0.7,0.7,1.2,0.5c0.4-0.2,0.3,0.4,0.6,0.4c0.2,0,0.1-0.5,0.6-0.5c0.4,0,0.7-0.6,0.7-0.6
			c0.5-0.5,0.6-0.2,0.8-0.6c0-0.1,0.1,0,0.2,0c0.4-0.5,0.7-0.4,0.9-0.4c0.5,0.1,0.2-0.1,0.3-0.1c0.1-0.1,0.3-0.1,0.3-0.3
			c0-0.2-0.4-0.3-0.4-0.1c-0.1,0.1-0.2,0.1-0.3,0.2c0,0-0.2-0.1-0.2-0.1c-0.1,0-0.3,0.1-0.1-0.2c0-0.1,0.1-0.1,0.2-0.1
			c0.3,0,0.3,0,0.3-0.1c0-0.1,0.1-0.2,0.3-0.2c0.2,0,0.2-0.1,0.4-0.2c0.2-0.1,0-0.1,0.1-0.2c0.1-0.1,0.5-0.2,0.6,0.1
			c0.1,0.6,0.3,0,0.4,0.7c0,0.3-0.3,0.3-0.3,0.6c-0.4,0.6-0.5,0.3-1.1,0.2c-0.2,0.1-0.1,0,0.1,0.1c0.2,0.1,0.4,0.6,0.8,0.5
			c0.4,0,0.1-0.3,0.5-0.3c0.2,0,0.2,0,0.1-0.2c0-0.1,0.1-0.2,0.2-0.4c0.1-0.1,0.5,0,0.6,0c0.2,0.1,0.2,0,0.2,0.4
			c0,0.2,0,0.1-0.2,0.2c-0.2,0-0.2,0.2-0.1,0.4c-0.2,0.1-0.2,0.2,0,0.2c0.2,0,0.2,0.1,0.3,0.2c0.2,0.2,0.3,0.2,0.4,0.1
			c0.3-0.3,0.6,0.5,0.8,0.9c0,0.1,0.1,0,0.3-0.1c-0.2-0.3,0.1-0.4,0.5-0.1c0.1,0.1,0.2,0.1,0.3,0.4c0,0.1,0,0.1,0.2,0.2
			c0.2,0.1,0,0.2,0.2,0.4c0.1,0.1,0.4,0,0.2-0.1c-0.1-0.1-0.1-0.3,0-0.2c0,0.1,0.1,0,0.1,0c0-0.2-0.2-0.1-0.1-0.3c0,0,0.1-0.1,0-0.3
			c-0.1-0.1,0.2-0.4-0.1-0.4c0,0.1,0,0.2-0.1,0.2c-0.1,0-0.3,0.3-0.3,0.1c0-0.1,0.1-0.2-0.1-0.1c-0.1-0.3,0-0.3-0.1-0.4
			c0-0.1,0.2-0.1,0.3-0.2c0.1-0.1,0.2,0,0.3,0.1c0.1,0.1,0.5,0,0.5,0c0,0,0.3-0.2,0.5-0.1c0.1,0,0.1-0.1,0.3,0
			c0.1,0,0.3-0.4,0.2-0.2c0,0.1,0.2-0.3,0.2-0.3c1.1-1,1.8-2.2,3.8-2.6c0.4-0.1,0.3-0.2,0.6-0.1c0.3,0,0.4,0.1,0.6,0
			c0.1,0,0.4,0,0.6-0.1c0.7-0.1,1.5,0,1.6,0c0.1,0,0.8,0.1,0.9-0.2c0.2-0.1,0.5-0.1,0.5-0.3c0-0.2,0.3-0.2,0.3-0.3
			c0-0.1-0.4-0.2,0.3-0.1c0.2,0,0.3-0.2,0.3-0.3c-0.3-1.6,0.3-0.1,0.1-1c-0.2-0.7-0.6,0-0.2-0.9c-0.2,0-0.2-0.1,0-0.3
			c0.1-0.1,0-0.3,0.1-0.4c0.1-0.2,0.3-0.5,0.3-0.8c0-0.2,0-0.2,0.1-0.5c0-0.1-0.2-0.3,0-0.3c0.1,0,0.1-0.2,0.1-0.3
			c0-0.1,0-0.3,0-0.3c-0.1-0.4,0.1-0.2,0-0.8c-0.1-0.5,0.1-0.4,0.2-0.9c0.3,0.1,0.2-0.3,0.3-0.4c0.1-0.1,0.2-0.1,0.2-0.3
			c0-0.7,0.3-0.8,0.3-1.1c0-0.3,0-0.3,0.2-0.4c0.2-0.2,0.2-0.2,0.2-0.2c-0.2,0.1-0.3-0.1-0.1-0.2c0,0,0.1,0.2,0.2,0.2
			c0.4,0.2,0.3,0.2,0.4-0.1c-0.2,0-0.3-0.2-0.3-0.3c0,0,0.1-0.1,0.2-0.1c0,0,0.1,0.2,0.1,0.3c0.4-0.6-0.2-0.2-0.1-0.7
			c0-0.2,0-0.2,0.2-0.4c0-0.3,0.2-0.2,0-0.5c0.2-0.1,0.1-0.2,0.1-0.3c0,0,0-0.1-0.2,0c-0.1,0.1-0.1-0.1,0-0.1
			c0.1-0.1,0.1-0.1,0.1-0.1c0.1,0.1,0,0.1,0.1,0.1c0.1,0,0-0.1,0-0.1c0-0.1,0-0.1,0-0.1c0,0,0-0.1,0-0.1c0-0.1,0,0,0.1-0.1
			c0-0.1-0.1-0.1,0.1-0.3c0.2-0.2,0.5-0.5,0.6-0.5c0.1-0.1,0.1-0.2,0.1-0.2c0,0,0.1,0,0.1-0.1c0-0.1,0-0.1-0.2,0
			c-0.1,0.1-0.2,0-0.1,0c0.1-0.1,0-0.1,0-0.1c0.1-0.1,0.1,0,0.3,0.1c0.2,0.1,0,0,0.1-0.1c0.1-0.1,0-0.1,0-0.2c0-0.1,0-0.2,0-0.3
			c0-0.1-0.1,0-0.1,0c-0.1,0,0-0.1,0.2-0.1c0.1,0,0,0,0-0.1c0-0.1,0,0.2,0-0.2c0-0.3,0.2-0.2,0.2-0.3c-0.1-0.3-0.3,0.5-0.3-0.2
			c0.1,0-0.6-0.2-0.5-0.2c0,0,0.3,0,0.5,0c0.3,0,0.1-0.4,0.3,0c0.1,0.2,0.4-0.4,0.4-0.5c0.1-0.3,0.3-0.4,0.4-0.6
			c0.1-0.1,0-0.4,0.3-0.6c0.2-0.1,0.1-0.2,0.2-0.3c0.1-0.1,0-0.2,0.1-0.2c0.1,0,0-0.3,0.5-0.3c0.4,0,0.6,0,0.6-0.1
			c0-0.1,0.3-0.2-0.3-0.2c-0.3,0-0.3-0.1-0.1-0.1c0.3-0.1,0.5,0.1,0.4,0c0.1,0.1,0.5-0.2,0.4-0.3c-0.1-0.1,0.3-0.4,0.7-0.5
			c-0.1-0.3,0-0.3,0.1-0.4c0-0.2-0.3-0.2,0-0.5c-0.2-0.1-0.2-0.3-0.1-0.5c0.1-0.4,0.5-0.6,0.8-1.1c0.2-0.3,0.1-0.5,0.4-0.8
			c0.2-0.2,0-0.4,0.1-0.6c0.2-0.2,0-0.3,0.1-0.4c0.1-0.2,0.3-0.4,0.2-0.6c-0.1-0.3,0.2-0.3,0.1-0.5c-0.1-0.3-0.6,0.4-0.1-1.5
			c0-0.2,0.3-0.6,0.3-0.7c0-0.1,0.3-0.4,0.2-0.6c-0.1-0.2,0.2-0.6,0.2-0.8c0-0.1,0.4-1.5,0.3-1.7c-0.1-0.2,0.3-0.7,0.3-0.7
			c-0.2-0.3,0.3-0.5,0.5-1C126.9,59.7,126.9,59.5,127.1,59.1z M2.7,43.2c0.4,0.1,0.4,0.4,0.1,0.5c-0.2,0-0.4,0.2-0.5,0.5
			c0,0.4-0.4,0.1-0.3,0.9c-0.5-0.2-0.3-1-0.2-1.5c0-0.3,0.3-0.6,0.5-0.8c0.2-0.3,0.5-0.6,0.6-1c0.5,0,0.2,0.5,0,0.7
			C2.7,42.7,2.4,43.1,2.7,43.2z M82.2,82.7c-0.2,0-0.3,0.1,0.1,0.2c0.4,0.1,0.1,0.5-0.1,0.5c-0.7,0,0.2-0.3-0.4-0.6
			c-0.3-0.1-0.2,0.2-0.3,0.2c-0.1-0.1-0.2-0.1-0.4-0.2c-0.2-0.1,0-0.9,0.4-0.9c0.4,0,0.3,0.1,0.3-0.2c0-0.2,0.5,0.1,0.6,0.3
			C82.6,82.3,82.5,82.8,82.2,82.7z"/>
	</g>
	<g>
		<path fill="#ead44d" d="M57.6,46.9l6.8-13h0.1l6.8,13v0L57.6,46.9L57.6,46.9z"/>
	</g>
</g>
</svg>
