<?xml version="1.0" encoding="utf-8"?>
<!-- Generator: Adobe Illustrator 19.0.1, SVG Export Plug-In . SVG Version: 6.00 Build 0)  -->
<svg version="1.1" id="Layer_1" xmlns="http://www.w3.org/2000/svg" xmlns:xlink="http://www.w3.org/1999/xlink" x="0px" y="0px"
	 viewBox="0 0 75.7 48.8" enable-background="new 0 0 75.7 48.8" xml:space="preserve">
<g>
	<g>
		<path fill="#13242b" stroke="#7ED0E0" stroke-width="0.5281" stroke-miterlimit="10" d="M48.5,20.6C48.5,20.5,48.5,20.5,48.5,20.6
			C48.5,20.5,48.5,20.5,48.5,20.6c-0.1-0.1,0-0.1,0-0.2c0,0,0-0.1-0.1,0.1C48.2,20.6,48.4,20.6,48.5,20.6z"/>
		<path fill="#13242b" stroke="#7ED0E0" stroke-width="0.5281" stroke-miterlimit="10" d="M7.7,13.5c-0.1,0.1-0.2,0.2-0.3,0.4
			C7.3,14,7.2,14,7.2,14.1c0,0.1,0.1,0.2,0.2,0.2c0.1,0,0.2,0,0.2,0.2c0,0.1,0.2-0.1,0.3-0.1c0.1,0,0.3-0.2,0.3-0.4
			c0-0.1-0.2-0.2-0.2-0.2S8.1,14,8,14.1c-0.1,0.1-0.2,0.1-0.3,0c-0.1-0.1,0-0.3,0.1-0.4c0.1-0.1,0.2-0.4,0.1-0.4
			C7.9,13.3,7.7,13.4,7.7,13.5z"/>
		<path fill="#13242b" stroke="#7ED0E0" stroke-width="0.5281" stroke-miterlimit="10" d="M48.1,22.8C48.2,22.7,48.2,22.7,48.1,22.8
			c0.1,0.1,0.1,0.1,0.1,0.2c0,0.1,0,0.1,0,0.2c0,0,0,0.2,0,0.2c0,0.1,0,0.1,0.1,0c0,0,0-0.1,0-0.2c0-0.1,0-0.3,0-0.3
			c0,0,0-0.3,0.1-0.3c0,0,0.1-0.5,0.1-0.5s0.2-0.6,0.2-0.7c0-0.1-0.1-0.1-0.1-0.2c0,0,0.1-0.2,0.2-0.3c0.1-0.1,0.1-0.1,0.1-0.3
			c0-0.2,0.1,0,0.1-0.4c0-0.1-0.1-0.1-0.1,0c0,0.1-0.1,0.1-0.1,0.1c0,0,0,0-0.1,0c-0.1,0-0.1,0-0.1,0c0,0,0,0,0,0
			c0,0-0.1,0.1-0.2,0.1c-0.1,0.1-0.1,0.1,0,0.1c0.1,0,0,0.1,0,0.1c0,0,0,0.1,0,0.2c0,0.1,0,0.2,0.2,0.2c0.1,0,0.1,0.2,0,0.3
			c-0.1,0.1-0.1,0.2-0.1,0.2c0,0,0,0.1,0,0.2c0,0.1-0.1,0.3-0.1,0.4c0,0.1-0.1,0.2-0.1,0.3c0,0,0,0-0.1-0.1c0-0.1,0-0.1-0.1,0
			c-0.1,0.1,0,0-0.1,0.2C48,22.8,48.1,22.8,48.1,22.8z"/>
		<path fill="#13242b" stroke="#7ED0E0" stroke-width="0.5281" stroke-miterlimit="10" d="M5.2,12.7c0-0.1-0.1-0.2-0.2-0.2
			c-0.1,0-0.1,0.2-0.1,0.3c0,0.1,0.1,0.2,0,0.2c-0.1,0.1-0.1,0.1-0.2,0.1c-0.1,0-0.1,0.1-0.1,0.2c0.1,0.1,0,0,0.1,0
			c0.1,0,0.1,0,0.1,0.1c0,0.1,0.1,0.1,0.2,0.1c0.1,0,0-0.2,0-0.2c0,0,0.1-0.1,0.1-0.2C5.2,12.9,5.2,12.8,5.2,12.7z"/>
		<path fill="#13242b" stroke="#7ED0E0" stroke-width="0.5281" stroke-miterlimit="10" d="M27.4,30.7c-0.1-0.1-0.3,0.2-0.2,0.3
			C27.3,31.2,27.7,30.9,27.4,30.7z"/>
		<path fill="#13242b" stroke="#7ED0E0" stroke-width="0.5281" stroke-miterlimit="10" d="M26.6,30.3c-0.2,0.3,0.2,0.5,0.4,0.3
			C27.2,30.4,26.7,30.2,26.6,30.3z"/>
		<path fill="#13242b" stroke="#7ED0E0" stroke-width="0.5281" stroke-miterlimit="10" d="M26.4,29.7c-0.1-0.3-0.5-0.1-0.6,0
			c0,0.1,0,0.1,0,0.2c0,0.1,0.3,0.2,0.4,0.2c0,0,0.4,0.2,0.4,0c0-0.1-0.1-0.1-0.1-0.1C26.3,29.9,26.4,29.8,26.4,29.7z"/>
		<path fill="#13242b" stroke="#7ED0E0" stroke-width="0.5281" stroke-miterlimit="10" d="M16.2,20.5c-0.1-0.1-0.2,0.1,0,0.2
			C16.3,20.8,16.3,20.6,16.2,20.5z"/>
		<path fill="#13242b" stroke="#7ED0E0" stroke-width="0.5281" stroke-miterlimit="10" d="M18,22.8c-0.1,0.3,0.1,0.7,0.4,0.8
			C18.9,23.6,18.3,22.8,18,22.8z"/>
		<path fill="#13242b" stroke="#7ED0E0" stroke-width="0.5281" stroke-miterlimit="10" d="M16.9,22.6c0,0.3,0.2,0.3,0.3,0.1
			c-0.1-0.1-0.1-0.3-0.2-0.4C16.9,22.3,16.9,22.4,16.9,22.6z"/>
		<path fill="#13242b" stroke="#7ED0E0" stroke-width="0.5281" stroke-miterlimit="10" d="M16.1,19.5c-0.1-0.2-0.2,0-0.2,0.2
			C15.9,19.9,16.2,19.7,16.1,19.5z"/>
		<path fill="#13242b" stroke="#7ED0E0" stroke-width="0.5281" stroke-miterlimit="10" d="M16.5,21.8c0.4,0-0.1-0.7-0.3-0.7
			C16.3,21.1,16.2,21.8,16.5,21.8z"/>
		<path fill="#13242b" stroke="#7ED0E0" stroke-width="0.5281" stroke-miterlimit="10" d="M12.4,10.5c0-0.1-0.1-0.2-0.1-0.3
			c0-0.1,0-0.3-0.1-0.3c-0.1,0-0.1,0-0.1,0.1c0,0-0.1,0.1-0.1,0.1s-0.1,0-0.2,0.1c-0.1,0.1-0.1,0.3,0,0.4c0,0.1,0.1,0.1,0,0.2
			c-0.1,0.1-0.1,0.1-0.1,0.2c0,0.1,0.1,0.1,0.2,0.2c0.1,0.1,0.3,0.4,0.4,0.4c0.1,0,0.2,0,0.1-0.1c-0.1-0.1,0.1-0.5,0.1-0.6
			C12.5,10.8,12.5,10.6,12.4,10.5z"/>
		<path fill="#13242b" stroke="#7ED0E0" stroke-width="0.5281" stroke-miterlimit="10" d="M15.2,18.5c-0.2-0.1-0.4,0.6-0.3,0.7
			C14.9,19.2,15.6,18.6,15.2,18.5z"/>
		<path fill="#13242b" stroke="#7ED0E0" stroke-width="0.5281" stroke-miterlimit="10" d="M15.4,19.4c-0.1-0.1-0.1,0.1,0,0.2
			C15.5,19.7,15.5,19.5,15.4,19.4z"/>
		<path fill="#13242b" stroke="#7ED0E0" stroke-width="0.5281" stroke-miterlimit="10" d="M11,12c0.4,0.3,0.2-0.1,0-0.3
			C10.8,11.5,10.6,11.6,11,12z"/>
		<path fill="#13242b" stroke="#7ED0E0" stroke-width="0.5281" stroke-miterlimit="10" d="M11.5,11.6c-0.2,0.2,0.2,0.3,0.2,0.1
			C11.8,11.6,11.6,11.5,11.5,11.6z"/>
		<path fill="#13242b" stroke="#7ED0E0" stroke-width="0.5281" stroke-miterlimit="10" d="M9.6,9.4C9.5,9.2,9.3,9.1,9.1,9.1
			c0,0.2-0.1,0-0.1,0.2C9,9.6,9.1,9.6,9.1,9.6c0.2,0.2,0.3,0.3,0.4,0.5c0.1,0.1,0.2,0.2,0.3,0.3c0.3,0.3,0.3,0.2,0.4,0.1
			c0-0.2-0.2-0.3-0.2-0.7c0-0.2-0.3,0-0.4-0.1C9.5,9.7,9.7,9.5,9.6,9.4z"/>
		<path fill="#13242b" stroke="#7ED0E0" stroke-width="0.5281" stroke-miterlimit="10" d="M74.8,32.5c0.1-0.1,0.3-0.4,0.4-0.6
			c0.1-0.1,0-0.2,0.1-0.3c0-0.2,0-0.4,0-0.5c0-0.1,0-0.2,0-0.5c-0.2,0.1-0.1-0.1-0.2-0.1c0,0-0.1-0.1-0.1-0.1
			c-0.1,0-0.1-0.1-0.1-0.1c0,0-0.1,0-0.1-0.1c-0.1,0-0.3,0-0.5,0.1c-0.3-0.1-0.5,0.1-0.6,0c0,0,0.3,0.2,0.2,0.2
			c-0.7,0,0-0.1-0.4-0.1c-0.2,0-0.4,0-0.5,0c-0.1,0-0.1-0.1-0.3-0.1c-0.2,0-0.3-0.1-0.5-0.1c-0.1,0-0.4,0-0.4,0
			c-0.1,0,0,0.1-0.1,0.1c-0.1,0-0.2,0-0.3,0c-0.1,0-0.1,0-0.2,0c-0.1,0-0.1,0-0.2,0c-0.1,0-0.2,0-0.3,0c0,0-0.1,0.1-0.1,0.2
			c0,0-0.1,0.1-0.2,0.1c0,0-0.1,0-0.2,0c-0.1,0.1-0.4,0.1-0.6,0.1c-0.2,0-0.6,0.1-1,0.1c-0.4,0-0.4,0.1-0.5,0.1
			c-0.1,0-0.2,0-0.3,0.1c0,0-0.1,0-0.2,0.1c-0.1,0-0.2,0.1-0.2,0.1c-0.2,0-0.2,0-0.3,0.1c-0.1,0-0.1,0.1-0.3,0.1
			c-0.1,0.1-0.2,0.2-0.3,0.2c-0.1,0.1-0.2,0.3-0.2,0.4c0,0.1,0,0.2-0.1,0.3c-0.1,0,0,0.2-0.1,0.2c0,0.1-0.1,0.2-0.1,0.2
			c0,0.1,0,0.1,0,0.2c-0.1,0.1,0,0.2,0,0.4c0,0.1,0,0.4,0,0.7c0,0.1,0.1,0.3,0.1,0.4c0,0.2-0.1,0.3-0.2,0.4
			c-0.1,0.1-0.2,0.1-0.2,0.2c0,0.1-0.1,0.2-0.1,0.2c0,0.1,0,0.3,0,0.4c0,0.2-0.1,0.2,0,0.3c0,0.1-0.2,0.3-0.3,0.4
			c0,0-0.2,0.2-0.3,0.2c-0.1,0.1-0.1,0.2-0.2,0.2c-0.1,0-0.2,0.1-0.3,0.1c-0.1,0.1-0.1,0.1-0.1,0.1c-0.1,0-0.3,0.1-0.4,0.2
			c-0.1,0.1-0.2,0.1-0.2,0.2c0,0,0.6,0.1,0.6,0.1c0,0.1-0.2,0.5-0.3,0.5c-0.1,0-0.3,0.1-0.5,0.3c-0.1,0.1-0.4-0.1-0.5-0.2
			c0,0-0.1-0.2,0-0.2c0.2-0.2,0.6-0.3,0.5-0.4c-0.1-0.1-0.2,0.1-0.5,0.2c-0.2,0.1-0.4,0-0.4-0.1c-0.1,0-0.3,0.1-0.3,0.1
			c-0.1,0-0.4,0-0.5,0c-0.1,0-0.1,0-0.3,0c-0.1,0-0.2,0-0.2,0.1c-0.1,0-0.2,0-0.4,0c-0.1,0-0.1,0.2-0.3,0.2
			c-0.1,0.2-0.3,0.3-0.5,0.3c-0.3,0.1-0.7,0-0.8,0c-0.1,0-0.2,0.1-0.4,0c-0.1,0-0.2,0.1-0.4,0.1c-0.1,0-0.3,0.1-0.5,0.1
			c-0.2,0.1-0.4,0.2-0.6,0.2c-0.2,0.1-0.4,0.1-0.6,0.1c-0.3,0.1-0.7,0.2-0.9,0.1c-0.2-0.1-0.1-0.3-0.2-0.4c-0.1-0.1-0.1-0.2-0.2-0.4
			c-0.1-0.1-0.1-0.3-0.3-0.2c-0.2,0-0.3,0-0.4,0c0-0.1-0.1-0.1-0.1-0.2c-0.2-0.1-0.3-0.2-0.5-0.2c-0.5,0-1,0-1.5-0.4
			c-0.4-0.3,0-0.6-0.4-0.6c-0.3,0-0.1-0.2-0.2-0.3c-0.1-0.1-0.4-0.2-0.5-0.4c-0.2-0.3,0-0.4-0.1-0.4c-0.1-0.1-0.2-0.2-0.1-0.3
			c0-0.1,0-0.2-0.2-0.6c-0.1-0.2-0.2-0.2-0.3-0.4c-0.1-0.2-0.1-0.1-0.2-0.2c-0.1-0.1-0.1-0.1-0.2-0.3c-0.2-0.2-0.3-0.4-0.5-0.5
			c-0.2-0.1,0-0.2-0.3-0.4c-0.1-0.1-0.3-0.2-0.3-0.4c-0.1-0.2-0.1-0.4-0.2-0.6c-0.1-0.2-0.6-1-0.3-1.2c0.1-0.1,0.1-0.2,0.1-0.3
			c0-0.1,0.1-0.2,0-0.3c0-0.1-0.1-0.1-0.2-0.2c-0.1-0.1-0.3-0.3-0.4-0.4c-0.2-0.3-0.3-0.4-0.4-0.7c-0.1-0.4-0.3-1-0.2-1.5
			c0.1-0.4,0.2-0.5,0.2-0.9c0-0.5,0-1.1,0-1.7c0-0.4,0-0.8,0.1-1.2c0-0.4,0.1-0.7,0.1-1.1c0.1-0.5,0.2-1,0.4-1.5
			c0.1-0.4,0.3-0.7,0.5-1.1c0.2-0.3,0.2-0.4,0.3-0.8c0-0.2,0-0.3,0-0.4c0,0,0,0,0-0.1c0,0-0.1,0-0.1,0c-0.3,0-0.2,0.1-0.4,0.1
			c-0.2,0,0,0.2-0.2,0.2c-0.2,0-0.1-0.2-0.3-0.1c-0.2,0.1-0.3-0.5-0.6-0.4c-0.2,0.1-0.1-0.2-0.4-0.1c-0.2,0.1-0.4,0-0.5,0.1
			c-0.2,0.2-0.1-0.1-0.4-0.1c-0.4,0.1-0.5-0.5-0.7-0.4c-0.1,0.1-0.2-0.2-0.5-0.1c-0.2,0.1-0.3-0.4-0.5-0.3c-0.2,0.1,0-0.1-0.4-0.1
			c-0.5,0,0-0.2-0.3-0.3c-0.3-0.2,0.1-0.6-0.7-1.3c-0.3-0.3,0.1-0.5-0.2-0.8c-0.3-0.2,0.3-0.3,0.1-0.5c-0.2-0.2,0.1-0.2-0.1-0.4
			c-0.1-0.1-0.3-0.3-0.2-0.1c0,0.2-0.3,0-0.4-0.3c-0.1-0.2-0.2,0-0.2-0.3c0-0.3-0.2-0.1-0.2-0.3c0-0.2-0.1,0-0.3-0.4
			c-0.1-0.2-0.1-0.4-0.2-0.1c-0.1,0.3-0.3-0.2-0.5-0.5c-0.2-0.3,0.2-0.2,0-0.4c-0.2-0.1,0-0.1-0.2-0.3c-0.3-0.2,0-0.6-0.4-1
			c-0.2-0.3,0-0.5-0.3-0.7c-0.3-0.2,0-0.3-0.3-0.4c-0.2-0.1,0-0.2-0.3-0.3c-0.1,0-0.1,0-0.1-0.2c0-0.1-0.1-0.2-0.2-0.2
			c-0.1,0-0.3-0.1-0.3-0.2c0-0.1,0.1-0.2-0.1-0.1c-0.2,0.1,0.1-0.2-0.1-0.2c-0.3,0-0.1-0.4-0.2-0.4c-0.1,0-0.1-0.1-0.1,0
			c-0.1,0.1-0.1-0.1-0.2-0.1c-0.1,0,0,0.1-0.2,0.1c-0.4,0-0.2-0.1-0.9-0.1c-0.5,0.1-0.6-0.3-0.8-0.3c-0.3,0,0,0.4-0.4,0.3
			c-0.3-0.1-0.1,0.2-0.4,0.1c-0.2,0-0.2,0-0.3,0.2c-0.1,0.2-0.4,0.9-0.6,1.1c-0.2,0.2,0,0.1,0,0.3c0,0.2-0.2-0.1-0.3,0.2
			c-0.1,0.2-0.2,0.1-0.3,0.2c0,0.1-0.2,0.2-0.3,0.1c-0.8-0.5-0.7-0.6-0.9-0.6c-0.7,0-0.2-0.2-0.6-0.3c-0.7-0.1-0.7-0.5-1.2-0.7
			c-0.3-0.1-0.4-0.3-0.6-0.8c-0.3-0.6,0.3-0.4-0.3-1.1c-0.3-0.4,0-0.6-0.3-0.7c-0.2-0.1,0-0.2-0.2-0.2c-0.3-0.1,0-0.1-0.6-0.3
			c-0.7-0.2-0.7-0.8-1.1-0.9c-0.3-0.1-0.2-0.3-0.6-0.6c-0.2-0.2-0.1,0-0.3-0.2c-0.2-0.2,0.1,0.2-0.3,0c-0.4-0.2-0.3-0.4-0.5-0.7
			c0-0.1-0.2-0.3-0.3-0.2c-0.1,0.1-0.1-0.1-0.3-0.1c-0.2,0-3.7,0-3.8,0c-0.1,0-0.2,0-0.2,0.2c-0.1,1.1-0.1,1.1-0.4,1.1h-6.4
			c-0.2,0-0.3,0-0.6-0.1c-0.3-0.1-8.2-3-8.3-3.1C6.4,1,6.3,1,6.1,1C6,1,6,0.9,6.1,0.7c0.1-0.2,0.1-0.2,0.2-0.3
			c0.1-0.1,0.2-0.2,0-0.1c-0.2,0-4.9,0.4-5.3,0.5C0.7,0.8,0.7,0.6,0.3,0.9c0,0.1,0,0.3,0.1,0.4c0.1,0.2,0.1,0.2,0.2,0.4
			c0.1,0.3,0.3-0.1,0.3,0.5c0,0.3,0.3,0.2,0.3,0.4c0,0.2,0.1,0.1,0.3,0.2C1.6,3,1.5,3.3,1.4,3.5C1.3,3.7,1.6,3.9,1.7,4
			C1.9,4.1,2,4.2,2.1,4.4c0.1,0.1,0.2,0.2,0.2,0.4c0,0.2-0.1,0.3-0.1,0.5c0.1,0.1,0.2,0,0.3,0.1c0.1,0.1,0.1,0.2,0.2,0.2
			C3,5.7,3,5.8,3,6.2c0,0.1-0.1,0.4,0,0.6C3.1,7,3.2,6.6,3.5,7c0.1,0.1,0.1,0.2,0.1,0.5c0,0.1,0.1,0.2,0.1,0.3
			c0,0.1-0.1,0.1-0.1,0.2c0,0.2,0.2,0.1,0.3,0.3C3.9,8.4,3.7,8.5,4,8.7C4.1,8.8,4.4,8.9,4.5,9c0,0.1,0,0.1,0.1,0.1
			c0.1,0.1,0.2,0,0.3,0.1C5,9.2,5.1,9.4,5.1,9.5c0.2,0,0.4,0,0.6,0.2C5.9,9.9,6,10,6.2,10.1c0.1,0,0,0.1,0,0.2
			c0.1,0.1,0.3,0,0.3,0.3C6.5,10.9,7,10.8,7,11c0,0.2,0.4,0.8,0.6,0.8c0.2,0,0,0.3,0.2,0.3c0.2,0,0.1,0.6-0.1,0.8
			c0.4,0.1-0.5,0.9-0.6,1c-0.3,0.3-0.5,0.2-0.9,0.1c-0.4-0.1-0.8-0.2-0.9-0.1c-0.1,0.2,0.4,0.5,0.7,0.7c0.1,0.1,0.1,0.2,0.3,0.3
			c0.1,0,0.4,0.2,0.5,0.2c0.1,0.1,0,0.3,0,0.4c0,0.1,0.3,0.2,0.4,0.3c0.2,0.1,0.2-0.1,0.4,0c0.3,0.1,0.2,0.7,0.5,0.4
			c0.1-0.1,0.3,0.2,0.4,0.3c0,0.1,0.1,0.3,0.2,0.3c0.1,0.1,0.3,0.4,0.5,0.2c0.1-0.1,0-0.2,0.2-0.3c0.1,0,0.3,0,0.3,0.2
			c0,0.2,0.4,0.1,0.5,0.2c0.1,0.1,0.1,0.2,0.2,0.2c0.1,0,0.1,0.2,0.2,0.2c0.2,0.1,0.2,0,0.3,0.2c0.1,0.1,0.1,0.2,0.2,0.2
			c0.3,0,0.4,0.4,0.6,0.2c0.2-0.2,0.2,0.4,0.3,0.5c0,0.1,0.3-0.1,0.4,0.2c0.1,0.3,0.2,0.8,0.3,1.1c0,0.7-0.4,1.3-0.6,2
			c0.1,0,0.3,0,0.4,0.1c0.1,0.1,0.1,0.2-0.1,0.3c0.2,0.2,0.5,0.5,0.8,0.7c0.2,0.1,0.4,0.4,0.6,0.1c0.2-0.2,1.3,0.6,1.1,0.4
			c0.5,0.2,0.9,0.6,1.2,1c0.2,0.2,0.5,0.3,0.7,0.5c0.2,0.1,0.4,0.3,0.5,0.5c0.2,0.4,0,1.1,0.5,1.4c0.3,0.2,0.6,0.1,0.7-0.2
			c0.2-0.3,0.5-0.2,0.7-0.4c0.2-0.4,0.3-0.8,0-1.2c-0.1-0.1-0.4-0.1-0.5-0.2c-0.1,0,0.1-0.4,0-0.5c-0.4-0.3-0.3-0.3-0.3-0.6
			c-0.2,0-0.4,0.2-0.4,0c0-0.2,0-0.2-0.2-0.3c-0.1-0.1-0.3-0.2-0.3-0.3c0,0-0.3-0.3-0.4,0c0,0.1,0.2,0.3,0.1,0.4c0,0.1-0.2,0-0.3,0
			c-0.4,0-0.5-0.2-0.6-0.5c0-0.1,0-0.2,0-0.3c0-0.1-0.2-0.3-0.1-0.5c0.1-0.2,0.2-0.3,0.1-0.5c-0.1-0.2-0.2-0.3-0.3-0.4
			c-0.2-0.2-0.3-0.4-0.3-0.6c0-0.2-0.1-0.1-0.2-0.3c0-0.1,0-0.2-0.1-0.3c0-0.2-0.1-0.1-0.2-0.1c-0.2,0-0.2-0.5-0.4-0.6
			c-0.2-0.1-0.2-0.3-0.3-0.5c0-0.2,0.1-0.3,0.1-0.4c0-0.2-0.2-0.1-0.1-0.6c0-0.2-0.4-0.1-0.2-0.5c0.1-0.1-0.1-0.2-0.3-0.2
			c-0.1-0.1,0-0.3,0-0.4c-0.1-0.1-0.2-0.2-0.2-0.2c-0.1-0.1-0.3-0.3-0.4-0.3c-0.2,0-0.1,0.2-0.3,0.1c-0.1-0.1-0.4-0.3-0.2-0.4
			c0.3-0.1,0-0.2-0.2-0.3c-0.1,0-0.3-0.1-0.3-0.2c-0.1-0.1,0-0.2-0.1-0.3c-0.1-0.1-0.2-0.1-0.2-0.3c-0.1-0.2,0-0.3-0.2-0.4
			c-0.1-0.1-0.4-0.2-0.6-0.3c-0.2-0.1-0.1-0.1-0.2-0.3c-0.1-0.2,0-0.3,0-0.5c0-0.1-0.2-0.1-0.2-0.2c-0.1-0.4,0.1-0.3,0.1-0.4
			c0-0.2-0.3-0.1-0.2-0.4c0-0.2,0-0.4-0.3-0.2c-0.2,0.1-0.3,0-0.4-0.1c-0.1-0.2,0-0.1,0-0.3c0-0.1-0.1-0.2-0.2-0.2
			c-0.1-0.1,0-0.6-0.1-0.6c-0.1-0.1-0.2,0.2-0.2,0.4c-0.1,0.2-0.2-0.2-0.2-0.4c0-0.1,0.1-0.2-0.1-0.3c-0.1-0.1-0.2-0.1-0.2,0.1
			c0,0.2-0.2,0-0.3-0.2c0-0.2,0.1-0.1,0.1-0.3c0-0.1-0.2-0.2-0.3-0.3c-0.1,0-0.1-0.1,0-0.2c0.1-0.1,0-0.1-0.1-0.2
			C8.6,9.5,8.4,9.3,8.1,9.1C7.8,8.9,7.5,8.4,7.3,8.5C7.1,8.7,6.9,8.3,7.1,8.2c0,0-0.2-0.2-0.4-0.3C6.6,7.8,6.6,7.7,6.6,7.6
			C6.3,7.2,6.5,6.9,6.5,6.5c0-0.2-0.2-0.2-0.1-0.6c0-0.2,0-0.3,0-0.5c0-0.1-0.2-0.1-0.2-0.2c0,0,0-0.1,0-0.2
			C5.9,4.9,5.9,4.9,5.9,4.8c0-0.2,0.1-0.4,0.1-0.6c0-0.2-0.1-0.4,0.1-0.6c0.1-0.1,0-0.3,0.2-0.2c0.1,0,0.1,0.1,0.2,0.1
			c0.1-0.1,0-0.3,0.1-0.3C6.7,3,6.7,3.3,7,3.4c0.2,0.1,0.3,0.2,0.4,0.3C7.6,3.8,7.9,3.9,8,3.8c0.1-0.1,0.1-0.2,0.1-0.3
			C8,3.3,8.3,3.4,8.4,3.5C8.4,3.7,8.9,3.7,9,4c0,0.2-0.1,0.2,0,0.3c0.4,0,1,0.1,1.2,0.3c0.1,0.1,0.2-0.1,0.2,0.4
			c0,0.3-0.1-0.1-0.2,0c0,0.1,0.1,0.3,0,0.4c0,0.1,0,0.6,0.2,0.8c0.2,0.2,0.4,0.4,0.5,0.5c0,0.1-0.1,0.2,0,0.3
			c0.1,0.2,0.3,0.1,0.2,0.4c0,0.1,0,0.2,0,0.3c0,0.1,0,0.2,0,0.3c0,0.1,0.2,0,0.2,0.1c0.1,0.1,0,0.2,0.2,0.5
			c0.1,0.1,0.2,0.3,0.3,0.4C11.9,9.1,12,9.2,12,9.3c0.1,0.2-0.2,0.3,0.1,0.5c0.1-0.2,0.1-0.2,0.3-0.1c0.1,0.1,0.2,0.4,0.2,0.6
			c0,0.2,0.1,0.5,0.3,0.6c0.1,0.1,0.3,0.4,0.3,0.6c0,0.2,0.2,0.3,0.4,0.4c0.2,0.1,0.1,0.3,0.2,0.4c0.2,0.1,0.5,0.1,0.6,0.3
			c0.1,0.2,0.2,0.3,0.4,0.5c0.1,0.2,0.2,0.3,0.3,0.4c0.1,0.1,0.1,0.1,0.2,0.1c0.1,0,0.2-0.1,0.2-0.1c0.1,0,0.1,0.2,0.1,0.2
			c0.1,0,0.1,0.1,0.2,0.1c0.1,0,0.1-0.2,0.1-0.2c0.1,0,0.1,0.1,0.2,0.1c0.1,0,0.2,0,0.2,0.1c0,0,0,0.1,0,0.2c0,0.1,0,0.1,0,0.2
			c0,0.1-0.1,0.1-0.1,0.2c0,0.2,0.2,0.3,0.1,0.4c0,0.1-0.1,0.3,0,0.4c0.1,0.1,0.3,0.1,0.5,0.2c0.2,0.2,0.3,0.3,0.6,0.3
			c0.3,0,0.5,0,0.7,0.4c0.1,0.2,0.1,0.4,0.2,0.6c0.2,0.2,0.4,0.1,0.7,0.1c0.2,0,0.4,0.2,0.6,0.3c0.3,0.3,0.2,0.6,0,1
			c-0.1,0.2-0.2,0.3-0.2,0.4c-0.1,0.1,0,0.5,0,0.6c0,0.1,0,0.4,0.1,0.4c0.1,0.1,0.2-0.1,0.4,0c0.3,0.1,0.3,0.4,0.5,0.5
			c0.2,0.1,0.2-0.1,0.4,0.1c0.1,0.1,0.3,0.1,0.5,0.1c0.2,0,0.4,0.1,0.5,0.2c0.2,0.1,0.2,0.4,0.4,0.5c0.4,0.3,0.4,0.7,0.7,1.1
			c0.1,0.2,0.2,0.1,0.5,0.3c0.1,0.1,0.3,0.2,0.5,0.3c0.2,0.1,0.2,0.1,0.4,0.3c0.2,0.2,0.3,0.2,0.6,0.4c0.1,0.1,0.3,0.2,0.3,0.2
			c0.1,0.1,0,0.1,0.2,0.2c0.2,0.1,0.2,0.2,0.3,0.3c0.2,0.2,0.1,0.2,0.2,0.4c0.1,0.2,0.3,0.3,0.5,0.5c0.2,0.2,0.3,0.4,0.4,0.6
			c0,0.1,0.1,0.2,0.1,0.3c0.1,0.1,0.1,0,0.3,0.3c0.2,0.2,0.5,0.4,0.7,0.6c0.4,0.3,0.7,0.8,0.8,1.3c0,0.1,0,0.2,0,0.4
			c0,0.6,0.1,0.8,0.4,1.3c0.1,0.2,0.1,0.4,0.4,0.4c0,0,0.1,0,0.1,0.1c0,0.1,0.2,0,0.3,0.1c0,0.1-0.1,0.3-0.1,0.4
			c0,0.1,0.1,0.2,0.1,0.3c0,0.1,0,0.3-0.1,0.4c-0.1,0.1-0.2,0.1-0.3,0.2c-0.1,0.1-0.6,0.5-0.4,0.6c0.1,0.1,0.5-0.1,0.5,0.1
			c0,0.2,0.2,0.1,0.2,0.2c0,0.3-0.5,0.3-0.8,0.3c-0.4,0-0.4,0.4-0.2,0.6c0.1,0.1,0.2,0.2,0.2,0.5c0,0.2,0.2,0.4,0.4,0.6
			c0.2,0.2,0.2,0.3,0.4,0.6c0.2,0.2,0.6,0.3,0.5,0.5c0,0.2,0.1,0.2,0.2,0.4c0,0.1,0.1,0.1,0.2,0.1c0.2,0,0.4,0.1,0.4,0.2
			c0,0.1,0.5,0.2,0.8,0.3c0.3,0-0.1,0.1,0.6,0.4c0.2,0.1,0.3,0.2,0.6,0.4c0.2,0.1,0.3,0.3,0.4,0.4c0.1,0.1-0.1,0.1,0,0.2
			c0.2,0.2,0.3,0.1,0.4,0.4c0.1,0.2,0,0.2,0.3,0.3c0.2,0.1,0.4,0.2,0.7,0.2c0.2,0,0.6,0.2,0.7,0.2c0.2,0.1,0.7,0.2,1,0.3
			c0.5,0.1,0.6,0.3,0.7,0.3c0.1-0.1,0.2-0.2,0.3-0.2c0.2,0,0.4,0.2,0.5,0.3c0.1,0.1,0.1,0.1,0.1,0.2c0.1,0.1,0.2,0.1,0.2,0.2
			c0,0.3,0.5,0.2,0.5,0.4c0,0.2,0.4,0.2,0.6,0.3c0.1,0.1,0.2,0.2,0.3,0.4c0.1,0.1,0.4,0.2,0.6,0.3c0.5,0.2,1.4,0.4,1.9,0.7
			c0.4,0.2,0.5,0.5,0.9,0.7c0.2,0,0.5-0.1,0.7,0c0.2,0.1,0.6,0.2,0.8,0.2c0.2,0.1,0.4,0.2,0.5,0.1c0.2-0.1,0.5,0.6,0.8,0.6
			c0.4,0,0.7,0.1,1.1,0.3c0.2,0.2,0.4,0.4,0.6,0.6c0.3,0,0.7,0,1,0.1c0.3,0,0.6,0.1,0.9,0.2c0.2,0.1,0.4,0.3,0.6,0.3
			c0.3,0.1,0.6,0.1,1,0.1c0.3,0,0.5,0.1,0.7-0.1c0.2-0.2,0.5-0.3,0.7-0.4c0.3-0.1,0.5-0.2,0.8-0.3c0.2-0.1,0.5-0.2,0.8-0.3
			c0.3-0.2,0.5-0.3,0.8-0.3c0.3,0,0.6,0,0.9,0.1c0.6,0.1,1.2,0.4,1.7,0.7c0.1,0,0.2,0.1,0.3,0.2c0.5,0.3,0.8,0.7,1.3,1
			c0.5,0.4,0.8,0.8,1.2,1.3c0.2,0.3,0.5,0.4,0.8,0.7c0.1,0.1,0.2,0.3,0.3,0.4c0.4,0,0.3-0.4,0.3-0.6c0-0.1-0.1-0.3,0-0.3
			c0.2-0.1-0.1-0.2,0.1-0.4c0.2-0.1,0.1-0.2-0.2-0.5c-0.1-0.1-0.1-0.2,0-0.3c0.1-0.2,0.9-1.5,1-1.7c0.1-0.2,0.1-0.2,0.3-0.2h2.6
			c0.1,0,0.3,0,0.3-0.1c0-0.1,0.1-0.2,0-0.3c-0.1-0.1,0-0.2,0.1-0.3c0.1-0.1,0.1-0.3,0-0.2c-0.1,0-0.1-0.2-0.3-0.1
			c-0.1,0-0.1,0.1-0.2-0.3c-0.2-0.7-0.6-0.4-0.7-0.7c-0.1-0.2-0.1,0-0.3-0.1c-0.2-0.1,0-0.2-0.3-0.3c-0.2-0.1-0.1-0.4-0.4-0.3
			c-0.2,0-0.1-0.1-0.3-0.1c-0.1,0-0.2-0.2,0-0.2c0.2,0,1,0,1,0s0-1,0-1.4h4.5c0-0.1,0-0.2,0-0.2c0-0.3,0.4-0.4,0.6,0
			c0.1,0.2,0.3-0.1,0.3-0.2c0-0.1,0.2-0.2,0.2-0.3c0-0.4,0.3-0.1,0.3-0.5c0-0.1,0.2-0.5,0.4-0.5c0.3,0,0.2,0.1,0.3,0.1c0,0,0,0,0,0
			c0,0,0.1,0,0.1-0.1c0,0,0,0,0,0c0.1-0.2,0.2-0.2,0.2-0.4c0-0.1,0-0.1,0.1-0.1c0,0,0.2-0.4,0.3-0.4c0.1,0,0.1,0.3,0.1,0.4
			c0,0.2-0.1,0.3-0.1,0.5c0,0.2,0.2,0.1,0.3,0.3c0.1,0.1,0.1,0.4,0.1,0.5c0,0,0,0.1,0,0.1c0.1,0,0.1,0,0.1-0.1c0,0,0-0.1,0-0.1
			c0,0,0-0.3,0.2-0.4c0.1,0,0.1-0.3,0.1-0.5c0-0.2,0.1-0.4,0.1-0.5c0,0,0.1,0,0.1,0c0-0.1,0-0.2,0.1-0.2c0.1-0.3,0.2-0.5,0.3-0.9
			c0-0.1,0.2-0.2,0.2-0.3c-0.3-0.1-0.4,0.2-0.5,0.3c0-0.1-0.1-0.2,0-0.3c0.1-0.1,0-0.2,0.1-0.2c0.4-0.1,0.4-0.2,0.5-0.5
			c-0.3,0-0.6,0.3-0.7,0c0,0-0.1-0.2,0-0.2c0,0,0.2,0,0.2,0c0.1-0.1,0-0.2,0.2-0.3c0,0,0.1,0,0.2,0c0.2-0.1,0-0.5,0.1-0.7
			C73.8,33.2,74.3,33.1,74.8,32.5z M48.3,20.5c0.1-0.2,0.1-0.1,0.1-0.1c0,0,0,0,0,0.1c0,0,0,0.1,0.1,0.1c0,0,0,0,0,0
			C48.4,20.6,48.2,20.6,48.3,20.5z M48,22.5c0.1-0.1,0.1-0.1,0.1,0c0,0.1,0,0.1,0.1,0.1c0,0,0.1-0.2,0.1-0.3c0-0.1,0-0.3,0.1-0.4
			c0-0.1,0-0.2,0-0.2c0,0,0-0.2,0.1-0.2c0.1-0.1,0.1-0.2,0-0.3c-0.1,0-0.2-0.1-0.2-0.2c0-0.1,0-0.2,0-0.2c0,0,0.1-0.1,0-0.1
			c-0.1,0-0.1,0,0-0.1c0.1-0.1,0.2-0.1,0.2-0.1c0,0,0,0,0,0c0,0,0.1,0,0.1,0c0.1,0,0,0,0.1,0c0,0,0.1,0,0.1-0.1c0-0.1,0.1-0.2,0.1,0
			c0,0.4-0.1,0.2-0.1,0.4c0,0.2,0,0.2-0.1,0.3c-0.1,0.1-0.2,0.2-0.2,0.3c0,0,0.1,0.1,0.1,0.2c0,0.1-0.2,0.6-0.2,0.7
			s-0.1,0.4-0.1,0.5c0,0-0.1,0.3-0.1,0.3c0,0,0,0.3,0,0.3c0,0.1,0,0.1,0,0.2c0,0,0,0-0.1,0c0-0.1,0-0.2,0-0.2c0,0,0-0.1,0-0.2
			c0-0.1,0-0.1,0-0.2c0-0.1,0,0-0.1,0c-0.1,0-0.2,0-0.2-0.1C48,22.6,48,22.6,48,22.5z M7.8,13.8c-0.1,0.1-0.3,0.3-0.1,0.4
			c0.1,0.1,0.2,0,0.3,0c0.1-0.1,0.1-0.2,0.1-0.2s0.2,0,0.2,0.2c0,0.1-0.2,0.3-0.3,0.4c-0.1,0-0.3,0.2-0.3,0.1c0-0.1-0.1-0.2-0.2-0.2
			c-0.1,0-0.2-0.1-0.2-0.2c0-0.1,0-0.1,0.1-0.3c0.1-0.1,0.2-0.2,0.3-0.4c0.1-0.1,0.2-0.2,0.3-0.2C8,13.4,7.9,13.7,7.8,13.8z"/>
		<path fill="#13242b" stroke="#7ED0E0" stroke-width="0.5281" stroke-miterlimit="10" d="M75.4,32.7c0,0-0.1,0.1-0.2,0.1
			c-0.1,0-0.3,0-0.4,0.2c-0.1,0.2-0.1,0.5-0.1,0.5c0,0.1,0.1,0.1,0.2,0.1c0.1,0,0.1-0.2,0.2-0.3c0.1-0.1,0.2-0.2,0.2-0.3
			C75.4,33,75.5,32.8,75.4,32.7z"/>
	</g>
	<g>
		<path fill="#EAD54E" d="M33.4,29.5l4.8-9.1h0.1l4.8,9.1v0L33.4,29.5L33.4,29.5z"/>
	</g>
</g>
</svg>
