<?xml version="1.0" encoding="utf-8"?>
<!-- Generator: Adobe Illustrator 19.0.1, SVG Export Plug-In . SVG Version: 6.00 Build 0)  -->
<svg version="1.1" id="Layer_1" xmlns="http://www.w3.org/2000/svg" xmlns:xlink="http://www.w3.org/1999/xlink" x="0px" y="0px"
	 viewBox="0 0 13.2 13.2" enable-background="new 0 0 13.2 13.2" xml:space="preserve">
<path d="M12.5,0H0.7C0.3,0,0,0.3,0,0.7v11.7c0,0.4,0.3,0.7,0.7,0.7h6.3V8.1H5.3v-2h1.7V4.6c0-1.7,1-2.6,2.6-2.6
	C10.3,2,11,2,11.2,2.1v1.8l-1.1,0c-0.8,0-1,0.4-1,1v1.3h2l-0.3,2H9.1v5.1h3.4c0.4,0,0.7-0.3,0.7-0.7V0.7C13.2,0.3,12.9,0,12.5,0z"/>
</svg>
