<?xml version="1.0" encoding="utf-8"?>
<!-- Generator: Adobe Illustrator 19.0.1, SVG Export Plug-In . SVG Version: 6.00 Build 0)  -->
<svg version="1.1" id="Layer_1" xmlns="http://www.w3.org/2000/svg" xmlns:xlink="http://www.w3.org/1999/xlink" x="0px" y="0px"
	 viewBox="0 0 103 102.3" enable-background="new 0 0 103 102.3" xml:space="preserve">
<g>
	<path fill="#010101" stroke="#ead44d" stroke-miterlimit="10" d="M14.6,24.2c-0.2-0.2-0.4,0.4-0.7,0.2c-0.2-0.2,0.2-0.5,0-0.8
		c-0.2-0.2-0.4,0.4-0.6-0.2c-0.2-0.5,0.3-0.3-0.4-0.8c-0.2-0.1-0.3-0.3-0.5,0.1c-0.2,0.4-0.3-0.2-0.5,0.3c-0.1,0.3,0.6,0.3,0.2,0.5
		c-0.3,0.1-0.3,0.4-0.3,0.2c-0.1-0.2-0.2-0.2-0.3,0.2c0,0.3-0.2-0.3-0.6-0.1c-0.4,0.2-0.3-0.4-0.9-0.3c-0.5,0.1-0.1-0.7-0.5-0.5
		c-0.4,0.1-0.1-0.2-0.7-0.6c-0.2-0.1,0.2-0.2,0.3-0.4c0.3-0.3,0.5,0.1,0.8-0.1c0.2-0.1,0.5-0.2,0.4-0.4c-0.1-0.2-0.4,0.2-0.6-0.2
		c-0.1-0.2-0.2-0.1,0-0.4c0.3-0.2,0.3,0.5,0.6,0.1c0.1-0.2,0.2-0.3,0.3-0.1c0.1,0.2,0.3,0.1,0.3-0.2c0-0.2,0.1-0.4,0.2-0.4
		c0.1-0.1,0.3-0.2,0.2-0.6c0-0.3,0.2-0.4,0.5-0.5c0,0,0-0.1,0-0.1c0-0.2,0.4-0.4,0.7-0.5c0.2-0.1,0.4-0.1,0.4-0.3
		c-0.1,0-0.3,0-0.3-0.1c0-0.1-0.4,0-0.4-0.2c-0.1-0.3-0.5-0.3-0.8-0.3c0,0.1,0.5,0.3,0,0.4c0.1,0.2-0.4,0-0.4,0.1
		c0.1,0.3-0.2,0.2,0.1,0.5c0.1,0.1,0.2,0.1,0.2,0.4c0,0.2-0.1,0.1-0.1,0.2c-0.4,0.5-0.6,0.4-0.5,0.3c0.1-0.1,0.2-0.2,0.2-0.2
		c0,0-0.1-0.1-0.2,0c-0.2,0.1-0.1-0.2,0.2-0.3c0.1,0,0-0.2,0-0.3c0-0.1-0.3-0.2-0.2-0.4c0.1-0.1,0.1-0.2,0-0.3
		c-0.1,0-0.3-0.1-0.3,0.1c0,0.1-0.1,0.1-0.2,0.1c-0.2,0.1,0.1,0.2,0.1,0.2c0,0-0.3,0-0.2-0.3c-0.1,0-0.3,0-0.4,0.1
		c-0.1,0.4,0.3,0,0.1,0.3c0,0.1-0.3,0.4-0.1,0c-0.1,0-0.1-0.1-0.2,0c-0.1,0.1-0.3,0-0.1-0.1c0.1,0-0.2-0.2-0.3-0.1
		c-0.1,0.1,0,0.2-0.1,0.2c-0.1,0-0.1,0.1-0.1,0.1c-0.1,0-0.2,0-0.2,0c-0.1-0.1-0.1-0.1-0.2-0.1c-0.2,0,0.2,0.2,0.1,0.2
		c-0.1,0-0.3,0-0.3,0c0-0.2-0.2-0.1-0.2,0c0,0.1-0.1,0-0.2,0.1c0,0.1-0.1,0-0.1,0.2c0,0.1,0.1,0,0.1,0.1c0.1,0.2-0.1,0.3-0.2,0.1
		c0-0.1-0.1,0.1-0.2,0c0,0,0,0.2,0,0.2c-0.1,0.1-0.2,0.1,0.1,0.3c0.2,0.1,0,0.1-0.2,0c0,0.1-0.1,0.1,0.1,0.2
		c0.1-0.1,0.2,0.1,0.1,0.1c0.1,0.1-0.1,0.1,0.1,0.1c0,0.3-0.1,0-0.3,0.1c-0.1,0-0.1-0.1-0.1,0c0,0.1-0.2,0-0.1,0.1
		c0.1,0.1,0.2,0.1,0.3,0.2c0.2,0.2,0.2,0.1,0.1,0.2c-0.1,0.1-0.3-0.2-0.3-0.1c0,0.1,0.2,0.5-0.2,0C7,20.7,7,20.7,6.9,20.7
		c-0.1,0,0,0.2-0.2,0.2c-0.1,0-0.1,0.2-0.2,0.2c-0.2,0-0.1,0.2-0.1,0.3c0.2,0,0.3,0,0.3,0.1c0,0.1,0.2,0,0.3,0.1
		c-0.1,0.2,0.5-0.1,0.4,0c-0.1,0.1,0.2-0.1,0.3-0.1c0.4-0.1-0.1,0.1-0.1,0.3c-0.1,0.1,0.1,0,0.4-0.3c0.1-0.1,0.1-0.1,0.1,0
		c0,0.2,0,0.2,0.1,0.1c0.2-0.3,0.3-0.2,0.3-0.1c0.1,0.2-0.4,0.4-0.4,0.6c0,0.2-0.3,0.3-0.4,0.2c-0.4-0.3-0.2,0.1-0.3,0.2
		c-0.1,0-0.1,0.1-0.2,0.1c-0.1,0-0.1,0.3-0.3,0.2c-0.4,0.1,0,0-0.1,0.3c0.1,0,0.2-0.1,0.3-0.1c0.4,0.1,0.3,0.2-0.1,0.2
		c-0.2,0.1,0.3,0.5-0.1,0.3c-0.1,0-0.2-0.3-0.3-0.3c-0.1,0-0.2,0.1-0.3-0.1c-0.1-0.1-0.1,0.2-0.2,0.2C5.9,23.2,6,23,5.6,23
		c-0.5,0,0,0.4-0.5,0.4c-0.1,0-0.2-0.1-0.2-0.3c0-0.2-0.5-0.3-0.5-0.3c-0.1,0,0.2,0.4-0.3,0.1c-0.2-0.1-0.5,0-0.7,0
		c-0.1-0.1-0.1,0.2-0.5-0.1c-0.2-0.1-0.2,0-0.4,0c0.2,0.4-0.1,0.2-0.1,0.3c0.1,0.2,0,0.3-0.2,0.3c-0.1,0,0.2-0.2,0-0.3
		c-0.3-0.1-0.2-0.3-0.5-0.1c-0.1,0-0.1,0.2-0.2,0.2c0.3,0,0.1,0.1,0.1,0.3c0,0.2-0.1,0.1-0.2,0.4C1.8,24.1,2,24.2,2,24.1
		c-0.1-0.1-0.1-0.5,0.1-0.5c0.1,0,0-0.3,0.2-0.1c-0.2,0.2,0.3,0.4,0.1,0.5c-0.1,0-0.2,0-0.2,0c0,0.2,0.2,0.2,0.2,0.2
		c0.3-0.3,0,0.3,0.2,0.3c0.1,0,0.1,0.1,0.1,0.3c0,0.6-0.1,0.3-0.1,0.1c0-0.2-0.1-0.1-0.2-0.1c-0.1,0,0.1-0.3-0.2-0.4
		c-0.1,0-0.1,0.1-0.3,0.1c-0.1,0-0.1,0.1-0.2,0.1c-0.1,0,0-0.1-0.2-0.1c-0.1,0,0,0.1-0.2,0.1c-0.3,0,0,0.1,0.1,0.2
		c0.5,0,0.5,0,0.5,0.2c0,0.1,0.2,0,0.3,0.2c0.1,0.2,0.3,0.1,0.4,0.1c0.1-0.1,0.2-0.2,0.4-0.1c0.6,0.1,0.1,0.2,0.3,0.2
		c0.1,0,0.2,0.2,0,0.2c-0.1,0-0.1,0.2-0.3,0.1c-0.2-0.1-0.3-0.1-0.4,0c-0.4,0,0,0.1-0.2,0.3c-0.1,0.4,0.2,0,0.2,0.3
		c0,0,0.4,0.3-0.1,0.1c-0.2-0.1-0.2,0.1-0.2,0c-0.1-0.1-0.3-0.1-0.4-0.1c0,0.1,0.2,0.1,0.2,0.2c-0.1,0-0.5-0.1-0.4,0
		c0.1,0.1-0.2,0-0.3,0.2c0,0,0.1,0,0.1,0.1c0,0.2,0.3-0.2,0.3,0.1c0,0.2-0.2,0-0.3,0c-0.3,0.1-0.2,0.3,0,0.2c0,0,0,0.1,0.1,0.1
		c0.1,0,0.1-0.1,0.1-0.1c0.1,0,0.1,0,0.1,0.2c0,0.1,0.2,0.2,0.3,0c0,0,0-0.2,0.2-0.2c0,0,0,0.1,0,0.1c0,0,0.1-0.1,0.1-0.1
		c0.1,0,0.1,0.2,0,0.2c-0.1,0-0.2,0.1-0.1,0.1c0,0.1-0.1,0.2,0,0.2c0.1,0,0.1,0.2,0.2,0.2c0.1,0,0-0.1,0-0.1c0,0,0.1,0.1,0.3,0
		c0,0,0.1-0.2,0.2-0.2c0.1,0,0,0.1,0.2,0.2c0.1,0,0-0.1,0.1-0.1c0,0,0,0.2,0,0.2c0,0-0.2,0.2,0,0.3c0.1,0.1,0-0.3,0.2-0.3
		c0.1,0,0.1,0.2,0,0.3C4.1,28.1,4,28,4.3,28c0.5,0,0.6,0.1,1.1-0.1c0.9-0.4,0.2,0.1,0.2,0.3c0,0.2,0.5,0.2,0.3,0.2
		c-0.2,0.1-0.4,0-0.6-0.1c-0.3-0.1,0.2,0.6-0.5,0.1c-0.1,0-0.2,0-0.2,0.1c0,0.3-0.2,0-0.3,0.4c0,0.3-0.2,0.3-0.3,0.4
		c-0.1,0.2,0.4-0.1,0.5,0.1c0,0.2-0.3,0.1-0.3,0.2c0,0.2-0.1,0.2-0.2,0.2c-0.2,0-0.2,0.2-0.1,0.2c0.2,0,0.1,0.2,0.1,0.3
		c-0.1,0.2-0.2-0.2-0.5-0.1c-0.1,0.1,0.2,0.2-0.3,0.4c-0.2,0.1-0.3,0.2-0.5,0.3c-0.2,0-0.3,0.1-0.3,0.3c0.3,0,0.7,0.1,0.8-0.2
		c0.1-0.1,0.4-0.2,0.6-0.1c0.4,0.1,1.1,0.2,1.4-0.1c0.1-0.1,0.3-0.6,0.3-0.3c0,0.2,0.1,0.2,0.2,0.2c0.1,0,1,0.1,0.7,0.3
		c-0.7,0-1-0.2-1.3,0.1c-0.4,0.3-0.8,0.1-1.2,0.1c-0.2,0-0.4-0.1-0.5,0c-0.1,0.1-0.1,0.3-0.2,0.4c-0.2,0.2-0.6,0.3-0.9,0.3
		c0,0.3,0.4,0.1,0.4,0.3c0.1,0.3-0.3,0.1-0.2,0.4c0.1,0.2,0.4,0,0.4,0c0.1,0,0,0.2-0.5,0.2c-0.2,0-0.3-0.1-0.3-0.2
		C2.2,32,1.9,32.3,2,32.4c0.1,0.1-0.1,0.3-0.4,0.2c0-0.1,0-0.2,0-0.3c-0.1,0-0.1,0.2-0.4,0.2c0,0.2-0.3,0.1-0.3,0.2
		c0,0.3-0.1,0-0.2,0c-0.3,0.2-0.2,0.5-0.1,0.5C1,33.3,0.8,33.1,1,33.2c0.3,0.1,0.6,0,0.9-0.1c0.5-0.1,0.3,0.2,0.2,0.4
		c-0.6,0.1-1,0.2-1,0.3c0,0.2-0.2,0-0.1,0.2c0.1,0.2-0.2,0-0.2,0.1c-0.1,0.2-0.2,0-0.2,0.1c0,0.2,0.2,0,0.1,0.3c0.1,0,0.2,0,0.2,0.1
		c0,0.1-0.2,0.1,0.1,0.1c0.2,0,0.3-0.6,0.5-0.3c0.3,0.3-0.3,0.2-0.1,0.3c0.4,0,0.1,0.1,0.3,0.2c0,0,0.2-0.1,0.4-0.1
		c0.1,0,0.2-0.2,0.4-0.2c0.2,0,0.4-0.2,0.6-0.2C3,34.6,2.5,35,2.3,35c-0.4,0,0.4,0.2-0.1,0.3c-1,0.1,0.3,0.2-0.4,0.3
		c-0.2,0-0.5,0.1-0.5,0.2c0.5-0.1,0.5,0.1,0.7,0.1c0.1,0,0.1-0.2,0.4-0.2c0.2,0,0.4-0.1,0.5-0.2c0.1-0.1,0.2-0.1,0.3-0.1
		c0,0.1,0.3,0,0.4-0.2c0,0,0.3-0.2,0.4,0c0,0-0.2,0.1-0.2,0.1c0,0.1-0.5,0.3-0.7,0.4c-0.2,0.2-0.4,0.2-0.5,0.2
		c0,0.3,0.7-0.1,0.8-0.2c0.2,0,0.2,0.1,0,0.2C3.4,35.8,3.3,36,3,36c-0.2,0-0.3,0.2-0.3,0.3c0.3,0,0.3,0,0.5-0.2
		c0.1-0.1,0.1,0.1,0.3,0c0.2-0.1,0.5-0.3,0.7-0.3c0.2,0-0.1,0.4-0.1,0.5c0,0.1,0.4-0.2,0.7-0.1c0.2,0.1,0.1-0.3,0.2-0.2
		c0.2,0.1,0,0,0.4-0.1c0.3-0.1,0.2,0.2,0.4,0.1c0.4-0.1,0.1-0.2,0.3-0.3c0.3-0.1,0.3,0.2,0.6,0.1c0.1,0-0.1-0.1,0-0.2
		c0.1-0.1,0.2-0.1,0.3-0.1c0.1,0-0.1,0.3,0.2,0.2c0.2-0.1,0-0.3,0.2-0.3c0.2,0,0.3-0.3,0.5-0.3c0.1,0,0.1-0.2,0-0.3
		c-0.2-0.2,0.1-0.3,0.3-0.3c0.3,0-0.2,0.4,0.1,0.3c0.3-0.1,0.4-0.2,0.8-0.2c0-0.2-0.1-0.2-0.1-0.3c0.3,0,0.3,0.1,0.5,0
		c0.4-0.1,0-0.1,0-0.2C9.6,34,9.8,34,9.9,34c0.4,0.2,0-0.2,0.3-0.2c0.3,0,0.5,0,0.4-0.2c-0.1-0.1,0.3-0.1,0-0.2
		c-0.1-0.1,0.1-0.3,0.3-0.3c0.2,0,0.3-0.2,1-0.1c0.2-0.3,0.4-0.3,0.3-0.1c-0.1,0.2,0.1,0.1,0.3,0.1c0.3-0.1,0.2-0.1,0.2-0.3
		c-0.2-0.2,0.3-0.2,0.1,0.2c-0.1,0.1,0.1,0.1,0.1,0.1c0.2-0.2,0.2-0.1,0.3-0.3c0.1-0.1,0-0.1,0.4-0.1c0.5,0,0.2,0.2,0.3,0.3
		c0.2,0.1-0.1-0.2,0.5-0.2c0.2,0,0.4,0.3,0.4,0c0-0.2,0.3-0.4,0-0.4c-0.3-0.1-0.1-0.1-0.3-0.2c-0.2,0-0.2-0.5,0-0.2
		c0.2,0.2,0.5,0.1,0.3,0c-0.2-0.2,0.3-0.6,0.5-0.8c0.1-0.1,0.1-0.3-0.1-0.3c0.1-0.2,0-0.5,0.1-0.5c0.2,0,0-0.2,0.2-0.2
		c0.1,0-0.2-0.2,0-0.4c0.1-0.2,0.3,0,0.3-0.2c0.1-0.1,0.2-0.4,0.1-0.5c0-0.1-0.4,0.1-0.2-0.3c0-0.1,0.1-0.1,0.1-0.3
		c0-0.1,0-0.2,0-0.3c-0.1-0.1-0.2-0.3-0.2-0.5c0-0.4-0.3,0.1-0.3-0.4c0-0.1,0.3-0.1,0.4-0.1c0.2,0.1,0-0.3-0.1-0.2
		c-0.2-0.4-0.1-0.5,0-0.4c0.2,0.3,0.4,0.1,0,0.1c-0.1,0,0-0.2,0-0.3c0-0.1-0.1,0-0.2-0.1c-0.1-0.3-0.2-0.1-0.3-0.3
		c-0.2-0.6,0.3-0.6,0-0.7c-0.2,0,0-0.2,0-0.4c-0.1,0-0.3,0-0.4-0.1c0-0.3-0.2-0.5,0.2-0.5c0.1,0,0.2,0,0.3,0.1
		c0.2,0.1,0.1-0.1,0.4-0.1c0-0.1-0.1-0.2-0.2-0.2c-0.1,0-0.1-0.1-0.1-0.1c-0.1,0-0.2-0.1-0.2-0.1C14.7,23.9,15,24.6,14.6,24.2z"/>
	<path fill="#010101" stroke="#ead44d" stroke-miterlimit="10" d="M91.2,92.6c-0.2,0-0.1-0.3-0.4,0c-0.1,0.1-0.2,0.1-0.3,0.2
		c-0.1,0.1-0.5,0.3-0.4,0.1c-0.1-0.3-0.2-0.3-0.1-0.1c-0.1,0.3-0.2,0.1-0.2,0.2c-0.1,0.2-0.4,0.2-0.4,0.1c0-0.1-0.2,0.1-0.3-0.1
		c-0.1-0.2-0.5,0.2-0.7,0c-0.5,0.1,0.1,0.2-0.4,0.3c-0.3,0.1-0.3,0.2-0.5,0.2c-0.2,0-0.4-0.1-0.4,0c-0.1,0.2-0.5,0.1-0.7,0
		c-0.3-0.1-0.5,0.1-0.5-0.1c-0.1,0-0.2,0.1-0.5,0.1c0.1,0.3-0.7,0.2-0.9,0.1c-0.1-0.1-0.4-0.2-0.3-0.3c0.1-0.3-0.2-0.1-0.2-0.2
		c0.1,0.2-0.1,0.1-0.2,0.1c-0.3,0-0.3-0.1-0.2-0.2c0.1-0.1-0.1-0.3-0.2-0.3c-0.1,0.1,0-0.3-0.2-0.1c-0.1,0-0.2,0.1-0.1,0.2
		c0,0.1-0.3,0.2-0.3,0c0-0.2-0.2,0-0.3,0c-0.3,0.3,0.2,0.3-0.5,0.6c-0.3,0.1-0.1-0.2-0.4-0.1c-0.2,0,0-0.2-0.1-0.3
		c0-0.1-0.1-0.1-0.1-0.1c0.1-0.2-0.5-0.1-0.2,0.1c0.1,0.1,0,0.2-0.2,0.2c0,0.2-0.2,0.1-0.4,0.2c-0.2,0,0,0.2-0.2,0.3
		c0,0.1-0.1,0.4-0.2,0.5c0,0.2,0.2-0.1,0.2-0.1c0.1,0,0,0.3-0.1,0.3c-0.1,0.1,0.2,0-0.1,0.2c0.1,0,0.1,0.1,0.1,0.2
		c0.2,0.4,0.5,0.1,0.5,0.4c0.2,0.5,0.1,0.2,0.3,0.2c0.4,0,0.5,0.1,0.7,0c0.2-0.1,0.2,0.2,0.3,0.2c0.1,0.1,0,0.1,0.1,0.1
		c0.2-0.1,0.4,0,0.6,0c0.2,0.1,0.1,0.3,0.3,0.4c0.2,0.1,0.2,0.1,0.4,0.2c0.2,0.2,0.3,0.2,0.6,0.3c0.3,0.1,0.1,0.3,0.4,0.3
		c0.2,0,0.2,0.1,0.2,0.1c0.2,0,0.2,0,0.3,0.1c0,0.1,0,0.2,0.1,0.1c0.3,0,0.1,0.2,0.5,0c0.2-0.2,0.8,0.1,1,0.3
		c0.2,0.2,0.4,0.3,0.5,0.6c0,0.1,0.2,0.1,0.1,0.3c0,0.2,0.1,0.2,0.3,0.2c0.2,0,0.3,0.1,0.4,0.2c0.1,0.1,0.1,0.1,0.2,0.1
		c0.1-0.1,0.1,0.1,0.2,0.1c0.1,0,0.3-0.2,0.4,0c0.1,0.1,0.1,0.1,0.2,0.1c0.2-0.1,0.3,0,0.3,0.2c0.1-0.1,0.4-0.1,0.2-0.2
		c-0.1-0.1-0.1-0.1-0.1-0.3c0-0.3,0.2-0.6,0.2-0.6c0.1,0,0.1-0.1,0.2-0.1c0.3-0.1-0.1,0,0.1-0.2c0,0,0.1,0,0.1,0
		c0.1,0.2,0.2,0.1,0.2,0c0,0-0.1-0.2-0.1-0.2c-0.1,0.1-0.1-0.1,0-0.1c0.1-0.1-0.1-0.2-0.1-0.1c0,0-0.2,0-0.1-0.2
		c-0.1-0.1-0.3-0.2,0-0.3c0,0,0.1-0.1,0.1,0c0.1,0.1,0.1-0.1,0-0.1c-0.1-0.1-0.1-0.1-0.2-0.1c-0.1,0-0.1,0-0.2,0
		c-0.2,0-0.1-0.3-0.1-0.4c0-0.2-0.3-0.4,0.2-0.6c0.1-0.1,0-0.2,0.1-0.3c0-0.2,0-0.1,0.1-0.3c0-0.4,0.2-0.4,0.4-0.7
		c0.2-0.3,0.2-0.3,0.3-0.4c0.1-0.1,0.1-0.2,0.2-0.3c0.2-0.1,0.1-0.2,0.2-0.3c0.1-0.1,0-0.3,0.2-0.4C91.4,92.8,91.3,92.6,91.2,92.6z"
		/>
	<path fill="#010101" stroke="#ead44d" stroke-miterlimit="10" d="M71,83.4c-0.3-0.2,0-0.5-0.2-0.6c-0.2,0,0-0.1-0.1-0.2
		c-0.1-0.1-0.1-0.2,0-0.3c0.1,0,0-0.1,0-0.1c-0.1,0-0.2-0.1-0.2-0.1c0.1-0.1-0.2,0,0-0.3c-0.1,0-0.1,0.1-0.2,0.1
		c-0.1,0-0.2-0.1-0.2-0.1c0.2,0,0.2-0.2,0.3-0.2c0.2,0,0.2-0.1,0-0.2c-0.1,0.2-0.1,0-0.2,0c-0.1,0-0.3,0.3-0.2-0.1
		c0,0,0-0.3,0.1-0.1c0,0,0.1-0.1,0-0.1c-0.1-0.1-0.1,0-0.1-0.1c0-0.1-0.1-0.2-0.1,0c0,0.1-0.1-0.1-0.1,0c0,0.2,0,0.4-0.1,0.3
		c-0.1-0.2,0-0.1,0-0.2c0-0.1-0.1,0-0.2-0.1c0-0.1-0.1-0.2-0.1-0.1c-0.1,0.1-0.3,0.1-0.2-0.1c0-0.1,0-0.1-0.1-0.2
		c-0.1-0.1-0.3,0.1-0.4-0.1c-0.1-0.1-0.1,0.1,0,0.1c0.2,0-0.1,0.1,0,0.2c0.1,0.1-0.1,0.1-0.2,0.2c-0.2,0.2-0.1-0.3-0.4,0.1
		c-0.2,0.3-0.4,0.2-0.4,0.3c0,0.2,0,0.2-0.1,0.3c-0.1,0.1-0.1,0.2-0.3,0.2c-0.2,0-0.2,0-0.5,0.2c-0.1,0.2-0.5,0.2-0.6,0.1
		c-0.1-0.1-0.4,0-0.4,0c-0.1-0.1-0.3-0.2-0.2-0.3c-0.2-0.1-0.3-0.2-0.3-0.1c0,0.2,0,0.1,0.1,0.2c0.1,0.1-0.2,0.3-0.2,0.6
		c0,0.1,0.4,0.2,0,0.4c-0.1,0.1,0,0.2,0.1,0.3c0.1-0.4,0.1,0.1,0.3-0.1c0-0.1,0.1-0.1,0.3,0.3c0.2,0.4,0.3,0,0.2,0.5
		c0,0.1-0.1,0.2-0.1,0.3c0.1,0,0.4,0.2,0.3,0.4c-0.2,0.4,0.1,0.3,0.1,0.7c0,0.1-0.2,0-0.2,0.1c-0.3,0-0.3,0.1-0.1,0.1
		c0.1,0-0.1,0.3-0.1,0.5c0.1-0.1,0.2,0.3,0.2,0.1c0.3-0.4,0.5,0.1,0.2,0.4c0.3,0.6,0,0.4-0.1,0.2c0,0-0.1-0.4-0.1,0
		c0,0.2,0,0.3,0.1,0.5c0.1,0.3-0.4,0.4-0.3,0.6c0.3,0.4-0.5,0.1,0.2,0.7c-0.6,0.3,0,0.5,0.1,0.7c0.1,0.2-0.1,0.1-0.2,0
		c-0.1-0.1-0.2-0.1-0.3,0.1c0,0.1,0.2,0.3,0.2,0.5c0,0.2,0.2,0,0.2-0.2c0-0.2,0-0.1,0.3-0.1c0.1,0,0.2,0.1,0.1,0.2
		c0.1,0.4,0.3,0,0.2,0.3c-0.1,0.2,0.1,0.3,0.3,0c0.1-0.1,0.3-0.1,0.4,0.1c0.2,0.2,0.1,0.1,0.4-0.1c0.1-0.1,0.2-0.2,0.3-0.3
		c0-0.1-0.1-0.1,0.1-0.2c0.1-0.1,0.1-0.3,0-0.2c-0.2,0.2-0.1-0.3,0.1-0.5c-0.2,0.1-0.2-0.4,0.1-0.1c0.1,0.1,0.3,0.2,0.3,0.1
		c-0.1-0.4,0.6,0,0.7,0.1c0,0.1,0.2,0,0.2,0.1c0,0.1,0.2-0.2,0.3,0.2c0.1-0.1,0.3-0.3,0.3-0.3c-0.1,0-0.1-0.2-0.1-0.3
		c0.1-0.2,0.3-0.1,0.3-0.2c0.1-0.1-0.1,0-0.1-0.2c0-0.2,0.3-0.2,0.2-0.4c-0.1-0.3,0.1-0.3,0-0.6c-0.1-0.5,0.2-0.3,0.1-0.7
		c0-0.1,0.1-0.2,0.1-0.2c-0.2-0.4,0-0.2,0.1-0.4c-0.2-0.2,0-0.3,0-0.4c0.2-0.4-0.3-0.1-0.3-0.7c0-0.4,0.1-0.5,0.5-0.7
		c0.1-0.1,0.1-0.3,0.2-0.4C71.1,83.7,71.1,83.5,71,83.4z"/>
	<path fill="#010101" stroke="#ead44d" stroke-miterlimit="10" d="M85.1,61.6c-0.2-0.3-0.4-0.3-0.7-0.4c-0.3,0-0.2-0.2,0-0.3
		c0.2-0.2,0.1-0.3,0.1-0.4c-0.1-0.1-0.1-0.1-0.3,0c-0.2,0.2-0.3,0.1-0.3-0.1c0-0.3,0.2-0.3,0.5-0.4c0.2-0.1,0.3-0.3,0-0.3
		c-0.3,0-0.3-0.4-0.5-0.1c-0.2,0.3-0.3,0.1-0.3-0.2c0-0.4,0.4-0.5,0.8-0.7c0.4-0.2,0.3,0.3,0.3,0c0.1-0.2,0.1-0.4,0-0.4
		c-0.3,0-0.6-0.4-1.2-0.1c-0.7,0.3-0.5-0.3-0.9-0.2c-0.9,0.3-0.6-0.3-1-0.1c-0.4,0.2-0.3-0.5-0.6-0.2c-0.2,0.2-0.6,0-0.7-0.2
		c-0.1-0.2-0.2,0-0.4-0.3c-0.2-0.4-0.3-0.1-0.3-0.4c0.2-0.5-0.3,0.1-0.4-0.5c-0.1-0.3,0.1-0.3,0.3-0.4c0.2,0,0.3,0.1,0.2-0.4
		c-0.1-0.5-1.1,0.3-1.4,0.4c-0.4,0.2,0,0.7-0.4,0.6c-0.4,0,0.1-0.5-0.4-0.6c-0.2-0.1-0.4-0.2-0.6,0.1c-0.2,0.3-0.4,0.1-0.4,0
		c-0.1-0.2-0.2-0.2-0.4,0c-0.1,0.2-0.2-0.1-0.5,0.2c-0.3,0.3-0.2,0.3,0,0.7c0.2,0.4-0.2,0.5-0.4,0.3C75.1,57,75,56.9,74.8,57
		c-0.1,0.1-0.2-0.1-0.4-0.1c-0.3,0,0.1-0.2-0.2-0.4c-0.2-0.1-0.4,0.1-0.5,0c-0.2-0.1-0.3,0.1-0.3,0.4c0,0.3-0.5,0.4,0.1,0.5
		c0.2,0,0.4,0.5-0.2,0.5c-0.8,0-0.3-0.4-0.7-0.4c-0.2,0-0.1,0.2-0.3,0.2c-0.2,0,0,0.3-0.3,0.3c-0.3,0.1-0.1,0.4,0.2,0.4
		c0.8,0-0.3,0.3,0.3,0.6c0.3,0.1-0.5,0.5-0.4,0.2c0.1-0.2-0.4-0.1-0.3-0.3c0.1-0.2-0.2-0.4-0.5-0.2c-0.2,0.2-0.2-0.2-0.5,0.2
		c-0.2,0.2-0.6,0.1-0.8-0.1c-0.2-0.2-0.2-0.3-0.1-0.4c0-0.2,0-0.3-0.2-0.2c-0.2,0.2,0-0.1-0.3-0.1c-0.3,0-0.1,0.4-0.1,0.8
		c0,0.4-0.5,0.6-0.7,1c-0.3,0.3-0.3,0.5-0.1,0.7c0.2,0.2,0.1,0.5-0.3,0.4c-0.4,0,0.2-0.4-0.4-0.5c-0.6-0.1,0.3-0.6-0.2-0.6
		c-0.2,0-0.1-0.3-0.3-0.1c-0.2,0.3-0.3-0.1-0.6-0.3c-0.2-0.2-0.4-0.2-0.3-0.5c0.1-0.3,0-0.5-0.2-0.5c-0.2,0-0.5,0.1-0.5,0.2
		c-0.3,0.5-0.3,0-0.5,0.2c-0.2,0.2-0.4,0.1-0.1,0.3c0.2,0.1,0.5,0.3-0.1,0.6c-0.4,0.2,0.1,0.5-0.5,0.5c-0.5,0.1,0.1,0.4-0.6,0.4
		c-0.4,0-0.2-0.3-0.6-0.3c-0.2,0-0.2-0.4-0.5,0.1c-0.2,0.3-0.5-0.1-0.8,0.2c-0.3,0.2-0.5,0.1-0.6,0c-0.2-0.1-0.1,0.2-0.3,0.2
		c-0.2,0-0.4,0.1-0.3,0.3c0,0.2,0,0.3,0.3,0.4c0.7,0.3-0.2,0.5,0.7,0.9c0.6,0.3-0.2,0.4-0.1,1.1c0,0.3-0.2,0.1-0.5,0.3
		c-0.2,0.1-0.1,0.4-0.5,0.3c-0.3-0.1-0.7,0.1-0.6,0.3c0,0.2,0,0.1,0.3,0.3c0.3,0.2,0,0.3,0.3,0.5c0.2,0.1,0.2,0.2,0.5,0.1
		c0.5-0.2,0.1,0.2,0.3,0.5c0.3,0.4-0.4,0-0.3,0.4c0.1,0.2-0.7,0.4-0.2,0.7c0.3,0.2-0.4,0.2,0.1,0.7c0.4,0.4,0.8,0.1,1.1,0.4
		c0.2,0.1,0.5,0.3,0.7,0c0.2-0.3,0.1,0.2,0.4-0.1c0.4-0.3,0.2,0.2,0.3,0.3c0.1,0.1,0.1,0.2-0.1,0.3c-0.2,0.1,0.1,0.2-0.5,0.6
		c-0.1,0.1-0.1,0.3,0,0.5c0.2,0,0.5,0.1,0.6,0c0.1-0.1,0.5-0.1,0.5-0.2c0,0,0.3,0,0.5-0.1c0.2-0.2,0.4-0.2,0.6-0.4
		c0.1,0-0.1-0.2,0.1-0.3c0.2-0.1,0-0.6,0.7-0.6c0.3,0,0-0.1,0.2-0.2c0.3-0.1-0.1-0.1,0.1-0.4c0.2,0,0.3-0.2,0.4-0.2
		c0.2-0.1,0.2-0.1,0.3-0.2c0.1-0.1,0.4-0.1,0.7,0c0.2,0.1,0.4,0.1,0.5,0.1c0.8,0,0.1,0.2,0.4,0.3c0.6,0.2-0.2-0.6,1,0.3
		c0.1,0.1,0.4,0.1,0.5,0.3c0.2,0.3,0.4,0.1,0.6,0.3c0.7,0.8-0.2-0.6,0.6,0.2c0,0,0.1,0,0.1,0c0.4,0.2,0.1,0,0.4,0.2
		c0.2,0.2,0.3,0.3,0.5,0.7c0.1,0.2,0.1,0.3,0.1,0.4c0,0.2,0.1,0.5,0,0.8c0.2,0.3,0,0.1,0.2,0.3c0.2,0.2,0.2,0.3,0.3,0.4
		c0.1,0.2,0.2,0.3,0.3,0.4c0,0.1,0.1,0.3,0.1,0.5c0,0.3-0.1,0.5-0.2,0.6c-0.2,0.1,0.4,0.7,0.2,0.3c0.2-0.1,0.5-0.1,0.7,0
		c0.2,0.2,0.1,0.5,0,0.5c-0.1,0-0.1,0,0,0.1c0.1,0.2,0.7,0,0.8,0.4c0.1,0.4,0.5,0.2,0.5,0.4c0,0.2,0.2,0.1,0.3,0.2
		c0,0.1,0,0.1,0,0.3c0,0.1,0.1-0.2,0.3,0.1c0.1,0.1-0.1,0.1-0.1,0.2c0.5,0,0.9,0.1,1.2,0.4c0.4,0.3,0.5,0.5,0.5,0.7
		c0,0.2,0.3,0.5,0.3,0.7c0,0.1,0.3-0.1,0.5,0.2c0.2,0.3,0.5,0.1,0.7,0.5c0.2,0.3,0,0.4,0.1,0.6c0,0.1,0,0,0.3,0.1
		c0.4,0.1,0.6,0.4,0.8,0.7c0.2,0.3,0.3,0.4,0.3,0.4c0.3,0,0.2-0.1,0.3,0.1c0.1,0.1,0.7-0.1,0.9,0.5c0.1,0.3,0,0.1,0.1,0.3
		c0.5,0.2,0.1-0.1,0.7-0.2c0.6-0.1,1.3,0.6,1.2,0.3c-0.1-0.2,0.2-0.3,0.7,0.1c0.6,0.5,0.3,0.6,0.5,0.8c0.3,0.1,0.3,0.2,0.3,0.5
		c0,0.1,0.1,0.1,0,0.2c-0.1,0.2,0.1,0.2,0.2,0.1c0.1-0.2,0.3,0.2,0.4,0c0.2-0.4,0.4,0.1,0.6,0.2c0.3,0,0.6,0.2,0.1,0.4
		c-0.1,0-0.2,0.1-0.4,0.3c0,0.1,0.1,0.1,0.4,0c0.1,0,0.3-0.2,0.3-0.1c0.1,0.1,0.3-0.1,0.5-0.1c0.2,0.1,0.3,0,0.3-0.1
		c0-0.2,0.3-0.1,0.6,0.5c0.6,0.9,0.1,0.5,0.1,1c0,0.3-0.2,0-0.1,0.2c0,0.1,0.4,0.1,0.4,0.2c-0.1,0.2,0.5,0,0.7,0.3
		c0.4,0.3,0.1,0.4,0.2,0.4c0.2,0,0.2,0,0.4,0.1c0.2,0.2,0.3-0.1,0.6-0.3c0.4-0.1,0.5,0.3,0.7,0.5c0.4,0.5,0,0.4,0.1,0.4
		c0.2,0.1,0.1,0.2,0.1,0.4c0,0.3,0.2,0.2,0.2,0.6c0,0.3,0.5,0.2,0.7,1.1c0.1,0.3,0.1,0.9,0.2,1.2c0.2,0.4,0.6,0.3,0.3,1
		c-0.2,0.4-0.7,0-0.8,0.3c0,0.1-0.2,0-0.3,0.1c-0.1,0.1-0.5,0.1,0.1,0.5c0.3,0.2,0,0.3-0.2,0.8c-0.1,0.1,0,0.4-0.3,0.4
		c-0.1,0-0.2,0-0.3,0.1c0,0.1-0.2,0.1,0,0.3c0.1,0.2-0.2,0.3,0,0.4c0.2,0.2-0.3,0.1,0.1,0.5c0.3,0.2,0.6,0.1,0.8,0.1
		c0.2,0,0.4,0.1,0.6,0c0.2,0,0.4-0.5,0.3-0.6c0-0.3,0.3-0.5,0.5-0.7c0.1-0.1,0.2-0.2,0.3-0.2c0.3,0,0-0.1,0.2-0.1
		c0.2-0.1,0.4-0.1,0.5-0.4c0.1-0.3-0.1-0.6-0.1-0.9c0-0.2-0.3-0.3,0.5-0.8c0.5-0.3,1-0.4,1-0.3c0,0.3,0.2,0,0.4,0.1
		c0-0.2,0.3-0.1,0.3-0.3c-0.1-0.3,0.3-0.3,0-0.3c-0.5-0.1,0-0.5-0.1-0.6c-0.2-0.3-0.1-0.3-0.1-0.3c-0.1-0.4,0.2-0.2,0.1-0.5
		c-0.1-0.2-0.2,0.2-0.4-0.3c-0.1-0.3-0.4,0.1-0.8-0.5c-0.3-0.3-0.5,0-0.8-0.2c-0.2-0.1-0.2,0.1-0.2-0.4c0-0.1-0.2,0-0.2-0.2
		c0.1-0.2,0.3-0.4,0.4-0.6c0.2-0.2,0-0.3,0-0.5c0-0.2,0.1-0.3,0.2-0.3c0.1,0,0.1-0.2,0.2-0.2c0.1-0.1,0-0.4,0.2-0.5
		c0.2-0.1,0.1-0.2,0.3-0.4c0.1-0.1,0.4-0.6,0.9-0.6c0.1,0.4,0.1,0.1,0.3,0.1c0.4,0,0.1,0.3,0,0.2c-0.1,0-0.2,0-0.1,0.1
		c0.1,0.1,0.5,0.2,0.8,0.4c0.1-0.1,0.3,0,0.4,0.1c0.6-0.3,1.3,0.2,1.2,0.1c0.2,0.2-0.1,0.3,0.4,0.5c0,0.1,0.1,0.3,0,0.3
		c-0.1,0,0.1,0.2,0,0.2c-0.2-0.1,0.1,0.2,0.2,0.4c0.4,0.5,0.7,0.2,0.8,0.4c0.3,0.4,0.2,0.1,0.3,0c0,0,0.1-0.7,0.2-0.9
		c0.3-0.3,0.4-0.2,0.1-0.6c-0.1-0.2,0.1-0.2-0.4-0.6c-0.1-0.2-0.3-0.5-0.5-0.6c-0.3-0.2-0.3,0-0.4-0.2c-0.1-0.1-0.1-0.2-0.2-0.2
		c0-0.2-0.3-0.3-0.5-0.3c-0.2-0.1-0.4-0.1-0.5-0.2c-0.2-0.3-0.3-0.2-0.6-0.3c0.1,0-0.3-0.1-0.7-0.4c-0.4-0.2,0-0.1-0.6-0.5
		c-0.6-0.4-0.8-0.3-1.4-0.5c-0.3-0.1-0.4-0.2-0.7-0.2c-0.2-0.2-1-0.5-1.4-0.6c-0.3-0.1-0.7-0.3-0.9-0.5c-0.2-0.2-0.1-0.6,0.4-0.7
		c0.3-0.1,0.2-0.3,0.5-0.4c0.2,0,0.1-0.4-0.2-0.6c-0.3-0.3-0.4-0.2-0.5-0.1c-0.9,0-0.8,0-0.7,0.1c0.5,0.3-0.6,0.3-0.4,0
		c0.5-0.1-0.1-0.1-0.2-0.1c-1.2,0.1,0.4,0.2-0.5,0.3c-0.5,0-0.8-0.2-0.3-0.2c0.2,0,0.2,0,0.2,0c0-0.1-0.8,0-1.1-0.1
		c-0.3-0.1-0.1-0.3-0.5-0.3c-0.1,0-0.4,0-0.4-0.1c0,0-0.1-0.4-0.1-0.4c-0.6-0.1-0.1-0.3-0.4-0.5c-0.2-0.2-0.3-0.1-0.7-0.3
		c-0.1-0.1-0.2-0.2-0.2-0.3c0-0.2-0.4-0.2-0.6-0.3c-0.3-0.2-0.9-0.9-1-1.3c-0.4-0.9-0.3-1.2-0.6-1.9c-0.1-0.2-0.1-0.4-0.2-0.5
		c-0.1-0.1-0.1-0.1-0.2-0.3c0-0.1,0-0.2-0.1-0.3c-0.1-0.1-0.1-0.2-0.2-0.3c-0.2-0.2,0.3-0.1-0.1-0.3c-0.1-0.1-0.1-0.3-0.3-0.3
		c0,0.2-0.1,0.1-0.1,0.2c-0.2,0-0.2-0.2-0.3-0.2c-0.1-0.1-0.2,0-0.3-0.1c-0.2-0.2-0.3-0.3-0.4-0.4c-0.5-0.3-0.9-0.8-1.4-0.9
		c-0.4-0.1-0.5-0.4-0.8-0.5c-0.3-0.1-0.4-0.4-0.5-0.6c-0.2-0.3-0.2-0.8-0.3-1.1c0-0.3-0.1-0.3-0.1-0.6c0.1-0.9-0.4,0.5-0.2-0.5
		c0.1,0.1,0.2,0,0.2-0.1c0-0.4,0.2,0,0.3,0.1c0,0.1,0.1,0.1,0.2,0.1c0.1-0.1,0-0.3-0.1-0.4c0-0.1,0.1-0.2,0.2-0.2
		c0,0.1-0.1,0.3,0,0.3c0.1,0,0.2-0.1,0.2-0.3c0-0.3,0.1-0.1,0.2-0.2c0.1-0.2-0.5-0.3-0.2-0.1c0.1,0-0.2,0.2-0.3,0.1
		c-0.2-0.1,0.3-0.4,0.1-0.3c-0.1,0-0.2-0.1-0.2,0c-0.2-0.3,0.1,0.2-0.2,0.2c-0.3-0.1,0-0.3-0.1-0.3c-0.2,0-0.3-0.3-0.2-0.4
		c0.1,0,0.1,0.1,0.1,0.2c0.4,0.5,0-0.1,0.1-0.3c-0.1,0-0.2-0.2-0.2-0.2c0-0.2-0.1-0.1-0.1,0.1c-0.1,0.3-0.1,0.2-0.2,0.1
		c0-0.1,0-0.2,0.1-0.3c0-0.3-0.4,0.3-0.3-0.5c0-0.2,0.3,0.2,0.4-0.4c0-0.2,0.1-0.2,0.2-0.2c0.1,0,0,0.2,0.1,0.2
		c0.1,0,0.4-0.2,0.3-0.2c-0.1-0.1-0.2,0.1-0.3,0c0.1-0.1,0.7-0.5,0.7-0.3c0,0.1,0.1,0.1,0.2,0c0.2-0.1,0.3,0.2-0.1,0.2
		c-0.1,0-0.4,0.2-0.3,0.2c0,0.1,0.6-0.2,0.7-0.2c0.4-0.1,0.4-0.2,0.8-0.3c0.2,0-0.3-0.6,0.2-0.1c0.1,0,0.2-0.1,0.4-0.1
		c0.1-0.2,0.3-0.3,0.3-0.3c0-0.3-0.5,0.2-0.4-0.1c0-0.1,0.1-0.3,0.2-0.2c0.1,0.1,0.2-0.3,0.4,0c0,0.1,0-0.2,0.3,0
		c0.4,0.5,0,0.3,0.1,0.4c0.2,0.1,0.7-0.3,0.7-0.3c0-0.1-0.1-0.1-0.1-0.2c0.4-0.1,0.5,0.2,0.8,0.3c0.2,0.1,0.2,0.2,0.1,0.2
		c-0.3-0.1,0.1,0.2-0.1,0.2c-0.1,0-0.2-0.1-0.2,0c0,0,0,0.1,0.1,0.1c0.3,0,0.5,0,0.6,0C85.4,62.3,85.3,61.8,85.1,61.6z M74.4,61.8
		c0,0.2-0.3,0.2-0.2,0.4c0.1,0.2,0.1,0.1,0.1,0.5c0,0.1-0.3,0.2-0.4,0c-0.2-0.2-0.3,0.2-0.4-0.1c-0.1-0.2,0.2-0.1,0.1-0.4
		c0-0.2,0.1-0.3,0.2-0.3c0.5-0.5,0.5-0.7,0.9-0.9C75,61.2,74.6,61.3,74.4,61.8z M79.2,66.1c0.1-0.2,0.4,0.2,0.2,0.4
		c-0.1,0.1-0.6-0.2-0.4-0.4C79.1,66,79.2,66.2,79.2,66.1z"/>
	<path fill="#010101" stroke="#ead44d" stroke-miterlimit="10" d="M66.6,76.4c0.4,0.2,0,0.4,0.2,0.4c0.1,0,0.2,0,0.2,0.1
		c0,0.1,0.1-0.1,0.3,0.1c0.2,0.3-0.4,0.5-0.2,0.7c0.2,0.2-0.2,0.1-0.3,0.1c-0.1,0.1,0.1,0.1,0,0.2c-0.1,0.1,0.2,0,0.4,0
		c0.2,0,0.2-0.2,0.3-0.1c0.1,0.2,0,0.2-0.1,0.2c-0.2,0.1,0.1,0.2-0.2,0.3c-0.1,0,0,0.2-0.2,0.2c-0.1,0,0.2,0.1,0.3,0
		c0.1-0.1,0.2,0,0.1,0.1c-0.1,0.1,0.3,0,0.4,0.1c0,0.1,0,0.1-0.1,0.2c-0.4,0.2-0.1-0.1-0.3,0.4c0.2,0,0.3,0.1,0.3,0.2
		c0,0.2,0.4,0,0.4,0.2c0,0.1,0.3-0.1,0.2,0c0,0.1,0,0.1,0.1,0.1c0.3,0,0.2,0,0.1,0.2c0.3,0,0.4,0.3,0.6,0.2c0.2-0.2,0.1-0.1,0.2-0.2
		c0-0.2-0.3,0.2-0.2,0c0.2-0.1-0.2-0.1,0.1-0.2c0.2,0-0.3-0.3,0.1-0.3c0-0.2,0.2-0.1,0.2-0.2c0-0.3,0.2-0.2,0.1-0.4
		c0-0.1,0.1-0.1,0.1-0.3c0-0.3,0-0.5,0-0.6c0.1-0.1,0-0.2,0.1-0.4c0.1-0.2,0.5-0.8,0.5-1.1c0-0.2-0.2-0.2,0-0.3c0-0.1,0-0.2-0.1-0.5
		c0-0.1,0.1-0.2,0-0.5c0-0.2,0-0.5-0.1-0.5C69.6,74.4,70.1,75,70,75c-0.2,0-0.2-0.2-0.2-0.6c0-0.3,0.1-0.2,0.1-0.4
		c0-0.3-0.1-0.2,0-0.4c0-0.1-0.1-0.2-0.1-0.3c0-0.1-0.2-0.4-0.4-0.2c0,0.1-0.2,0.2-0.1,0.2c0.1,0.1-0.1,0.3,0,0.3
		c0.1,0.1-0.1,0.3,0,0.3c0.1,0,0.1,0.2,0.1,0.2c0,0.4-0.2,0.4-0.4,0.2c-0.1-0.1-0.5,0-0.6,0.1c0.1,0.2-0.2,0.2-0.5,0.2
		c-0.2,0.1-0.4,0-0.4,0.2c0,0.2-0.1,0.2-0.3,0.1c-0.1,0,0.1,0.3-0.3,0.3c0.2,0.3,0.2,0.3-0.1,0.3c-0.1,0,0.1,0.1-0.3,0.3
		c0,0.3,0.4-0.1,0.2,0.2c0,0.1,0.3,0,0.3,0.2C67,76.4,66.6,76.2,66.6,76.4z"/>
	<path fill="#010101" stroke="#ead44d" stroke-miterlimit="10" d="M65,47.3c-0.2-0.2-0.5-0.1-1,0c-0.5,0.1,0-0.2-0.5-0.2
		c-0.5,0,0-0.4-0.5-0.4c-0.5,0-0.1,0.6-0.9,0.1c-0.4-0.2-0.1,0.3-0.4,0.2c-0.3,0,0-0.4-0.5-0.6c-0.5-0.1,0.1,0.4-0.4,0.4
		c-0.4,0,0-0.2-0.4-0.4c-0.9-0.6-0.1-0.5-0.5-0.9c-0.1-0.1-0.2-0.2-0.4-0.1c-0.7,0.2-0.3-0.6-1.2,0.1c-0.4,0.3-0.1-0.2-0.5-0.2
		c-0.4,0-0.2-0.3-0.6-0.3c-0.5,0-0.2,0.2-0.6,0.2c-0.5,0,0-0.4-0.6-0.4c-0.6,0,0.1-0.4-0.4-0.4c-0.6,0.1-0.4-0.6-1.1-0.4
		c-0.5,0.1,0.1-0.5-0.4-0.7c-0.2-0.1,0-0.2,0-0.5c0-0.3,0.2-0.1,0.2-0.4c0-0.2-0.3-0.1-0.5,0c-0.2,0.1-0.3,0.1-0.2,0.4
		c0.1,0.3-0.4,0.2-0.6,0.4c-0.3,0.2-0.4-0.1-0.6-0.1c-0.2,0-0.6,0.2-0.7-0.1c0-0.3,0.4-0.2,0.3-0.5c-0.1-0.3-0.2,0-0.3-0.2
		c-0.1-0.2,0.5-0.4,0.2-0.6c-0.1-0.1-0.2,0.1-0.3,0c0-0.2-0.1,0-0.3-0.3c-0.2-0.2-0.1,0.1-0.4,0.1c-0.2,0-0.2-0.2-0.5-0.2
		c-0.4,0-0.1,0.5-0.5,0.2c-0.1-0.1,0.1-0.5-0.1-0.6c-0.1-0.1,0-0.2-0.3-0.1c-0.3,0.1,0-0.2-0.3-0.2c-0.3,0-0.3,0.4-0.5,0.1
		c-0.3-0.2,0-0.4-0.2-0.5c-0.1-0.1,0.1-0.5-0.1-0.5c-0.2,0-0.1-0.5-0.5-0.3c-0.2,0.1-0.3-0.1-0.5,0.3c-0.1,0.2-0.3,0.4-0.6-0.2
		c-0.3-0.5-0.7,0.2-0.6-0.6c0-0.4,0-0.4-0.3-1.1c-0.1,0-0.1,0-0.1,0.1c-0.1,0.2-0.3,0-0.5,0.1c-0.3,0.2-0.5-0.1-0.8,0.1
		c-0.1,0.1-0.8,0-0.9,0.2c-0.1,0.2-0.3,0-0.4,0.1c-0.1,0.2-0.3,0-0.4,0.2c-0.2,0.3-0.6-0.2-0.4,0.6c0.3,0.5-0.3-0.1-0.1,1
		c0,0.1,0.2,0.1,0.4,0.3c0,0.1-0.4-0.1-0.4,0.1c0,0.1-0.1,0.4,0.1,0.4c0.6,0.2-0.2,0-0.1,0.4c-0.1,0.3,0.1,0.1,0.2,0.1
		c0,0.1,0.1,0.2,0.4,0.2c0.6,0.9-0.1,0.2-0.1,0.3c-0.4,0-0.4-0.6-0.7,0c-0.1,0.2-0.1,0.2-0.2,0.4c-0.1,0.1-0.3,0.1-0.5,0.2
		c-0.1,0-0.1,0.1-0.1,0.1c-0.1,0.1-0.1,0.2-0.3,0.3c0,0-0.3,0.1-0.4,0.1c-0.1,0-0.2,0-0.3,0c-0.2,0.1-0.2,0.1-0.4,0.1
		c-0.2,0.1-0.3,0-0.5,0c-0.3,0-0.5,0.2-0.7,0.4c-0.2,0.1-0.3,0.3-0.6,0.3c-0.6,0.1-0.4,0.3-0.7,0.6c-0.1,0.3-0.4,0.5,0.3,0.6
		c0.6-0.1,1.2,0.3,0,0.2c-0.3,0.1-0.5,0.1-0.6,0.3c0,0.1-0.6,0.1-0.6,0.2c-0.5,0.9-0.1,0-0.3,0c-0.5-0.1-0.4-0.1-0.7-0.1
		c-0.2,0-1.3,0-1.5-0.1c-0.3-0.2-0.5-0.2-0.7-0.2c-0.3,0.2-0.2,0.3-0.3,0.3c-0.5-0.2,0.4,0-0.5-0.7c-0.2-0.2-0.1-0.5,0-0.4
		c0.2,0.1,0.2-0.2,0-0.3c-0.2-0.1,0.1-0.2-0.2-0.2c-0.3,0-0.2-0.1-0.5,0.1c-0.2,0.1,0.1,0.5-0.7,0.1c-0.3-0.1-0.5,0-0.9-0.3
		c-0.2-0.1-0.2,0.3-0.1,0.2c0.5,0.2,0.4,0.1,0.4,0.4c0,0.3-0.1,0.1-0.2,0.3c0,0.1,0,0.1,0.1,0.2c0.2,0.1,0.1,0.4,0,0.5
		c0.4,0,0.3,0.1,0.5,0.3c0.1,0.1,0.1,0.5,0.3,0.4c0.3-0.1,0.4,0,0.3,0.1c-0.1,0-0.3-0.1-0.3,0.2c0,0.2-0.1,0.7,0,0.6
		c0.4-0.5-0.2,1.3,0.1,1.1c0.3-0.2,0.2,0.2,0.1,0.2c0,0.1,0.1,0,0.2,0.2c0.4-0.1,0.2,0.2-0.1,0.2c-0.3,0-0.2,0-0.3-0.1
		c-0.4-0.1-1.4,0.5-1-0.2c-0.1,0,0-0.1,0-0.1c-0.2-0.1-0.2,0.1-0.3,0.1c-0.1,0-0.2,0.1-0.3,0.2c-0.1,0.1,0.5,1-0.2,0.1
		c-0.1-0.1-0.3,0-0.3,0.1c-0.6,0.4-0.1-0.3-0.3-0.2c-0.2,0.1-0.2-0.2-0.2-0.2c-0.1,0,0,0.1-0.2,0.2c-0.1,0-0.1,0-0.2,0
		c-0.1,0-0.2,0.2-0.4,0.2c-0.2-0.1,0,0.4-0.5,0.3c-0.3,0-0.2-0.1-0.5-0.3c0-0.3,0-0.2-0.2-0.2c-0.1,0-0.1-0.2-0.2-0.2
		c-0.2,0-0.1-0.3-0.2-0.3c-0.2,0,0.1-0.1-0.1-0.2c-0.1-0.1-0.3,0-0.3-0.1c0-0.3,0.3,0-0.1-0.3c-0.3,0.5-0.3,0.2-0.4,0.1
		c-0.2,0.2-0.5,0-0.4,0.2c0.1,0.2-0.2-0.2-0.3,0.1c0,0.2-0.2,0-0.3-0.1c-0.2,0-0.2,0.4-0.3,0.2c-0.1,0-0.1,0.2,0,0.2
		c0.2,0,0.2,0.1,0.1,0.2c0,0.1-0.2,0-0.1,0.1c0,0.1-0.5-0.1-0.7-0.1c-0.1,0-0.1,0-0.2,0c-0.3,0,0.1,0.4-0.3,0.2
		c-0.1,0-0.3,0.1-0.2-0.1c-0.3-0.1,0,0,0-0.2c0-0.1-0.1,0-0.2,0c-0.4,0,0.2,0.2-0.3,0.2c-0.6,0.1,0,0.1-0.5,0.3
		c-0.3,0.1-0.2-0.2-0.3-0.2c-0.2,0-0.1,0.1-0.3,0.1c-0.2,0,0.1,0.2-0.4,0.2c-0.3,0-0.2,0.3-0.5,0.2c-0.1,0-0.3,0.1-0.3,0.3
		c0,0.1-0.1,0.4,0,0.5c0.3,0.1,0,0.2,0,0.3c0.3,0,0.2-0.2,0.4-0.1c0.2,0.1,0.2-0.1,0.7-0.1c0.4,0,0.1-0.2,0.3-0.2
		c0.2,0.3-0.2,0.3-0.1,0.4c0.2,0.3,0.3-0.2,0.3,0c0.2,0.6-0.3,0.2-0.7,0.2c0-0.3-0.2-0.1-0.2-0.1c0,0.1,0.1,0.1,0,0.1
		c-0.1,0-0.3,0.2,0,0.2c0.2,0,0.1,0.2,0.1,0.3c0.2,0.1,0.2-0.4,0.4-0.3c0.1,0.1,0.1,0,0.2,0c0.2,0.3,0.5-0.1,0.4,0.6
		c0,0.2-0.3,0.1-1.1,0.1c-0.4,0-0.5,0-0.4,0.2c0.5,0,0.1,0.2,0.4,0.2c0.3,0,0.3-0.1,0.5,0.1c0.8,0.9-0.1,0.5,0.3,0.8
		c0.2-0.1,0.7,0.1,0.8-0.2c0,0-0.4-0.2,0.3-0.1c0.2,0,0.3,0.1,0.3,0c0-0.1-0.3-0.1,0.1-0.2c0.1,0,0.3,0.4,0.4,0.5
		c0.4,0.1,0.8-0.1,1.1,0.2c0.2,0.2,0.3,0.3,0.4,0.3c0.1-0.1,0.1-0.5,0.3-0.1c0.1,0.1,0.2-0.1,0.2-0.1c0.1,0.1-0.2,0.2-0.2,0.2
		c0.1,0,0.3,0.1,0.3,0.1c0,0.1-0.2-0.2-0.3-0.1c0.1,0.1,0.3,0.2,0.4,0.3c0,0,0.1-0.1,0.1-0.2c0-0.1,0.1-0.1,0.1,0
		c0.5-0.1-0.1,0-0.1,0.2c0.1,0.1,0.2,0.1,0,0.3c-0.1,0.1,0,0.3,0.1,0.3c0.1,0,0.4,0.1,0.1-0.2c-0.1-0.1,0-0.4,0.1-0.2
		c0.2-0.2,0.1,0,0.2,0c0-0.2,0.1,0,0.2,0c0,0,0.2,0,0.1-0.1c-0.1-0.1,0.1-0.2,0.2-0.2c0.1,0,0.1,0.2,0.2,0c0.2-0.3,0.3,0,0.3,0.2
		c0,0-0.1,0.2-0.2,0.1c-0.1-0.1-0.3,0-0.3,0c-0.1,0.1,0.2,0.1,0.2,0.2c0.3,0.1,0.2-0.1,0.6,0c0.1-0.2,0.2,0,0.6-0.1
		c0.1,0,0,0.1,0.2,0.1c1.1-0.1,0.1,0.2-0.2,0.1c-0.2,0-0.2,0.2,0,0.2c0.1,0,0.3,0,0.1,0.1c0.2,0.1,0,0.2-0.2,0.1c0,0-0.1,0-0.2,0.1
		c-0.1,0.1,0.3,0.1,0.2,0.2c0.3-0.1,0.2,0.1,0.2,0.1c0,0-0.2-0.1-0.3,0c0,0.1,0.2,0.1,0.3,0.2c0.3,0.1,0.1-0.1,0.3-0.1
		c0.4,0,0.1,0.1,0.2,0.2c0.1,0.1,0.2,0.1,0.3,0c0.2-0.1,0.2-0.3,0.7-0.3c0.8,0,0.9,0.3,0.4,0.1c-0.2-0.1-0.4,0-0.6,0
		c-0.1,0-0.2,0.1-0.2,0.2c0.1,0.3,0.1,0.3-0.2,0.3c0,0.1-0.4,0.2,0,0.2c0.2,0,0.4,0,0.4,0.1c0,0.1,0.2,0,0.3,0.1
		c0.2,0.2,0.2,0.1-0.1,0.3c-0.1,0.1,0.1,0.1,0,0.3c0,0.1,0,0-0.1,0.1c-0.1,0.2-0.2,0.3-0.2,0c0-0.1-0.1-0.3-0.3-0.3
		c-0.1,0-0.2-0.2,0-0.1c0.3,0,0-0.2-0.3-0.1c0.1,0.1-0.2,0.1,0,0.2c0.1,0.1,0.1,0.3,0.2,0.2c0.2-0.1,0.4,0.1,0.3,0.4
		c0,0.2,0.1,0.4,0.3,0.4c0.3,0.1,0.5,0.5,0.7,0.7c0.1,0.1,0.2,0.4,0.2,0.6c0.3,0,0.6,0.3,0.8,0.4c0.3,0.1,0.4-0.1,0.5,0.1
		c0,0.2-0.1,0.2,0.1,0.3c0.1,0,0.3,0.1,0.3-0.1c0-0.2,0.1,0,0.1,0.2c0,0.1,0.2,0.2,0.3,0.2c0,0,0.1-0.1,0-0.2
		c-0.1-0.1,0.2-0.2,0.3,0c0.2,0.2-0.1,0.2-0.1,0.3c-0.1,0.2-0.1,0.2-0.2,0.2c-0.1,0.2-0.1,0.3,0,0.2c0.1-0.1,0.2-0.1,0.2,0
		C32.7,59.9,33,59.9,33,60c0.1,0.1-0.1,0.2,0.1,0.2c0.1,0.1,0.3,0.3,0.1,0.4c-0.3,0.1,0.1,0.1,0.2,0.1c0.2,0,0.5,0.1-0.2,0.1
		c-0.2,0,0.1,0.1-0.1,0.2c0.1,0.1,0,0.1-0.1,0.1c-0.2,0-0.2,0.1,0,0.2c0.2,0.1-0.2,0.1-0.4,0.1c0,0.2,0,0.1,0,0.3
		c0,0.3,0,0.4,0.4,0.4c0.4,0,0.4,0.4,0.9,0.6c0.5,0.3,0.6,0.4,0.6,0.8c0,0.4,0.2,0.9,0.2,0.9c-0.2,0-0.4-0.6-0.4-0.7
		c0.1-0.5-0.3-0.6-0.6-0.8c-0.3-0.2-0.7-0.4-0.3-0.4c0-0.4-0.2,0-0.4,0.2c0,0.2,0,0.2-0.1,0.4c0-0.1,0,1.2-0.3,3.1
		c0,0.2,0.1,0.2,0.1,0c0-0.1,0.2-0.3,0.2-0.3c-0.1,0,0.6,0.4,0.4,0.5c-0.1,0.1-0.2,0-0.4,0c-0.2,0-0.3,0.1-0.4,0.2
		c-0.2,0.2,0.1,0,0,0.7c0,0.1-0.1,0.8-0.1,0.9c-0.3,2-0.5,1.7-0.5,2.1c0,0.1,0,0.2,0,0.3c0,0.2-0.2,0.1-0.4,0.5
		c-0.1,0.3-0.4,0.6-0.6,0.6c-0.1,0-0.1-0.1-0.1-0.1c0.1,0.2,0.2,0.4,0.4,0.3c0.3-0.2,0,0.4,0.4,0.1c0.4-0.2,0.8,0.2,0.6,0.5
		c-0.3,0.3-0.5,0.3-0.3,0.5c0.6,0.5,0.3-0.2,0.6-0.3c0.3-0.1-0.2,0.4,0.5,0.4c0.7,0,0.6,0.6,1.1,0.3c0.6-0.4,0.2,0.4,0.5,0.4
		c0.4-0.1,0.3,0.6,0.6,0.4c0.3-0.2,0.3,0.2,0.7-0.2c0.2-0.1,0.2,0.2,0.5,0.1c0.1,0,0.2,1,1,0.4c0.6-0.4,0.4,0.5,0.8,0
		c0.1-0.2,0.3,0.2,0.7,0c0.3-0.1,0.7,0.4,0.6-0.1c-0.2-0.5,0-0.6,0.3-0.5c0.3,0.1,0.7,0.3,1.1,0.2c0.3-0.1-0.2,0.5,0.6,0.4
		c0.4-0.1,0.6,0.1,0.7,0.3c0.1,0,0.1-0.1,0.2-0.1c0.1-0.1,0.7,0.1,0.9,0.2c0.3,0.1,0.2,0.3,0,0.5c-0.1,0.1-0.2,0.2-0.3,0.2
		c0.2,0,0.4,0,0.6,0c0.5,0,0.3,1,0.9,0.5c0.4-0.5,0.3-0.2,0.6-0.2c0.6-0.1,0.4,0.3,1,0.4c1.2,0.1-0.2-0.4,0.7-0.4
		c0.4,0,0.2-0.3,0.6-0.2c0.6,0,0.4,0.2,0.9,0.2c0,0,0-0.1,0-0.1c-0.1-0.2-0.4-0.2-0.5-0.3c0-0.2-0.1-0.3,0-0.5
		c0-0.2,0.1-0.6,0.1-0.7c-0.1,0,0,0.2-0.3,0.2c0-0.2,0-0.4,0.1-0.4c0.1-0.1,0.2,0,0.2,0.1c0,0.1,0.1,0.1,0.1-0.1
		c0-0.1-0.1-0.3,0-0.2c0-0.3,0.3-0.9,0.7-1.1c0.2-0.1,0.7-0.4,0.7-0.2c0.2,0.1,0.3-0.1,0.4-0.2c0.2-0.2,0.3-0.3,0.6-0.4
		c0.2,0,0.2-0.2,0.4-0.2c0.3-0.3,0.9-0.4,1.1-0.3c0.1,0.2-0.1,0.1-0.1,0.2c0,0.1,0.1,0.2,0.3,0.2c0.2,0,0.5,0,0.5,0
		c0.1,0.1,0.9,0,0.9,0.1c0.2-0.1-0.9-0.2-0.2-0.3c0.1,0,0.1-0.1-0.2-0.1c-0.2,0-0.1-0.1,0-0.1c0.1-0.1,0.5-0.1,0.6,0.1
		c0.1,0.2-0.2,0.1,0,0.4c0,0,0.2,0.1,0.3,0.2c0.2-0.2,0,0.1,0.3,0.2c0.1,0.1,0.1,0,0.2-0.1c0.2-0.2,0.1-0.2-0.1-0.1
		c-0.1-0.2-0.1-0.3,0.2-0.4c0.2-0.1,0.3,0.3,0.3,0.4c0.1,0.1,0,0.3,0.3,0.3c0.2,0,0.3-0.1,0.5,0c0.3,0.1,0-0.2,0.3-0.2
		c0.2,0,0.3,0.2,0.2,0.3c-0.1,0.1,0.2,0.1,0,0.2c-0.3,0.1,0,0.2,0.2,0.1c0.2-0.1,0.4-0.1,0.4,0.1c0.2,0.2,0.2,0.1,0.3,0
		c-0.2-0.2,0.5-0.1,0.2,0.1c1.1,0.2-0.3,0.3,0.7,0.3c0.5,0-0.3-0.2,0.2-0.2c0.7,0,0,0.3,0.6,0.1c0.2,0.2-0.2,0.2,0.1,0.2
		c0.3,0-0.2,0,0.2-0.3c0.1-0.1,0.3,0,0.4,0.1c0.4,0.3,0.1-0.2,0.4-0.2c0.4,0.1,0.4-0.3,0.7,0c0.2-0.1,0-0.1,0.1-0.2
		c0.1-0.1,0.3-0.3,0-0.3c-0.8,0.1,0.4-0.2,0.3-0.5c-0.1-0.1,0.2-0.1,0.3-0.1c0.2,0,0.6-0.3,0.4-0.5c-0.1-0.1,0.3-0.3,0.3,0
		c0,0,0.2,0.1,0.1-0.1c0-0.1,0.1-0.2,0.2-0.1c0.1,0.1,0.3-0.1,0.2-0.1c-0.2,0-0.1-0.4,0.1-0.3c0.2,0.1,0.2-0.3,0.4-0.1
		c0.1,0.2,0.2-0.2,0.3-0.1c0.2,0,0.3-0.2,0.4-0.2c0,0,0.1,0,0.1,0c0,0,0,0,0.1,0c-0.1-0.2-0.1-0.4,0-0.5c0.6-0.4,0.2-0.5,0.5-0.6
		c0.2-0.1,0.2-0.2,0.1-0.3c-0.1-0.1,0.1-0.6-0.3-0.3C63,68.4,63.2,68,63,68.3c-0.2,0.3-0.5,0.1-0.7,0c-0.4-0.3-0.7,0-1.1-0.4
		c-0.5-0.5,0.2-0.5-0.1-0.7c-0.5-0.3,0.3-0.5,0.2-0.7c-0.1-0.5,0.6-0.1,0.3-0.4c-0.2-0.3,0.1-0.7-0.3-0.5c-0.4,0.1-0.4,0-0.5-0.1
		c-0.3-0.2,0-0.3-0.3-0.5c-0.3-0.2-0.3-0.1-0.3-0.3c0-0.2,0.4-0.4,0.6-0.3c0.4,0.1,0.3-0.2,0.5-0.3c0.2-0.1,0.5,0,0.5-0.3
		c0-0.6,0.7-0.8,0.1-1.1c-0.9-0.4-0.1-0.7-0.7-0.9c-0.3-0.1-0.3-0.2-0.3-0.4c0-0.2,0.2-0.3,0.3-0.3c0.1,0,0.1-0.1,0.2-0.1
		c0-0.1-0.1-0.3-0.2-0.4c-0.4-0.6-0.4,0-0.4-0.3c0-0.6-0.3-0.1-0.3-0.4c-0.1-0.3,0.2-0.2,0.2-0.4c0-0.2-0.3-0.2-0.2-0.3
		c-0.1-0.1-0.2-0.1-0.6-0.1c-0.4,0-0.1,0.4-0.7,0.3c-0.3-0.1-0.3,0.2-0.4,0.3c-0.1,0.2-0.2,0.3-0.3,0.3c-0.1,0.1-0.3,0.1-0.5,0.1
		c-0.3,0-0.5,0-0.4-0.1c0.1-0.2-0.2-0.3,0.2-0.4c0.3-0.1,0.3,0.1,0.4-0.3c0.2-0.6-0.2-0.3-0.2-0.5c0-0.5,0.6-0.4,0.3-0.6
		c-0.2-0.1,0-0.1,0.4-0.5c0.4-0.3,0.9-0.3,0.7-0.5c-0.2-0.3,0.3-0.3,0-0.5s0-0.4,0.4-0.4c0.4,0,0.3-0.1,0.5-0.2
		c0.1-0.1-0.1-0.2,0.3-0.5c0,0,0,0,0.1,0c0.8-0.6,0.4-0.6,0.7-0.7c0.3-0.1,0.4-0.4,0-0.4c-0.4,0-0.4-0.2-0.2-0.3
		c0.4-0.1,0.1-0.4,0.3-0.4c0.2,0,0.3,0,0.5,0c0.3-0.1-0.2,0.5,0.3,0.5c1.1-0.1,0.5-0.4,0.8-0.3c0.3,0.1-0.1-0.3,0.3-0.4
		c0.1,0,0.2-0.1,0.3-0.1l0,0c0,0,0.1-0.1-0.1-0.3c-0.4-0.2,0-0.3,0-0.8c-0.1-0.5,0.6-0.7,0.2-0.9c-0.2-0.1-0.2-0.5,0.1-0.4
		c0.3,0.1-0.1-0.1,0.3-0.4c0.2-0.2-0.1-0.3,0.2-0.9c0.1-0.2-0.2-0.1,0.5-0.9c0.5-0.6,0.4,0,0.6-0.4c0.2-0.4,0.3-0.1,0.4-0.4
		c0-0.3,0.3,0,0.3-0.4C65.7,47.3,65.4,47.7,65,47.3z M33,64.6c0-0.2,0.2-0.3,0.2-0.1C33.2,64.6,33,64.8,33,64.6z M33,64.1
		c-0.2-0.9,0.2-0.8,0.2-0.5C33.3,63.8,33.1,64.5,33,64.1z M32.9,67.5c-0.2,0.1-0.2,0.1-0.2,0c0-0.1,0.1-0.2,0.2-0.1
		C33,67.4,33.1,67.4,32.9,67.5z M33,67c-0.2,0.1-0.2,0.1-0.3,0c-0.1-0.1-0.1-0.1,0-0.2c0-0.1,0.1-0.1,0.2-0.1
		C33,66.8,33.2,66.8,33,67z M47.7,72.7c-0.1,0.1-0.1,0.2-0.2,0.2c-0.1-0.1-0.1,0-0.1,0c0,0.1,0,0.1,0,0.2c0,0-0.2,0-0.2-0.1
		c0-0.1,0-0.1,0.1-0.2c0.1-0.1,0.1-0.1,0.1-0.2c0-0.1,0.1-0.1,0.1,0C47.5,72.8,47.8,72.6,47.7,72.7z M49.8,71.3
		c-0.1,0.1-0.2,0.1-0.4,0.2c-0.2,0.1-0.1,0-0.1-0.1c0-0.1,0.2-0.2,0.3-0.2c0.1,0,0.1-0.1,0.2-0.1C50,71.2,49.9,71.3,49.8,71.3z
		 M51.1,70.7c-0.2,0-0.6,0.2-0.7,0.3c-0.1,0,0-0.1,0-0.2c0,0,0.1-0.1,0.2,0c0.1,0,0.1,0,0.1-0.1c0,0,0-0.1,0.1-0.1
		c0.2,0,0.1,0,0.2-0.1C51.1,70.5,51.2,70.7,51.1,70.7z M52,71.1c-0.1,0-0.2-0.1-0.3-0.1s-0.1,0-0.2-0.1c-0.1-0.1,0-0.1,0.1-0.1
		c0.1,0,0.1,0,0.2,0.1c0.1,0.1,0.1,0,0-0.1c-0.1-0.1,0-0.1,0-0.2c0-0.1,0.2,0,0.2,0.1c-0.1,0,0,0.2,0,0.1c0,0,0.1-0.1,0.1-0.1
		C52.1,71,52.1,71.1,52,71.1z M55,71.4c-0.1,0.1-0.1,0-0.3,0s-0.2,0-0.2-0.1c0-0.3-0.2-0.1-0.1-0.4c0-0.1,0-0.2,0.1-0.1
		c0.1,0.1,0,0,0.2,0c0.1,0,0.2,0,0.2,0.1c0,0.1,0,0.3,0.2,0.1c0.1-0.1,0.1,0,0.1,0.1C55.1,71.3,55.1,71.4,55,71.4z"/>
	<path fill="#010101" stroke="#ead44d" stroke-miterlimit="10" d="M96.3,51.1c0-0.3-0.5-0.1-0.4-0.6c0.1-0.6-0.4-0.2-0.4-0.8
		c0-0.5,0.3-0.4,0.4-0.7c-0.1-0.5-0.1-0.4-0.3-0.4c-0.9,0-0.4-0.4-0.7-0.3c-0.3,0.1-0.2-0.1-0.5-0.1c-0.4,0,0,0.5-0.9,0.4
		c0,0,0,0-0.1,0c-1.1-0.1-0.9-0.7-1.4-0.7c-0.3,0-0.2,0.2-0.4,0.2c-0.2,0-0.4-0.3-0.7-0.3c-0.2,0-0.2-0.3-0.7-0.3
		c-0.5,0-0.3,0.2-0.5,0.2c-0.2,0,0.1-0.4-0.2-0.3c-0.2,0.1-0.3-0.2-0.4,0c-0.1,0.2,0.1,0.3,0,0.7c-0.2,0.6-0.2-0.1-0.6,0.3
		c0,0,0,0.1-0.1,0.1c-0.4,0.4-0.1,0.6-0.3,0.7c-0.1,0.1-0.2-0.2-0.4-0.1c-0.3,0.1-0.5-0.2-0.5,0c0,0.2-0.2,0-0.2,0.2
		c0,0.2-0.3,0.1-0.5,0c-0.2-0.2-0.5,0-0.7-0.2c-0.1-0.2,0.2-0.3-0.3-0.5c-0.1,0-0.2-0.1-0.3-0.1c0.1,0.5-0.1,0.4-0.2,0.6
		c-0.2,0.2-0.5-0.1-0.8-0.2c-0.2,0-0.3,0-0.3,0.4c0,0.4-0.4,0.9-0.7,0.9c-0.3,0-1.1,0.3-1.4,0.6c-0.4,0.2-0.5,0.3,0.3,1.2
		c0.5,0.5-0.1,0.6-0.1,0.8c0,0.2,0.4,0,0.5,0.3c0.2,0.4-0.2,0.4-0.2,0.8c0,0.3-0.4,0.1-0.7-0.1c-0.5-0.4,0.3-0.1-0.2-0.5
		c-0.2-0.2-0.4-0.3-0.8,0c-0.4,0.3-0.3-0.3-0.5-0.2c-0.2,0.1-0.2-0.1-0.4,0c-0.3,0.1,0.2-0.4-0.3-0.2c-0.3,0.1,0.1,0.4,0,0.6
		c-0.1,0.2-0.3-0.1-0.6-0.1c-0.3,0-0.3,0.2-1.1,0.2c-0.9,0,0.2,0.3-0.9,0.3c-0.5,0-0.1,0.3-0.3,0.3c-0.2,0-0.5,0.4-0.5,0.2
		c0-0.2-0.2,0-0.6,0.1c-0.6,0.1-0.1-0.3-0.4-0.4c-0.4-0.1,0.3-0.5-0.4-0.3c-0.3,0.1-0.4-0.4-0.8-0.1c-0.4,0.2-0.2-0.3-0.4-0.2
		c-0.2,0.1,0,0.4,0,0.7c0,0.2-0.6,0.8-0.9,0.8c-0.3,0,0.1-0.1,0.1-0.4c0-0.3-0.2,0-0.3-0.1c-0.3,0,0.1-0.3-0.3-0.5
		c-0.2-0.1,0-0.3-0.4-0.3c-0.4,0-0.1-0.2-0.4-0.2c-0.3,0-0.1,0.2-0.5,0.3c-0.1,0-0.2,0-0.4,0c0.1,0.2,0.1,0.3,0.3,0.3
		c0.2,0,0.1,0.1,0.1,0.2c0,0.2-0.2,0.3-0.4,0.5c0.1,0.2,0.2,0.2,0.2,0.4c0,0.2,0.1,0.3,0.1,0.4c0,0.1,0.1,0.2,0.1,0.3
		c0.1,0,0.1,0,0.2,0c1,0.2,0.2,0.5,0.7,0.7c0.6,0.1,0.4,0.4,0.8,0.3c0.5,0,0.1-0.5,0.5-0.4c0.3,0.1,0.2-0.5,0.5-0.2
		c0.3,0.3,0,0.4,0.2,0.6c0,0,0.1,0,0.1,0c0.2,0.1,0.4-0.2,0.5,0c0.3,0.2-0.2,0.4,0.2,0.4c0.2,0,0.3,0.1,0.4,0.1
		c0.2-0.1,0.3,0,0.5,0.1c0.2,0.2,0.6,0.1,0.4-0.3c-0.2-0.4-0.3-0.4,0-0.7c0.3-0.3,0.3,0,0.5-0.2c0.1-0.2,0.3-0.1,0.4,0
		c0.1,0.2,0.2,0.4,0.4,0c0.2-0.3,0.4-0.2,0.6-0.1c0.5,0.2,0,0.6,0.4,0.6c0.4,0,0-0.5,0.4-0.6c0.3-0.1,1.3-0.9,1.4-0.4
		c0.1,0.5,0,0.3-0.2,0.4c-0.2,0-0.4,0.1-0.3,0.4c0.2,0.7,0.6,0,0.4,0.5c-0.1,0.3,0.1,0,0.3,0.4c0.1,0.3,0.3,0.1,0.4,0.3
		c0.1,0.2,0.5,0.3,0.7,0.2c0.3-0.3,0.2,0.4,0.6,0.2c0.3-0.2,0.1,0.4,1,0.1c0.4-0.1,0.2,0.5,0.9,0.2c0.6-0.2,0.9,0.1,1.2,0.1
		c0,0,0,0,0,0c0,0,0,0,0,0c0.4-0.1,0.3,0.1,0.6,0c0.2-0.1,0.3,0.2,0.6,0.2c0.3-0.1,0.3,0.1,0.8,0.2c0.5,0.1,0.8-0.1,0.9,0.2
		c0.2,0.3,0.2,0,0.5-0.3c0.3-0.3,0.6,0,0.6-0.3c0-0.3,0.2-0.4,0.4-0.3c0.3,0.1,0.1-0.2,0.4-0.2c0.4-0.1,0.5,0,0.7,0c0,0,0.1,0,0.1,0
		c0.6-0.1,0.5,0.5,0.7,0.2c0.3-0.5,0.4-0.1,0.5-0.4c0.1-0.2,0.2,0.1,0.5-0.1c0.5-0.3,0.8,0.5,0.9,0.3c0.2-0.3-0.2-0.3-0.2-0.6
		c0-0.3,0.2-0.3,0.4-0.3c-0.1-0.1-0.5-0.2,0.1-0.5c0.3-0.2,0-0.5,0.7-0.5c0.1,0,0.5,0.1,0.3-0.4c-0.4-0.8,0.4-0.4,0-1
		c-0.2-0.3,0-0.4,0.2-0.4c0.2,0,0.4,0.1,0.4-0.2c0-0.3,0.3-0.2,0.2-0.4c-0.1-0.2-0.6-0.2-0.8-0.1c-0.2,0.1-0.5-0.4,0-0.4
		c0.5,0.1-0.1-0.3,0.6-0.3c0.5,0,0.4,0.4,0.6,0.4c0.2,0,0.2-0.3,0.8-0.1c0.1,0,0.4,0,0.2-0.2c-0.3-0.2,0.1-0.2-0.1-0.5
		c-0.2-0.3,0.3-0.2,0.2-0.4c-0.1-0.2,0.2-0.4,0.2-0.4S96.2,51.5,96.3,51.1z"/>
	<path fill="#010101" stroke="#ead44d" stroke-miterlimit="10" d="M102,44.2c-0.2,0-0.4-0.4-0.4-0.6c0-0.2-0.2-0.4-0.6-0.4
		c-0.8,0-0.3-0.1-0.7-0.2c-0.4-0.1-0.4-0.4-0.6-0.4c-0.2,0-0.2,0-0.1,0.2c0.1,0.1-0.3,0.3-0.6,0.2c-0.5-0.1-0.1-0.4-0.6-0.5
		c-0.4-0.1-0.3-0.4,0.1-0.4c0.3,0,0.1-0.4,0-0.5c-0.2-0.2-0.2,0.3-0.5,0.1c-0.3-0.1-0.1,0.2-0.5,0.1c-0.4-0.1-0.2-0.4-0.5-0.4
		c-0.4,0-1.3-0.7-1.4-0.4c-0.1,0.2,0,0.1,0.3,0.4c0.3,0.3,0.2,0.5-0.1,0.4c-0.3-0.1,0,0.2-0.3,0.2c-0.3,0-0.1,0.4-0.5,0.4
		c-0.4,0-0.5-0.2-0.5-0.5c0-0.3-0.2,0-0.4-0.4c-0.3-0.5-0.4,0.1-0.5-0.3c0-0.1-0.2,0-0.2-0.1c-0.1-0.4,0.5-0.2,0.6-0.4
		c0-0.2,0.2,0,0.2-0.3c0-0.3-0.7-0.4-1-0.3c-0.3,0.1-0.5,0.5-0.5-0.1c0-0.3-0.3,0.2-0.7-0.3c-0.2-0.3,0,0.4-1-0.2
		c-0.4-0.2-0.6,0.3-0.6-0.1c0-0.2-0.4-0.3-0.3-0.4c0.2-0.1,0.1-0.4-0.2-0.3c-0.3,0.1-0.2-0.2-0.5-0.1c-0.2,0.1-0.2,0.2-0.1,0.5
		c0,0.1,0,0.2-0.2,0.3c-0.3,0.1-0.4,0-0.5,0h0c-0.3,0.2-0.1-0.1-0.5,0c-0.3,0,0-0.2-0.1-0.3c-0.1-0.1-0.5,0.2-0.2-0.2
		c0.2-0.2-0.2-0.2-0.2-0.3c0-0.1,0-0.2-0.2-0.1s-0.2-0.1-0.4-0.1s-0.4,0.2-0.2,0.3c0.2,0,0,0.3,0.2,0.2c0.2,0,0.5,0.3-0.2,0.3
		c-0.2,0-0.3,0-0.4,0.1c-0.2,0.1-0.4,0.2-0.7,0.2c-0.6,0,0.2,0.5-1.1,0.3c-0.3,0-0.4,0-0.3,0.2c0,0.2-0.2,0.5-0.4,0.3
		c-0.3-0.3-0.2,0.3-0.5,0.2c-0.3-0.2,0,0.3-0.6,0.3c-0.7,0,0.1,0.7-0.9,0.3c-0.3-0.2-0.2,0.3-0.7,0.2c-0.2,0-0.4,0-0.7,0.2
		C80,41.7,80,41.6,79.9,42c-0.1,0.4-0.3,0-0.3-0.2c0-0.2-0.3,0-0.3-0.2c0-0.2-0.4-0.1-0.3,0c0.1,0.1-0.1,0.3,0,0.3
		c0.1,0,0.2-0.1,0.3,0.3c0.1,0.7,1,0.5,1,0.9c0,0.2,0.4-0.1,0,0.5C80.2,44,80,43.8,80,44c0,0.1,0,0.3,0.3,0.3c0.3,0,0,0.2,0.3,0.3
		c0.2,0.1,0,0.3,0.3,0.4c0.1,0-0.1,0.3,0.5,0.7c0.4,0.4,0.4-0.5,1.4,0.9c0.2,0.3,0.2-0.1,0.6,0.3c0.3,0.2,0,0.3,0.2,0.5
		c0.2,0.1,0.1,0.1,0.3,0c0.4-0.3,0.2,0.3,0.7,0.4c0.2,0,0.1,0.3,0.5,0.6c0.1,0,0.2,0.1,0.3,0.1c0.5,0.2,0.2,0.3,0.3,0.5
		c0.1,0.2,0.5,0,0.7,0.2c0.1,0.2,0.4,0.3,0.5,0c0-0.2,0.2,0,0.2-0.2c0-0.2,0.2,0.1,0.5,0c0.3-0.1,0.3,0.2,0.4,0.1
		c0.2-0.1-0.1-0.3,0.3-0.7c0,0,0-0.1,0.1-0.1c0.4-0.3,0.4,0.4,0.6-0.3c0.1-0.5-0.1-0.5,0-0.7c0.1-0.2,0.2,0,0.4,0
		c0.3-0.1,0,0.3,0.2,0.3c0.2,0,0-0.2,0.5-0.2c0.4,0,0.5,0.2,0.7,0.3c0.3,0.1,0.5,0.3,0.7,0.3c0.2,0,0.1-0.2,0.4-0.2
		c0.5,0,0.3,0.6,1.5,0.7c0.9,0.1,0.5-0.4,0.9-0.4c0.3,0,0.1,0.2,0.5,0.1c0.3-0.1-0.2,0.4,0.7,0.3c0.2,0,0.2-0.1,0.3,0.4
		c0.3-0.3,0-0.3,0.4-1c0.2-0.2,0.4-0.6,0.9-0.3c0.5,0.4,0.4-0.3,0.6,0.1c0.2,0.3,0.4,0,0.7-0.1c0.3-0.1,0.1-0.4,0.5-0.3
		c0.4,0-0.1-0.5,0.6-0.5c0.7,0-0.1-1,0.9-1.2c0.7-0.2,0.3-0.5,0.5-0.5c0.4,0,0.3-0.4,0.8-0.4c0.5,0,0.2-0.2,0.7-0.1
		C102.5,44.4,102.3,44.3,102,44.2z"/>
	<path fill="#010101" stroke="#ead44d" stroke-miterlimit="10" d="M88.9,36.7c0.1-0.3-0.1-0.4-0.6-0.5c-0.6-0.2-0.1-0.3-0.1-0.6
		c0-0.2,0,0.1-0.4-0.5c-0.4-0.6,0.2-0.6,0.2-0.9c0-0.3,0.3-0.5,0-0.7c-0.4-0.3,0-0.2,0-0.6c-0.1-0.2-0.3,0.2-0.6-0.5
		c-0.2-0.7,0.3-0.5,0.3-0.7c0-0.2,0.2-0.4-0.2-0.6c-0.7-0.3-0.6-0.6-1.3-0.9c-0.5-0.2,0-0.2-0.1-0.6c-0.1-0.5,0.8-0.1,0.8-1
		c0-0.6,0.4-0.3,0.2-0.8c-0.2-0.3-0.1-0.6-0.3-0.9c-0.3-0.3,0.2-0.4-0.2-0.7c-0.2-0.2-0.2-0.2-0.1-0.3c0-0.1,0.3-0.2,0-0.3
		c-0.1,0-0.1,0-0.2,0.1c-0.1,0.1-0.1,0.1-0.3,0c-0.1,0-0.4-0.1-0.4-0.2c0-0.1-0.1,0.3-0.4,0c-0.1-0.1-0.1-0.2-0.3-0.2
		c-0.2,0,0-0.2,0.1-0.2c0.1,0,0.1,0,0.1-0.1c0-0.1,0.2,0.1,0.2-0.1c0-0.1-0.1-0.2-0.2-0.1c-0.1,0.1-0.1,0-0.1-0.1
		c0-0.1-0.2-0.2-0.3-0.2c-0.1,0-0.1-0.2,0-0.2c0.1,0,0.1-0.1,0.2-0.2C85,24,84.8,24,84.7,24c-0.1,0-0.2-0.1-0.1-0.1
		c0.1,0,0.1-0.3-0.1-0.2c-0.2,0-0.1,0.2-0.3,0.3c0,0-0.1,0-0.1,0c-0.2,0-0.3,0-0.2,0.1c0.1,0.2-0.1,0.4-0.2,0c0-0.1-0.1,0-0.1,0
		c-0.1,0.2-0.2,0,0-0.2c0,0-0.1,0-0.1-0.1c-0.1,0.1-0.1,0-0.2,0c-0.2,0.1-0.2,0-0.1-0.1c0.2,0,0-0.1,0-0.1c-0.1,0,0-0.2-0.1-0.1
		c-0.1,0-0.2,0-0.2,0c0,0,0-0.1-0.1-0.1c0,0,0-0.1-0.1,0c-0.1,0.1-0.1,0-0.2-0.1c-0.1-0.1-0.1-0.1,0-0.1c0.1,0,0-0.1-0.1-0.1
		c-0.1,0-0.1-0.1,0-0.1c0,0,0.1,0,0-0.1c0-0.1-0.1-0.1-0.1,0c-0.2,0.1-0.1-0.1-0.1-0.1c0-0.1,0-0.1,0-0.2c0.1-0.1-0.1-0.1-0.1-0.1
		c0,0.1,0,0.1-0.1,0.1c-0.1,0-0.1,0.1-0.1,0.2c0,0.1-0.1,0.1-0.2,0.2c-0.1,0.1-0.2,0-0.1-0.1c0-0.1,0-0.2-0.1-0.1
		c-0.1,0.1-0.2,0.1-0.2,0c0-0.1-0.1-0.1-0.2-0.2c0-0.1,0.1-0.1,0.2,0c0.1,0,0.2,0,0.2,0c0.1-0.1,0.1-0.1,0.2,0
		c0.1,0.1,0.2,0,0.3-0.1c0.1-0.1,0.1-0.1,0-0.1c-0.1,0-0.5,0-0.7,0c-0.2,0-0.1-0.1-0.4-0.1c-0.2,0-0.2-0.2-0.3-0.2
		c-0.1,0,0,0-0.1,0.1c0,0.2,0,0.2-0.1,0.3c-0.1,0-0.1,0.2-0.2,0.3c0,0.1,0.1,0.1,0.1,0c0.1-0.2,0.4,0,0.4,0.1c0,0.1-0.1,0.1-0.2,0.1
		c0,0.1,0,0.2-0.1,0.2c-0.1,0-0.1,0-0.1,0.1c0.3,0.2-0.3,0.2-0.2,0c0-0.1,0-0.1-0.1-0.2c-0.2,0,0,0.1-0.3,0.1
		c-0.2,0.1-0.3,0.2-0.5,0.4c0.2,0.1,0.1,0.3,0,0.3c0,0.5-0.2-0.1-0.1-0.2c-0.5,0-0.4,0.1-1,0.2c-0.1,0,0.1-0.1-0.3-0.1
		c-0.3,0-0.2,0.1-0.4,0.2c-0.2,0-0.2,0.3-0.2,0.3c0.3,0,0.4-0.5,0.6-0.3c0,0.1,0,0.2-0.2,0.2c0,0.1-0.1,0.1-0.2,0.1
		c-0.1,0.1-0.3,0.4-0.3,0.1c0-0.1-0.3-0.1-0.4,0.2c0,0.1,0.3-0.1,0.2,0.1c0,0,0.1,0,0.1,0c0.1-0.1,0.2-0.1,0.1,0.3
		c-0.1,0.1-0.1,0.4-0.2,0.1c-0.1,0-0.3,0-0.1-0.1c0,0-0.1-0.1-0.1,0c-0.1,0-0.1-0.1-0.1-0.1c-0.2,0.4-0.6,0-0.2,0
		c0.2,0,0-0.1-0.2-0.1c-0.1,0,0.1-0.2-0.4-0.2c-0.3,0-0.5,0.3-0.6,0.2c0,0.1,0,0.2,0,0.3c0.5,0.2-0.1,0.2-0.1,0
		c-0.3,0.5,0-0.1-0.1-0.3c-0.1,0-0.1,0-0.1,0c-0.1,0-0.1,0-0.1-0.2c-0.5,0,0.1-0.2,0.2-0.2c0.3,0,0.4-0.3,0.5-0.3
		c0.4-0.2,0.4-0.1,0.4-0.5c0-0.1,0-0.3,0-0.4c0-0.2,0.1-0.1,0.2-0.3c0-0.1,0.5,0,0.6-0.1c-0.1-0.3-0.2-0.6-0.5-0.6
		c-0.4-0.1-0.4,0-0.5,0.4c0.1,0.1,0.2-0.3,0.3,0c0,0.1,0.2,0.4-0.2,0.3c-0.1,0-0.1-0.1-0.3-0.1c0,0-0.3,0.1-0.5,0.3
		c-0.1,0.1-0.3,0.4-0.3,0.4c-0.1,0-0.2-0.4-0.3-0.5c-0.2-0.1-0.1-0.1-0.5-0.2c-0.1-0.1-0.2-0.2-0.3-0.2c0,0-0.1,0-0.1,0
		c-0.2-0.1-0.3,0.2-0.5,0.2c0.1,0.4-0.5,0.4-0.2,0c0.1,0,0.1-0.1,0.1-0.2c0.1-0.1,0.2,0-0.2-0.2c-0.1,0-0.2,0-0.4,0.1
		c-0.2,0-0.4,0.1-0.5,0.1c-0.5,0-0.1-0.2,0.2-0.3c0.1,0,0.2-0.1,0.2-0.2c0.1-0.2,0-0.2,0-0.3c0-0.1-0.1,0-0.3-0.1
		c-0.7,0.8-0.4-0.1,0.1-0.2c0.2,0.3,0.1,0,0.1,0c0-0.2-0.2,0-0.2-0.2c0-0.2,0-0.2-0.1-0.3c-0.1-0.1-0.3-0.2-0.2-0.1
		c0.1,0.2-0.1,0.4-0.3,0.1c0-0.3-0.8-0.1-0.7-0.2c0.1-0.3-0.1,0-0.1-0.1c-0.4,0.5-0.6,0.3-0.4,0.1c0,0,0,0-0.1,0
		c-0.1,0-0.2,0.1-0.2,0.1c0,0.1-0.1,0.1-0.2,0.1c-0.1,0-0.2-0.1-0.2-0.1c0-0.1,0-0.1-0.1-0.1c-0.1,0-0.1,0-0.1-0.1
		c0,0-0.1-0.1-0.2-0.1l0,0c-0.1,0-0.2,0-0.3-0.1c-0.1,0-0.2-0.1-0.3-0.1l-0.5,0c-0.1,0-0.2,0-0.2-0.1c0-0.1-0.1-0.1-0.2-0.1h0
		c-0.1,0.2-0.2,0.5-0.1,0.6c0.6,0.3,0,0.8,0.5,0.6c0.1,0.2,0.2,0.3,0.4,0.5c0.5,0.3-0.8,0-0.2,0.7c0.2,0,0.4,0,0.4-0.2
		c0.1-0.1,0.2-0.3,0.3-0.2c0.2,0.1-0.1,0.4-0.2,0.4c-0.2,0.2-0.3,0.2-0.6,0.2c-0.2,0-0.7-0.3-0.7,0.1c0.1,0,0.1,0,0.2,0
		c0.1,0.2-0.1,0.3-0.3,0.1c-0.1,0,0.1,0.2,0.2,0.3c0.1,0.1,0.6,0,0.5-0.1c0.4-0.2,1.5-0.3,0.4,0.3c-0.1,0.1,0,0.1-0.1,0.3
		c-0.1,0.6,0.5,0,0.6,0.7H68c0,0.1-0.1,0.4-0.1,0.5c0,0.1,0.1,0.3,0.2,0.3c0.3,0.1-0.3,0.1,0.3,0.1c0.2,0,0.3,0,0.5,0
		c0.7-0.1,0.7,0,0.8,0.1c0.5,1.1,0,0.7-0.2,0.4c-0.2-0.3-0.4-0.4-0.8-0.3c-0.2,0.1-0.7,0-0.9,0.1c-0.6,0.1-0.4-0.7-0.9-0.1
		c0.1,0-0.2,0.6-0.2,0.6s-0.3,0.2,0.1,0.7c0.4,0.5-0.3,0.5-0.5,0c-0.1-0.2-0.2-0.3-0.3-0.1c-0.1,0.2-0.4,0.3-0.1,0.3
		c0.3-0.1,0.2,0.3,0.2,0.4c-0.3,0.2-0.5,0.2-0.5,0c0.1-0.2-0.4-0.2-0.4-0.2c0-0.2,0.3-0.2,0.4-0.4c-0.3-0.2-0.1-0.4-0.4-0.3
		c-0.3,0.1,0.2-0.5-0.3-0.5c-0.7,0-1.4,0.4-2,0.2c-0.5-0.1-1.2,0.1-1,0.7c-0.2,0-0.3-0.2-0.3,0c0,0.1-0.1,0.5,0,0.6
		c0.2,0.2,0.9-0.2,1,0.2c0,0.2-0.2,0.3-0.4,0.4c0.2,0.3-0.2,0.3,0,0.8c0.3,0.6-0.4,0.5-0.5,1.4c-0.1,0.9-0.4,0.6-0.6,0.5
		c-0.9-0.2-0.6,0.1-0.5,0.3c0.1,0.2-0.3,0.1-0.1,0.4c0.2,0.3,0.3,0,0.5,0.1c0.4,0.3,0.3-0.3,0.6,0.1c0.5,0.6,0,0.4,0.1,0.8
		c0.1,0.4-0.1,0-0.3,0.3c-0.4,0.7-0.6,0.1-0.8,0.4c-0.2,0.3-0.3,0.3,0,0.4c0.6,0,0.2,0.7-0.1,0.6c-0.3-0.1-0.4,0.3-0.8,0.1
		c-0.5-0.2-0.2,0.5-0.5,0.2c-0.4-0.4-0.4-0.1-0.6-0.3c-0.2-0.2-0.4-0.1-0.3,0c0.2,0.1,0.3,0.4,0,0.3c-0.3-0.1-0.6-0.1-0.6,0
		c0,0.1,0.3,0.1,0.2,0.3c-0.2,0.2,0.2,0.1,0.2,0.4c0,0.3,0.3-0.1,0.3,0.3c0,0.4,0.4,0.2,0.4,0.9c0,0.1,0,0.1,0,0.2
		c-0.1,0.5-0.6,0.6-0.6,0.8c0.1,0.5,0.4-0.2,0.4,0.1c0.1,0.3-0.7,0.6-0.8,0.6c-0.2,0-0.4-0.1-0.3,0.3c0.1,0.2,0.2,0.1,0.3,0.1
		c0.4-0.1,0,0.1,0.3,0.3c0.3,0.2,0.1,0.3,0,0.3c-0.1,0-0.3,0.1-0.2,0.3c0,0,0,0,0,0c0.1,0.3,0.3,0,0.5,0.3c0.2,0.4,0.4,0.1,0.5,0.3
		c0.1,0.3-0.4,0.2-0.3,0.4c0.1,0.4,0.5,0.1,0.6,0.2c0.1,0.2,0.2,0.2,0,0.4c-0.2,0.1,0.3,0.1,0.2,0.3c-0.1,0.2-0.5-0.1-0.5,0.2
		c0,0.3-0.3-0.1-0.5,0.5c0,0,0,0,0,0c0.1,0.1,0,0.2,0,0.3c-0.1,0.3,0,0.5,0.2,0.4c0.2-0.1,0.2,0.6,1.1,0.7c0.3,0,0.2,0.1,0.2,0.3
		c0,0.7-0.5-0.1-0.6,1.3c0,0,0,0,0,0c0.3-0.1,0.3,0,0.4,0.1c0.5,0.4-0.3,0.3,0.5,0.9c0.3,0.2-0.1,0.4,0.4,0.4c0.5,0-0.1-0.5,0.4-0.4
		c0.5,0.1,0.2,0.5,0.5,0.6c0.3,0,0-0.4,0.4-0.2c0.8,0.4,0.4-0.2,0.9-0.1c0.5,0,0.1,0.4,0.5,0.4c0.5,0,0.1,0.4,0.5,0.2
		c0.5-0.1,0.8-0.2,1,0c0.4,0.4,0.7,0.1,0.7,0.2c0,0.3-0.2,0.1-0.3,0.4c0,0.3-0.2,0-0.4,0.4c-0.2,0.4-0.1-0.2-0.6,0.4
		c-0.7,0.8-0.3,0.7-0.5,0.9c-0.3,0.5,0,0.7-0.2,0.9c-0.4,0.3,0,0.5-0.3,0.4c-0.3-0.1-0.3,0.3-0.1,0.4c0.4,0.2-0.2,0.5-0.2,0.9
		c0.1,0.5-0.4,0.6,0,0.8c0.2,0.1,0.1,0.3,0.1,0.3l0,0c0.2-0.1,0.3,0,0.1,0.2c-0.3,0.5,0.8-0.2,0.8,0c-0.1,0.3,0.3,0.1,0.5,0.1
		c0.5,0.2,0.3-0.5,1-0.3c0.5,0.2,0.7,0.3,0.6,0.1c-0.1-0.2,0.2-0.2,0.3-0.1c0.1,0.2,0.4-0.3,0.1-0.3c-0.3-0.1-0.7,0.3-0.7,0
		c0.1-0.3,0.2-0.5,0.4-0.4c0.2,0.1,0.1-0.4,0.3-0.1c0.2,0.2,0.1-0.2,0.3,0c0.3,0.2-0.1,0.5,0.1,0.6c0.4,0.1,0-0.5,0.3-0.3
		c0.3,0.2,0,0.3,0.3,0.3c0.3,0,0.2-0.1,0.5-0.1c0.3,0,0.3,0.1,0.6,0.2c0.3,0.1,0.8,0.2,1,0.4c0.1,0.1,0.1,0.1,0.1,0.2
		c0.2,0,0.3,0,0.4,0c0.4,0,0.2-0.3,0.5-0.3c0.3,0,0,0.2,0.4,0.2c0.4,0,0.2,0.1,0.4,0.3c0.4,0.3,0,0.5,0.3,0.5c0.2,0,0.3-0.2,0.3,0.1
		c0,0.3-0.4,0.4-0.1,0.4c0.3,0,0.9-0.5,0.9-0.8c0-0.3-0.2-0.6,0-0.7c0.3-0.1,0,0.4,0.4,0.2c0.4-0.2,0.5,0.2,0.8,0.1
		c0.7-0.2,0,0.2,0.4,0.3c0.3,0.1-0.1,0.4,0.4,0.4c0.5-0.1,0.6-0.3,0.6-0.1c0,0.2,0.3-0.2,0.5-0.2c0.2,0-0.2-0.3,0.3-0.3
		c1,0-0.1-0.3,0.9-0.3c0.8,0,0.8-0.2,1.1-0.2c0.3,0,0.5,0.3,0.6,0.1c0.1-0.2-0.2-0.4,0-0.6c0.5-0.2,0,0.3,0.3,0.2
		c0.2-0.1,0.2,0.2,0.4,0c0.3-0.1,0.1,0.4,0.5,0.2c0.4-0.3,0.6-0.2,0.8,0c0.5,0.4-0.3,0.1,0.2,0.5c0.3,0.3,0.7,0.4,0.7,0.1
		c-0.1-0.4,0.4-0.4,0.2-0.8c-0.1-0.2-0.5,0-0.5-0.3c0-0.2,0.5-0.3,0.1-0.8c-0.8-0.9-0.7-1-0.3-1.2c0.4-0.2,1.1-0.6,1.4-0.6
		c0.3,0,0.7-0.4,0.7-0.9c0-0.4,0.1-0.4,0.3-0.4c0.2,0,0.6,0.4,0.8,0.2c0.2-0.2,0.3-0.1,0.2-0.6c-0.4-0.3-0.3-0.5-0.5-0.6
		c-0.5-0.1-0.3-0.6-0.7-0.4c-0.2,0.1-0.1,0.1-0.3,0c-0.3-0.2,0.1-0.3-0.2-0.5c-0.4-0.3-0.4,0.1-0.6-0.3c-1-1.5-1-0.6-1.4-0.9
		C80.8,45.3,81,45,80.9,45c-0.3,0-0.1-0.3-0.3-0.4c-0.3-0.1,0-0.3-0.3-0.3C80,44.2,80,44.1,80,44c0-0.1,0.2,0,0.4-0.3
		c0.4-0.6,0-0.3,0-0.5c0-0.4-0.9-0.2-1-0.9c0-0.3-0.1-0.3-0.3-0.3c-0.1,0,0.1-0.2,0-0.3c-0.1-0.1,0.2-0.2,0.3,0c0,0.2,0.3,0,0.3,0.2
		c0,0.2,0.2,0.6,0.3,0.2c0.1-0.4,0.1-0.3,0.3-0.6c0.3-0.2,0.5-0.3,0.7-0.2c0.5,0,0.3-0.4,0.7-0.2c1,0.5,0.2-0.3,0.9-0.3
		c0.6,0,0.3-0.5,0.6-0.3c0.3,0.2,0.2-0.4,0.5-0.2c0.2,0.2,0.4-0.1,0.4-0.3c0-0.2,0.1-0.2,0.3-0.2c1.3,0.1,0.5-0.3,1.1-0.3
		c0.4,0,0.5-0.1,0.7-0.2c0.1-0.1,0.2-0.1,0.4-0.1c0.7,0,0.5-0.3,0.2-0.3c-0.2,0,0-0.2-0.2-0.2c-0.2,0-0.1-0.3,0.2-0.3
		s0.2,0.2,0.4,0.1s0.3-0.1,0.2,0.1c0,0.1,0.4,0.1,0.2,0.3c-0.3,0.4,0.2,0.1,0.2,0.2c0.1,0.1-0.2,0.4,0.1,0.3c0.3,0,0.2,0.2,0.5,0
		c0,0-0.2-0.2,0.2-0.6c0.3-0.4,0.4-1,0.5-1.3C89.3,37.2,88.8,37.2,88.9,36.7z M80.7,22.8c0,0.1-0.1,0.1-0.1,0c0-0.1-0.1-0.1-0.1-0.1
		c0-0.1,0.2,0,0.2-0.1c0-0.1,0-0.1,0.1-0.1c0.1,0,0.1,0,0.2,0.1C81,22.8,80.8,22.6,80.7,22.8z"/>
	<path fill="#010101" stroke="#ead44d" stroke-miterlimit="10" d="M10.7,95.9c-0.3-0.3,0-0.3,0.1-0.6c0.1-0.3,0.1-0.3,0.5-0.7
		c0.4-0.3,0-0.8,0.5-0.6c0.2,0.1,0.2-0.6,0.6-0.2c0.2,0.2,0.3-0.3,0.3-0.7c0.1-0.3-0.4,0.4-0.7-0.1c-0.3-0.5-0.7-0.6-0.7-0.9
		c0-0.3,0.2-0.4,0.2-0.7c0-0.7,0.5-0.3,1-1.4c0.3-0.7-0.6-0.1-0.6-0.5c0-0.4-0.4,0.1-0.3-0.4c0-0.5-0.4-0.2-0.3-0.6
		c0.1-0.4-0.1-0.4-0.6-0.7c-0.4-0.3-0.3-0.5,0.3-0.4c0.6,0,1.3,0,1.4-0.4c0.1-0.4,0.4-0.4,0.4-0.9c0.1-1-0.6-0.3-0.5-0.9
		c0.2-0.6,0.2-0.1,0.7-0.5c0.5-0.4-0.4-0.3,0-0.6c0.3-0.3-0.2-0.4,0-0.6c0.3-0.3-0.3-0.4,0-0.8c0.1-0.2,0.1-0.2-0.3-0.6
		c-0.3-0.3-0.2-0.5,0.1-0.3c0.3,0.2,0.3-0.4,0.6-0.6c0.3-0.3,0.5-0.2,0.8-0.3c0.4-0.2,0.2-1,0.5-0.5c0.2,0.3,0.3-0.5,0.4-0.6
		c0.2-0.1,0.2-0.2-0.3-0.5c-0.5-0.3-0.4,0.3-0.8-0.1c-0.4-0.4,0.4-0.5,0.1-0.8c-0.2-0.2,0.2-0.5-0.4-0.3c-0.5,0.2-0.3-0.4-0.6-0.1
		c-0.3,0.4-0.3-0.2-0.6,0c-0.3,0.2-0.3-0.2-0.6,0c-0.3,0.1,0.2,0.3-0.7,0.7c-0.5,0.2-0.2-0.6-0.7-0.1c-0.4,0.3-0.1-0.5-0.8-0.2
		c-0.7,0.3-0.1-0.5-0.7,0.1c-0.5,0.6-0.7,0.3-0.8,0c-0.2-0.4,0.9-0.6,0.2-0.8c-0.4-0.1-0.1-0.6-0.3-0.6c-0.3,0-0.2,0.8-0.8,0.6
		c-0.4-0.1-0.9,0.3-1.4,0.7c0,0,0,0,0,0c0,0.1-0.1,0.5,0.1,0.8c0.2,0.2,0,0.8,0.2,0.7c0.1,0.2-0.1,0.4,0,0.5c0.2,0.1,0,0.5,0.2,0.8
		c0.1,0.1,0.2,0.1,0.2,0.3c0,0.2,0,0.6,0,0.9c0,0-0.3,0.5-0.4,1.1c-0.1,0.8-0.3,1-0.6,1.7C5.9,85,6.3,85,6,85.5
		c-0.3,0.5-0.3,0.8-0.4,1c-0.1,0.1-0.3,0.6-0.3,0.8c0,0.3-0.3,0.3-0.4,0.6c-0.1,0.2-0.2,0.2-0.4,0.3c-0.2,0.1-0.6,0-0.1,0.3
		c0.1,0.1,0.1,0.6-0.1,0.7c-0.4,0.3,0.1,0.7-0.4,1.3C3.6,90.8,4.1,90.6,4,91c0,0.1,0.3-0.1,0.6,0.1c0.1,0.1,0.2-0.3,0.5-0.2
		c0.3,0,0.1-0.4,0.4-0.6c0.3-0.3,0.2,0,0.4,0.4c0,0.1-0.3,0.1-0.3,0.2c0,0.1,0.8,0.2,0,0.2c0.2,0.3,0.4,0.6-0.3,0
		C5,91.2,4.9,91,4.8,91.2c0,0.1,0.4,0.6,0.1,0.8c-0.1,0,0,0.1,0,0.3C5.1,92,5.6,92,5.7,91.9c0.1-0.2,0.3-0.3,0.5-0.2
		c0.3,0.2,0.4-0.5,0.3,0.1c0,0.1,0.2,0.2,0.2,0.3c0,0.1-0.4,0-0.5-0.1c0-0.1-0.2-0.1-0.2,0c0.2,0.1,0.4,0.5,0.4,0.6
		c0,0.4,0,0.7-0.2,1c-0.1,0.2-0.4,0.6,0,0.4c0.2-0.1,0.1,0.3,0.1,0.6c0,0.3,0.1,0.4,0,0.5c-0.1,0.1-0.2,0.2,0,0.4
		c0.1,0.1,0.1,0.6-0.1,0.7c-0.2,0.1,0,0.6-0.1,0.6c-0.3,0.1,0.1,0.2-0.5,0.8c0.1,0,0.2,0.2,0.4,0c0.3-0.3,0.6-0.1,1-0.4
		c0.2-0.1,0.5,0.2,0.8,0.1c0.3-0.1,0.2,0.2,0.5,0.1c0.3-0.1,0.4-0.1,0.6,0c0.1,0.1,0.3,0.3,0.7,0.4c0.1,0,0.1,0,0.1,0
		c0-0.1,0.1-0.1-0.1,0C9.4,98,9,97.7,8.9,97.6c0,0,0.3,0.1,0.6,0.1c0.1,0,0.4-0.1,0.3,0c-0.1,0.1-0.2,0.3,0.2-0.1
		c0.1-0.1,0.3-0.2,0.4-0.3c0.2-0.1,0.4-0.1,0.6-0.1c-0.1-0.2-0.1-0.3-0.1-0.4C10.9,96.4,11,96.2,10.7,95.9z"/>
	<path fill="#010101" stroke="#ead44d" stroke-miterlimit="10" d="M47.2,75.2c-0.4,0-0.1,0.2-0.6,0.2c-0.9,0,0.5,0.5-0.7,0.4
		c-0.6-0.1-0.3-0.5-1-0.4c-0.3,0-0.1-0.2-0.6,0.2c-0.5,0.6-0.3-0.5-0.9-0.5c-0.2,0-0.4,0-0.6,0c-0.2,0.1-0.5,0.3-0.7,0.3
		c-0.2,0.1-0.5-0.3-0.2-0.3c0.2-0.1,0.1-0.3-0.1-0.4c-0.1-0.1-0.1-0.2,0.2-0.3c-0.1-0.2-0.3-0.4-0.7-0.3c-0.8,0.1-0.3-0.4-0.6-0.4
		c-0.4,0.1-0.8-0.1-1.1-0.2c-0.3-0.1-0.4,0-0.3,0.5c0.2,0.5-0.3,0-0.6,0.1c-0.4,0.2-0.5-0.2-0.7,0c-0.4,0.5-0.2-0.4-0.8,0
		c-0.8,0.6-0.9-0.4-1-0.4c-0.3,0.1-0.4-0.2-0.5-0.1c-0.4,0.3-0.4-0.1-0.7,0.2c-0.3,0.2-0.2-0.4-0.6-0.4c-0.2,0,0.2-0.7-0.5-0.4
		c-0.5,0.3-0.4-0.3-1.1-0.3c-0.7,0-0.2-0.5-0.5-0.4c-0.3,0.1,0.1,0.8-0.6,0.3c-0.3-0.2,0-0.3,0.3-0.5c0.3-0.3-0.1-0.7-0.6-0.5
		c-0.5,0.2-0.1-0.3-0.4-0.1c-0.2,0.1-0.3-0.1-0.4-0.3c0,0-0.1,0-0.2,0c-0.2,0.1-0.1-0.1-0.2,0.2c-0.1,0.2-0.2,0.1-0.4,0
		c-0.2,0.1-0.6,0.2-0.7,0.1c-0.1-0.1-0.3,0-0.4,0c-0.3,0-0.5-0.2-0.5-0.3c-0.1-0.1-0.2-0.1-0.4-0.1c-0.1,0-0.2,0-0.2,0
		c0.1,0.2-0.1,0.2-0.1-0.1c0-0.1-0.1-0.1-0.2-0.1c-0.2,0-0.1,0.1-0.2,0.1c-0.1,0-0.1-0.1-0.3-0.1c-0.3,0-0.1,0.1-0.3,0.2
		c0,0,0.7,0.6-0.1,0.2c-0.1-0.1-0.2,0.2-0.4,0.1c-0.3-0.1-0.4,0-0.5,0c-0.1,0-0.1,0.1-0.1,0.3c0,0.2,0,0.5-0.2-0.1
		c-0.8,0-0.3-0.1-0.1-0.1c0.4,0,0.3-0.2,0.3-0.2c-0.1-0.1,0.1-0.1-0.3,0c-0.7,0-0.1-0.4-0.5-0.2c-0.1,0-0.1-0.2-0.1-0.2
		c-0.1-0.1-0.2,0-0.3,0c0,0-0.1,0-0.2,0.1c-0.4,0.1-0.1,0.6-0.6,0.5c-0.1,0-0.1-0.4,0.1-0.4c0.3,0,0.2-0.1-0.1-0.2
		c-0.1,0-0.1,0.2-0.4,0.1c-0.1,0-0.1,0.2-0.3,0.2c-0.4,0-0.6,0.2-1.1,0.2c-0.3,0-0.3,0-0.6,0c-0.2,0-0.3,0-0.4,0
		c0.1,0-0.4-0.2-0.7-0.2c-0.2,0-0.3-0.2-0.6-0.1c-0.4,0.1-0.2-0.2-0.7-0.1c-0.2,0.1-0.1-0.2-0.2-0.2c-0.1,0-0.1,0-0.2,0
		c-0.3,0.2-0.4,0.1-0.3,0c0.1-0.1,0.1-0.1,0-0.2c-0.5,0.1-0.6,0-1.1,0c-0.1,0-0.3-0.3-0.3-0.4c-0.1-0.1-0.1,0.1-0.2,0.1
		c-0.2,0-0.1,0.3-0.4,0.2c-0.3,0.2-0.5,0.2-0.8,0.1c-0.3,0.2-0.9,0-1.3,0c-0.2,0-0.6,0-0.9,0c-0.4-0.1-0.2,0.1-0.5,0.1
		c-0.5,0-0.7,0.1-1-0.5c-0.1-0.2-0.5-0.1-0.4-0.2c0.1-0.1-0.2-0.1-0.2-0.1c-0.3-0.1,0,0.2-0.2,0.1c-0.1,0.3-0.1,0.1-0.1,0
		c-0.1,0-0.1-0.1-0.1-0.1c-0.1,0-0.2,0.1-0.1-0.1c0.1-0.1-0.1-0.1-0.1,0c-0.1,0.3-0.3,0.1-0.3,0.3c-0.2,0-0.3-0.2-0.2-0.2
		c0.2-0.1,0-0.2-0.2,0c-0.4,0.5-0.5,0-0.6,0.5c-0.2,0.1-0.2,0.4-0.4,0.2C8.4,70.8,8,70.6,8,70.7c-0.1,0.1,0.2,0.2,0,0.3
		c0,0-0.1,0.2,0,0.3c0.3-0.2,0.6-0.1,0.4-0.1c-0.4,0.1-0.1,0.2-0.1,0.2c0.4-0.1,0.8,0,0.1,0.1c0,0.2-0.1,0.4-0.2,0
		c0-0.1-0.1,0-0.2,0c0,0.3-0.3,0.2-0.2,0.1c0,0-0.2-0.1-0.3,0.1c-0.1,0.3-0.5,0-0.6,0.2c-0.1,0.2-0.5,0-0.5,0c0-0.1-0.6-0.1-0.5,0
		c0.3,0.2-0.3,0-0.2,0.2c0.1,0.1,0.2,0.1,0.2,0.1c0,0.1-0.3,0-0.3,0c0.1,0.4-0.2,0.1-0.6,0.1c0,0.1-0.1,0.2-0.1,0.2
		c0.2,0.1,0.5,0.2-0.1,0.2c-0.2,0,0.1,0.2-0.2,0.3c-0.1,0,0.3,0,0.1,0.3c-0.1,0.2,0,0.3,0.1,0.4c0.1,0-0.1-0.3,0.2-0.3
		c0.3,0,0.3,0.1,0.3,0.3c0.1,0.1,0.2,0.3,0.1,0.3c-0.1,0-0.2,0.1-0.2,0.1c0.2,0,0.2,0.1,0.2,0.2c0.1,0,0.2-0.2,0.2-0.3
		c0-0.1,0.1,0,0.2,0c0,0.1,0.1,0,0.2-0.1c0.1-0.1,0.4-0.1-0.1,0.3c-0.1,0,0,0.3-0.2,0.1c-0.1,0.1,0,0.4-0.2,0.5
		c0.1,0.1,0.4-0.1,0.2,0.3c0.1,0,0.1,0,0.2-0.1c0-0.2,0.1-0.3,0.1-0.2c0.1,0.2,0-0.4,0.2-0.2c0.3,0.2,0.2-0.3,0.4,0
		c0.1,0.3-0.2,0.3-0.1,0.6c0.1,0.1-0.2,0.1-0.4,0c-0.2,0.4,0.4,0,0.2,0.4c0.2,0,0.3,0.1,0.5-0.1c0.2-0.3,0.3-0.2,0.1,0.2
		c-0.1,0.1-0.2,0.2-0.4,0.1c-0.1,0,0,0.1,0,0.2c-0.1,0.2-0.3-0.3-0.2,0.2c0,0.1,0.6-0.2,0.6,0c-0.6,0.3-0.4,0.5-0.6,0.6
		C6,76.8,6,77.4,6,77.5c0,0.2,0,0.5,0,0.7c0,0,0,0,0,0c0.4-0.4,0.9-0.8,1.4-0.7c0.5,0.2,0.5-0.6,0.8-0.6c0.3,0,0,0.5,0.3,0.6
		c0.7,0.1-0.4,0.4-0.2,0.8c0.2,0.3,0.3,0.6,0.8,0c0.5-0.6,0,0.2,0.7-0.1c0.7-0.3,0.4,0.5,0.8,0.2c0.5-0.4,0.2,0.3,0.7,0.1
		c0.9-0.3,0.4-0.6,0.7-0.7c0.3-0.1,0.2,0.2,0.6,0c0.3-0.2,0.3,0.5,0.6,0c0.3-0.3,0.1,0.3,0.6,0.1c0.7-0.2,0.2,0.1,0.4,0.3
		c0.4,0.3-0.4,0.5-0.1,0.8c0.4,0.4,0.3-0.3,0.8,0.1c0.5,0.3,0.5,0.4,0.3,0.5c-0.2,0.1-0.3,0.8-0.4,0.6c-0.3-0.5-0.1,0.3-0.5,0.5
		c-0.2,0.1-0.5,0-0.8,0.3c-0.3,0.3-0.3,0.8-0.6,0.6c-0.3-0.2-0.4,0.1-0.1,0.3c0.4,0.4,0.4,0.4,0.3,0.6c-0.3,0.4,0.3,0.5,0,0.8
		c-0.2,0.2,0.3,0.3,0,0.6c-0.3,0.3,0.5,0.3,0,0.6c-0.5,0.4-0.5-0.1-0.7,0.5c-0.2,0.6,0.6-0.1,0.5,0.9c0,0.5-0.3,0.4-0.4,0.9
		c-0.1,0.4-0.8,0.4-1.4,0.4c-0.6,0-0.7,0.1-0.3,0.4c0.4,0.3,0.7,0.2,0.6,0.7c-0.1,0.4,0.3,0.1,0.3,0.6c0,0.6,0.3,0.1,0.3,0.4
		c0,0.4,0.9-0.2,0.6,0.5c-0.5,1.1-1,0.7-1,1.4c0,0.3-0.2,0.4-0.2,0.7c0,0.3,0.4,0.4,0.7,0.9c0.3,0.5,0.8-0.1,0.7,0.1
		c-0.1,0.4-0.2,0.9-0.3,0.7C12,93.4,12,94,11.7,94c-0.5-0.1-0.1,0.3-0.5,0.6c-0.4,0.3-0.4,0.4-0.5,0.7c-0.1,0.3-0.3,0.3-0.1,0.6
		c0.3,0.3,0.2,0.5,0.2,0.8c0,0.1,0,0.3,0.1,0.4h0l0,0v0h0c0.1,0,0.2,0,0.3,0c0.2,0,0.1-0.2,0.3-0.2c0.2,0,0.6,0.1,0.9,0.1
		c0-1.1,0.1,0,0.2,0c0.2,0.4,1.2,0.2,2,1.6c0,0-0.1,0.2-0.2,0.1c-0.1-0.1-0.1,0,0,0.3c0.2,0.1,0.1,0.3,0.2,0.2
		c0-0.2,0.6-0.1,0.4,0.3c0,0.1,0.1,0.1,0.1,0c0.2-0.1,0.3,0.2,0,0.2c-0.1,0-0.1,0.2-0.3-0.2c0-0.1-0.1,0,0.2,0.6
		c0.1,0.1,0.2,0,0.2,0.3c0,0.2,0.1-0.1,0.3,0.3c0,0.2,0,0.2,0.2,0.2c0.2,0,0.5-0.1,0.7,0.3c0.1,0.2,0.2,0,0.3,0.2
		c0.2,0.1,0.1-0.1,0.5,0.2c0,0.1,0.2,0,0.3-0.1c0.2-0.1,0.1,0,0.3-0.1c0.3-0.2,0.1-0.1,0-0.2c-0.2-0.4,0.2-0.5,0.2-0.1
		c0,0.1,0.1,0,0.1-0.1c0-0.1-0.1-0.3,0-0.3c0.2-0.2,0.3-0.4,0.4-0.6c0.2-0.3,0.3-0.2,0.6-0.3c0.2-0.1,0.2-0.3,0.6-0.3
		c0.2,0,0.1,0.1,0.5,0.1c0.2,0,0.3-0.2,0.5-0.3c0.5-0.2,0-0.2,0.4-0.4c0.1,0,0.1-0.1,0.1-0.2c0-0.1,0.1-0.2,0.2,0
		c0.6,0.2,1-0.3,1.3-0.1c0.2,0.1,0.4-0.1,0.5-0.1c0.1,0,0.3,0.1,0.3,0.1c0.5,0,0.1-0.1,0.4-0.1c0.2,0-0.1,0.1,0.2,0.1
		c0.2,0,0.4,0.1,0.4,0.1c0.5,0-0.1-0.2,1.2-0.3c1.2,0,0.7,0.6,1,0.2c0.1-0.2,0.5,0.4,0.9-0.2c0.1-0.3-0.2-0.4,0.7-0.3
		c0.3-0.1,0.4-0.1,0.4,0c0.1,0.1,0.2,0.3,0.3,0.4c0.3,0,0.2,0,0.5-0.2c0-0.3,0.2-0.1,0.2-0.4c0-0.4,0.4-0.1,0.4-0.7
		c0-0.2,0.2-0.2,0.2-0.5c0-0.3,0-0.3,0.2-0.5c0.4-0.3,0.1-0.3,0.4-0.5c0.4-0.2,0.4-0.1,0.5-0.2c0.1-0.1,0,0,0-0.2
		c0-0.1,0.2-0.2,0.3-0.2c0.1-0.2,0.3-0.1,0.4-0.2c0.2-0.3,0.1,0,0.3,0.1c0.6,0.1,0-0.2,0.6-0.2c0.5,0,0,0.1,0.3,0.2
		c0.3,0,0.2-0.1,0.5-0.1c0.1,0,0.3-0.1,0.4-0.1c0-0.7-0.1-0.6-0.1-0.3c0,0.1,0,0.2,0,0.2c-0.1,0-0.3,0-0.3-0.1
		c-0.1-0.1-0.3-0.2,0-0.5c0-0.4,0.1-0.2,0.1-0.1c0.1,0.4,0.2,0.2,0.1-0.2c-0.1-0.3,0.4-0.3,0.4-0.9c0-0.8,0.4,0.1,0.4-0.6
		c0-0.2,0-0.4,0.2-0.4c0.1,0,0.1,0.1,0.2-0.2c0-0.2,0.1-0.4,0.3-0.4c0.2,0,0.2-0.1,0.3-0.1c0.2,0,0.2-0.1,0.3-0.1
		c0.2,0,0.2,0,0.2-0.1c0-0.1,0-0.1,0.2-0.3c0.2,0.1,0.4-0.1,0.5-0.2c0.1-0.1,0.2-0.2,0.3-0.2c0.5,0-0.3-0.3-0.1-0.3
		c0.1,0-0.2-0.2-0.3-0.3c-0.3,0-0.3,0-0.5-0.2c-0.5-0.4-0.4-0.5-0.6-0.8c-0.4-0.4,0.2-0.1,0-0.4c-0.1-0.2,0-0.2-0.1-0.4
		c-0.1-0.1-0.4-0.6-0.1,0c0,0.1,0.1,0.2-0.1,0.2c-0.3-0.1-0.3-0.3-0.3-0.5c0-0.4,0.3,0.3,0.3-0.5c0-0.2,0.2-0.2,0.2-0.5
		c0.2,0,0.2-0.1,0.2-0.2c0-0.2,0.2-0.5,0.3-0.6c0.1-0.1,0.1-0.2,0.4-0.4c0.1-0.1,0-0.4,0.3-0.5c0.5-0.2,0.2-0.5,0.6-0.6
		c0.3-0.1,0-0.1,0.4-0.4c0.4-0.4,0.2-0.4,0.4-0.7c0.1-0.1,0.2-0.3,0.3-0.5c0.1-0.1,0.1-0.1,0.2-0.2c0.2-0.1,0.2-0.1,0.4,0
		c0,0,0,0.1-0.1,0.2c-0.1-0.1-0.2,0-0.2,0c-0.2,0.2,0.1,0.3,0.5-0.3c0.1-0.1,0.2,0,0.3,0c0.1,0,0.1-0.1,0.2-0.1
		c0.1-0.1,0-0.3-0.1-0.2c0,0.1-0.1,0-0.1,0c-0.4-0.4-0.2-0.1-0.1,0c0.1,0.1-0.2,0.1-0.4,0c-0.2-0.1,0.4-0.5,0.6-0.7
		c0.2-0.2,0.5-0.4,0.7-0.5c0.6-0.3,0.3,0.2,0.6-0.1c0.4-0.4,0.7-0.1,0.9-0.4c0.1-0.1,0.7-0.1,1-0.2c0.3,0,0.2-0.1,0.3-0.1
		c0.2,0,0.2-0.1,0.6-0.1c0.2,0,0.5-0.1,0.5-0.1c0.2-0.1,0.4-0.4,0.4-0.5c0.1-0.3,0.5-0.2,0.7-0.4c0.3-0.2,0.5-0.3,0.9-0.4
		c0.2-0.1,0.3-0.2,0.4-0.3c0.1-0.1,0.3-0.1,0.4-0.1c0.1-0.3,0.3-0.2,0.4-0.4c0.1-0.2,0.2-0.2,0.4-0.2c0.1,0,0.4-0.3,0.2-0.5
		c-0.2-0.3,0.3-0.7-0.1-0.8c-0.5-0.2-0.2-0.4-0.2-0.6c0-0.1,0.1-0.1,0.3,0c0.1,0.1,0.3,0.1,0.3,0c0-0.2,0.2-0.2,0.1-0.3
		c-0.2-0.2-0.3,0.1-0.4-0.2c0-0.1,0-0.1-0.1-0.2c0,0,0-0.1,0-0.1C47.6,75.5,47.7,75.3,47.2,75.2z M34.7,93.1c0,0.1-0.1,0.1-0.2,0
		c-0.1-0.1,0.2-0.4,0.2-0.2C34.8,93,34.7,93,34.7,93.1z M34.8,92.8C34.7,92.7,34.8,92.7,34.8,92.8c0.1-0.1,0.2-0.1,0.2,0
		C35.1,92.8,35,92.8,34.8,92.8z"/>
	<path fill="#010101" stroke="#ead44d" stroke-miterlimit="10" d="M59.2,41.2c0.2-0.1,0.1-0.2,0-0.4c-0.1-0.2-0.5,0.1-0.6-0.2
		c-0.1-0.2,0.5-0.1,0.3-0.4c-0.1-0.2-0.2,0.1-0.5-0.3c-0.2-0.3-0.3,0-0.5-0.3l0,0c0,0-0.2-0.1-0.5,0c-0.2,0.1-0.3-0.2-0.5,0
		c-0.2,0.2-0.1,0-0.3-0.2c-0.4-0.4,0.5-0.5,0.3-0.6c-0.1-0.1,0.1-0.2,0.1-0.4c0.1-0.3,0.2-0.2,0.2-0.4c0-0.2,0-0.2-0.8-0.3
		c-0.5,0,0-0.2-0.4-0.4c-0.3-0.1-0.3,0-0.7,0.1C55,37.4,55.3,37,55,37c-0.4,0-0.1-0.2-0.3-0.3c-0.4-0.1,0.1-0.1,0-0.4
		c-0.1-0.1-0.1-0.2-0.3,0c-0.3,0.4-0.3-0.1-0.7,0.2c-0.2,0.2-0.2-0.2,0-0.2c0.2,0,0.2-0.2-0.1-0.3c-0.3-0.1-0.3,0.4-0.5,0.4
		c-0.2,0-0.6,0.2-0.3-0.1c0.1-0.1,0.2-0.3-0.1-0.2c-0.3,0.1-0.6,0.1-0.3,0.3c0.3,0.3-0.2,0.3-0.4,0.2c0.5,0.3,0.7,0.7-0.3,0.2
		c0,0-0.1,0-0.1-0.1c-0.1,0.1-0.3,0.2-0.6,0.4c-0.2,0.1-0.9,0.4-0.8,0c0-0.3-0.1,0-0.6-0.3c-0.5-0.3-0.1,0.4-0.7,0.3
		c-0.2,0-0.2-0.3-0.2-0.6c0,0,0,0,0,0c0,0,0,0-0.1,0c0,0-0.1-0.1-0.1,0c-0.1,0.1-0.2-0.1-0.5,0c-0.3,0.4-0.5,0.2-0.7,0.5
		c-0.1,0-0.1,0.1-0.2,0.1c-0.4,0.2-0.7,0.4-0.6,0.4c-0.1,0-0.2,0.1-0.3,0.1c0,0-0.1,0-0.1,0c0.3,0.6,0.3,0.7,0.3,1.1
		c-0.1,0.8,0.2,0.1,0.6,0.6c0.3,0.5,0.5,0.4,0.6,0.2c0.2-0.3,0.3-0.1,0.5-0.3c0.4-0.2,0.3,0.3,0.5,0.3c0.3,0,0,0.4,0.1,0.5
		c0.2,0.1-0.1,0.3,0.2,0.5c0.3,0.2,0.2-0.2,0.5-0.1c0.3,0,0,0.3,0.3,0.2c0.3-0.1,0.2,0,0.3,0.1c0.2,0.2-0.1,0.5,0.1,0.6
		c0.3,0.3,0.1-0.2,0.5-0.2c0.2,0,0.2,0.2,0.5,0.2c0.3,0,0.2-0.3,0.4-0.1c0.2,0.2,0.2,0.1,0.3,0.3c0,0.2,0.2-0.1,0.3,0
		c0.2,0.3-0.3,0.4-0.2,0.6c0.1,0.1,0.2-0.1,0.3,0.2c0.1,0.3-0.3,0.2-0.3,0.5c0,0.3,0.4,0,0.7,0.1c0.2,0,0.4,0.3,0.6,0.1
		c0.3-0.2,0.7-0.1,0.6-0.4c-0.1-0.3,0-0.3,0.2-0.4c0.2-0.1,0.5-0.3,0.5,0c0,0.2-0.2,0.1-0.2,0.4c0,0.3-0.2,0.4,0,0.5
		c0.4,0.1-0.2,0.7,0.4,0.7c0.7-0.1,0.6,0.5,1.1,0.4c0.5-0.1-0.1,0.3,0.4,0.4c0.6,0,0.1,0.4,0.6,0.4c0.5,0,0.2-0.2,0.6-0.2
		c0.1,0,0.2,0,0.3,0.1c0,0,0,0,0,0c0.3-0.1,0.1-0.2,0.3-0.4c0.3-0.2-0.3-0.1-0.1-0.4c0.2-0.2-0.2,0-0.3-0.2
		c-0.5-0.6-0.1-0.3-0.1-0.5s-0.2-0.2-0.1-0.4c0.2-0.2,0.3,0.1,0.3-0.2c0-0.1,0-0.1,0-0.2c0.1-0.2,0.3-0.2,0.4-0.5
		c0.1-0.4,0.2,0.1,0.5,0c0.1,0,0.2,0,0.2,0c0,0,0,0,0,0c0.2-0.7,0.5-0.2,0.5-0.5c0-0.3,0.4,0,0.5-0.2C59.5,41.3,59.1,41.3,59.2,41.2
		z"/>
	<path fill="#010101" stroke="#ead44d" stroke-miterlimit="10" d="M51.5,35.2c0.3,0.4,0.6,0,0.5-0.1c-0.2-0.1-0.5-0.3-0.6-0.5
		c-0.2-0.2-0.5,0-1-0.1c0,0.1,0.5,0.1,0.6,0.3C51,35.2,51.2,34.8,51.5,35.2z"/>
	<path fill="#010101" stroke="#ead44d" stroke-miterlimit="10" d="M49.8,35.7c-0.1,0.3,0.6,0.3,0.6,0.1
		C50.4,35.4,49.8,35.5,49.8,35.7z"/>
	<path fill="#010101" stroke="#ead44d" stroke-miterlimit="10" d="M62.2,28.9c-0.2-0.5,0.2-0.5,0-0.8c0,0,0,0,0,0
		c-0.2,0.1-0.4,0-0.5-0.1c-0.1-0.2,0.1-0.2-0.2-0.3c-0.2-0.1-0.3,0.1-0.3-0.2c0-0.2,0.1-0.5-0.2-0.5c-0.3,0-0.6,0-0.9,0
		c-0.2,0-0.6,0.1-0.9,0.2c-0.2,0.1-0.4-0.2-0.5-0.1c-0.1,1-0.3,0-0.5,0c0,0.1-0.1,0.1-0.2,0.1c-0.4,0-0.7,0.1-1.1,0.3
		c-0.2,0.1-0.3,0.2-0.8,0.3c-0.4,0.1-0.1,0.4-0.3,0.6c-0.1,0.2-0.2-0.1-0.1,0.2c0,0.2,0.2,0.4,0.3,0.7c0.1,0.2-0.5,0-0.3,0.2
		c0.3,0.2,0.6,0.1,0.9,0.1c0,0.1,0.3,0,0.3-0.2c0.1-0.5,0.9,0.2,0.2,0.2c-0.2,0-0.1,0.2-0.5,0.3c-0.1,0-0.3,0.5-0.1,0.5
		c0.1,0,0,0.2,0.1,0.3c0.1,0.1,0.6,0,0.9,0c0.6-0.1,0.2-0.7,0.7-0.3c0.4,0.3-0.7,0.6-0.7,0.7c-0.1,0.1-0.2,1-0.3,0.1
		c-0.2,0-0.5-0.1-0.6-0.2c-0.5,0-0.7,0.5-1,0.8c-0.2,0.1-0.7,0-0.7,0.4c0.6,0.1,0.2,0.8,0.1,0.5c-0.1-0.3-0.2-0.4-0.4-0.4
		c-0.2,0-0.5,0-0.1-0.3c0.3-0.3-0.2-0.1,0.1-0.3c0.4-0.3-0.2-0.7,0-0.7c0.1,0,0.6,0.1,0.7,0c0.1-0.1,0.2-0.3,0.2-0.4
		c-0.2-0.1-0.4-0.2-0.4-0.1c0,0.2-0.4,0.3-0.3-0.1c0.1-0.1,0.2-0.3,0.2-0.4c-0.4,0,0-0.3-0.3-0.3c-0.3,0-0.1,0.4-0.5,0.3
		c-0.1-0.1-0.2,0-0.3-0.1c0.1-0.2,0.1-0.3-0.3-0.3c-0.2,0-0.3,0.2-0.3,0.4c0,0-0.1,0.1-0.2,0.5c0,0.6-0.5,1.9-0.6,2.1
		c-0.1,0.2-0.3,0.4-0.4,0.6c-0.3,0.4-0.6,0.6-0.8,0.8c0,0,0.1,0.3,0.3,0.3c0.3,0,0.6,0.2,0.5,0.3c0,0-0.3-0.1-0.4,0
		c-0.1,0,0.1,0.6-0.2,0c-0.1-0.2-0.2-0.2-0.3-0.2c0.1,0.1-0.3,0.1-0.2,0.2c0.3,0.3,0.3-0.1,0.5,0.3c0.2,0.3,0.5,0.4,0.8,0.5
		c0.3,0.1,0.6,0.2,0.7,0c0.9-0.4,1-0.3,0.3,0.1c-0.4,0,0.1,0.3-0.7,0.1c-0.2,0-0.6-0.2-0.4,0.1c0.1,0.1-0.4,0.2-0.5,0.2
		c-0.4-0.1-0.4-0.1-0.4-0.1s-0.2,0-0.2,0.1c0,0.1-0.2,0.1-0.4,0.1c-0.2,0,0.1,0,0.2,0.2c0.1,0.2,0.4,0.1,0.6,0.2
		c0.3,0.1,0,0.4-0.2,0.3c-0.1-0.1-0.4,0-0.5-0.2c-0.1-0.2-0.4-0.2-0.6-0.1c-0.5,0.2-0.7,0-0.8-0.2c-0.2-0.3-0.6-0.3-0.8,0.1
		c0.4,0.1,0.2,0.2,0.4,0.4c0.2,0,0.5-0.1,0.6,0c0,0.1,0.5,0.3,0.6,0.2c0.1-0.3,0.3-0.2,0.5-0.1c0.3,0.1,0.8,0.1,0.8,0.2
		c0,0,0,0.1,0,0.1c0,0,0,0,0,0c0.2,0.1,0.7,0,0.4-0.2c-0.3-0.3,0-0.3,0.3-0.3c0.3-0.1,0.2,0.1,0.1,0.2c-0.2,0.3,0.1,0.1,0.3,0.1
		c0.2,0,0.2-0.5,0.5-0.4c0.3,0.1,0.3,0.3,0.1,0.3c-0.2,0-0.2,0.4,0,0.2c0.3-0.3,0.3,0.2,0.7-0.2c0.2-0.2,0.2-0.2,0.3,0
		c0.1,0.2-0.4,0.3,0,0.4c0.2,0,0,0.3,0.3,0.3c0.4,0,0,0.4,0.4,0.3c0.4-0.1,0.5-0.2,0.7-0.1c0.4,0.1,0,0.3,0.4,0.4
		c0.8,0.1,0.8,0.1,0.8,0.3c0,0.2-0.1,0.1-0.2,0.4c-0.1,0.3-0.3,0.4-0.1,0.4c0.3,0.1-0.7,0.2-0.3,0.6c0.2,0.2,0,0.4,0.3,0.2
		c0.2-0.2,0.3,0.1,0.5,0c0.2-0.1,0.5,0,0.5,0l0,0c0,0,0,0,0,0c-0.1-0.2,0.1-0.3,0.2-0.3c0.1,0,0.3-0.1,0-0.3
		c-0.3-0.2,0.1-0.4-0.3-0.3c-0.2,0-0.3,0.1-0.3-0.1c-0.1-0.4,0.1-0.2,0.3-0.3c0.2,0,0.9-0.4,0.8-0.6c-0.1-0.3-0.4,0.4-0.4-0.1
		c0-0.2,0.5-0.3,0.6-0.8c0-0.1,0-0.1,0-0.2c0-0.7-0.4-0.5-0.4-0.9c0-0.4-0.3,0-0.3-0.3c0-0.3-0.4-0.1-0.2-0.4
		c0.2-0.2-0.1-0.2-0.2-0.3c0-0.1,0.4-0.1,0.6,0c0.3,0.1,0.2-0.2,0-0.3c-0.2-0.1,0-0.3,0.3,0c0.2,0.2,0.2-0.1,0.6,0.3
		c0.3,0.3,0-0.4,0.5-0.2c0.3,0.1,0.5-0.2,0.8-0.1c0.3,0.1,0.7-0.6,0.1-0.6c-0.3,0-0.3,0,0-0.4c0.2-0.3,0.4,0.2,0.8-0.4
		c0.2-0.3,0.4,0.1,0.3-0.3c-0.1-0.4,0.4-0.2-0.1-0.8c-0.3-0.4-0.2,0.2-0.6-0.1c-0.2-0.2-0.4,0.2-0.5-0.1c-0.2-0.3,0.3-0.2,0.1-0.4
		c-0.1-0.1-0.4-0.5,0.5-0.3c0.3,0.1,0.6,0.3,0.6-0.5C61.7,29.4,62.4,29.5,62.2,28.9z"/>
	<path fill="#010101" stroke="#ead44d" stroke-miterlimit="10" d="M67.2,20.1c0,0.1,0.1,0.1,0.2,0.1l0.5,0c0.1,0,0.2,0,0.3,0.1
		c0.1,0,0.2,0.1,0.3,0.1l0,0c0.1,0,0.2,0,0.2,0.1c0,0,0.1,0.1,0.1,0.1c0.1,0,0.1,0.1,0.1,0.1c0,0.1,0.1,0.1,0.2,0.1
		c0.1,0,0.2-0.1,0.2-0.1c0-0.1,0.1-0.1,0.2-0.1c0,0,0,0,0.1,0c0.1-0.1,0.2-0.2,0.5-0.2c0.2,0-0.1-0.3,0.2-0.2c0.4,0.1-0.3,0.1,0,0.3
		c0.2,0,0.4,0.2,0.4,0.1c-0.3-0.1-0.2-0.4,0.1-0.2c0.4,0.3,0.1-0.2,0.5,0.1c0.3,0.3,0.3,0.1,0.5,0c-0.1-0.3-0.3-0.6-0.4-0.7
		c-0.1-0.1-0.3,0.1-0.4-0.1c-0.3-0.3-0.5-0.4-0.8,0c0.3,0.2,1,0.3,0.6,0.4c0.6,0.2,0.3,0.4-0.9-0.4c-0.7,0.3-0.6-0.3-0.2-0.2
		c0.3,0.1,0.3-0.2,0.3-0.3c-1,0.1-0.3,0.1-0.2-0.1c0.1,0,0.2,0,0.2-0.1c0.2,0,0.4,0.1,0.6-0.1c-0.2-0.3,0.4-0.2,0.2-0.4
		c-0.2,0-0.3,0.1-0.3,0c0-0.1-0.2-0.2-0.2-0.3c0-0.1-0.1-0.1-0.1-0.4l0.1-0.2c0.4,0,0.1-0.2,0-0.2c-0.5,0-0.1-0.1,0.2-0.2
		c0.4,0.2,0.2,0.4,0.3,0.5c0.1,0.1,0.1-0.2,0.3-0.1c0.1,0.1-0.1,0.1,0,0.2c0.2,0.1-0.2,0.1-0.1,0.3c0.1,0.1,0.2,0,0.3,0.1
		c0.1,0.1,0.1,0.4,0,0.3c-0.2-0.1,0,0.2,0.2,0.3c0.2,0,0.4,0.3,0.5,0.2c0.1-0.1,0.3,0.2,0.3,0.2c0,0-0.1,0.1-0.2,0.1
		c-0.1,0.1,0.5,0.3,0.4,0.1c-0.1-0.2,0.4,0,0.3,0.1c-0.1,0.2,0.5,0,0.3,0.1c-0.1,0.1,1.1-0.2,0.3,0.2c0,0,0.3,0.1,0.1,0.2
		c-0.1,0,0.2,0.1,0.2,0.2c0.1-0.1,0.2-0.1,0.3-0.1c0.1,0,0.2-0.4,0-0.1c-0.2,0-0.2-0.2,0.2-0.3c0.2,0,0.2-0.5,0.3-0.8
		c0.2-0.3-0.3-0.7,0.1-0.5c0.1,0.1-0.1-0.5-0.3-0.6c-0.1-0.1-0.3-0.1-0.3-0.2c0-0.1,0.4-0.1,0.4-0.3c-0.1,0-0.2,0.1-0.3,0
		c-0.1-0.2-0.1-0.5-0.5-0.5c0,0.1-0.1,0.3,0.2,0.3c0,0.1-0.4,0-0.1,0.2c0.3,0.2-0.3,0-0.5,0.3c0-0.1-0.5,0,0-0.2
		c0.3-0.1,0.2-0.3,0.1-0.4c-0.1-0.1-0.7-0.2-0.7-0.4c-0.3,0-0.1,0.4-0.3,0.1c-0.2,0-0.2,0.1-0.4,0.2c-0.4,0.1-0.4,0.3-0.6,0.3
		c-0.1,0-0.3,0.1-0.3-0.1c0-0.1-0.3,0.1-0.3,0.1c0.1-0.2,0.1-0.3,0.4-0.4c0-0.2,0.2-0.1,0.1-0.1c-0.8,0.2-0.5-0.1-0.7-0.1
		c-0.2,0-0.5-0.3-0.3-0.3c0.6,0,0.3,0.2,0.9,0.2c0.2,0,0.1-0.1,0.5,0c0.3,0.1,0.3-0.2,0.1-0.3c-0.2-0.1,0-0.2,0.1-0.3l-0.4-0.1
		c-0.5,0-0.9-0.1,0-0.2c0.4-0.2,0.5,0,0.7,0.1c0.1,0,0.1,0,0.2,0.1c0-0.1,0-0.3,0.1-0.2c0.2,0,0-0.6,0.2-0.5c0.1,0,0-0.2-0.1-0.3
		c-0.1-0.1-0.2-0.2-0.2-0.4c0-0.1,0.3-0.1,0.3-0.2c0-0.1-0.1-0.1-0.1-0.2c0.3,0.1,0.2-0.2,0.4-0.3c0.1,0,0.4,0,0.4,0.1
		c0,0.3-0.5,0.2-0.5,0.5c0.2,0,0.3,0,0.4-0.1c0,0.2,0.2,0.1-0.1,0.4c0.3,0.2,0.2,0,0.4,0c0-0.2,0-0.3,0-0.5c0.1-0.2,0.3-0.2,0.5-0.2
		c0,0.1-0.3,0.3-0.2,0.4c0,0,0.3,0.2,0.3,0.1c0,0,0.2-0.2,0-0.3c0.1-0.2,0.3-0.2,0.3-0.4c0-0.2,0.4-0.1,0.4-0.6c0-0.5,0.4-0.2,0-0.5
		c-0.2-0.1-0.3-0.1-0.3-0.3c-0.7-0.2-1,0.3-1.6,0.1c-0.5-0.2,0.1-0.6-0.2-0.7c-2,0-0.7-0.2,0-0.1c-0.1-0.3-0.3-0.7-0.3-1.1
		c0-0.2,0.2,0.1,0.3-0.4C72.1,9.6,73,9.6,73,9.5c0-0.2,0.1-0.4,0.2-0.5c0.1-0.1,0.1,0.1,0.1-0.1c0-0.1,0.1-0.2,0.2-0.2
		c0.2-0.1,0.2-0.5,0.1-0.6c-0.1-0.2-0.2,0-0.1-0.3c0-0.2,0.1-0.2,0.2-0.3c-0.2,0-0.2-0.2-0.2-0.3c0-0.1-0.2,0-0.2-0.2
		c0-0.1-0.1-0.2-0.1-0.2c0-0.1,0.2-0.4,0.4-0.5c0.3-0.2,0.5-0.3,0.2-0.4c-0.2,0-0.1,0.1-0.3,0.1c-0.2,0-0.3,0.2-0.5,0.3
		c-0.3,0.3-0.6,0.4-1.1,0.4c-0.2,0-0.4-0.1-0.6,0.2C71.3,7.1,71.2,7,71,7.1c-0.2,0.3-0.4,0.6-0.6,0.9c-0.3,0.4-0.3,0.6-0.9,0.8
		c-0.2,0-0.1,0.2-0.3,0.2c-0.2,0-0.4,0-0.5-0.1c-0.4-0.1-0.6,0-0.9,0.2c-0.3,0.2-0.8,0-1.1-0.1c-0.1,0.2-0.3,0.6-0.6,0.6
		c0,0.3-0.3,0.2-0.4,0.5c-0.1,0.3-0.3,0.6-0.3,0.9c-0.1,0.5,0.1,0.4,0.1,0.1c0-0.2,0.1-0.3,0.2-0.3c0.1,0.1,0,0.5,0.3,0.7
		c0-0.3,0-0.4,0.2-0.3c0.2,0.1,0.3,0.1,0.2-0.1c0-0.1-0.1-0.3,0-0.4c0.2,0,0.4-0.3,0.3-0.5c0-0.4,0.2,0.2,0.5-0.2
		c0.2-0.1,0.4-0.4,0.5-0.2c0.1,0.2,0.7-0.4,1-0.1c0.2,0.2,0.1,0,0.6,0c0.3,0,0-0.2,0.6-0.2c0.2,0,0.3,0.1,0.4-0.2
		c0.2-0.2,0.1,0.3,0.4,0.1c0.1,0,0.1-0.1,0.1-0.2c0-0.1,0.1,0.1,0.3,0.1c0,0,0.2,0.1,0.3,0c0.3-0.2,0.7,0,0.3,0.1
		c0.1,0,0.5,0.2,0.4,0c0-0.1,0.3,0,0.2,0.1c0,0.2-0.3,0.2-0.5,0.2c-0.1,0.2-0.4,0.1-0.5,0.1c-0.1,0-0.2-0.3-0.4-0.3
		c-0.2,0-0.5-0.1-0.4,0.1c0.2,0.3-0.2,0-0.2,0.3c-0.1-0.1,0,0.5-0.3,0.2c-0.1-0.1,0-0.2,0.1-0.3c0.1-0.1-0.1-0.1-0.3-0.1
		c-0.2,0-0.6,0.1-0.6,0.2c0,0.2-0.2,0.1-0.3,0.2c-0.2,0.2-0.2,0.1-0.1,0.4c0.1,0.1-0.2,0.3-0.1,0.4c0.1,0.1,0.5,0.1,0.3,0.3
		c-0.5,0.4-0.4,0.4,0.1,0.2c0.1-0.1,0.3,0.1,0.2,0.2c-0.1,0.1-0.1,0.3,0.1,0.3c0.1,0,0.1,0.2-0.2,0.1c-0.3,0.1-0.1-0.1-0.2-0.1
		c-0.1,0-0.2-0.1-0.1-0.1c0.1-0.2-0.2-0.2-0.2-0.1c-0.1,0.1-0.3,0.3-0.4,0.2c0-0.1,0-0.3,0-0.4l0.2-0.1l0.1-0.1
		c-0.1-0.2-0.3-0.2-0.3-0.5c-0.4,0.3-0.3-0.1-0.5,0.1c-0.2,0.2-0.4,0.3-0.1,0.3c0.2,0,0.3,0.1,0,0.1c-0.3,0-0.5,0-0.4,0.1
		c0.1,0.3-0.2,0.1-0.2,0.3c0,0.3,0.3,0.1,0.2,0.3c0,0.1-0.1,0.3-0.5,0.3c0-0.3-0.6,0-0.1-0.3c0.1-0.1,0-0.1-0.2-0.1
		c-0.4,0.1-0.1-0.1-0.6-0.1c-0.9,0-0.3-0.3-0.8-0.4c0,0.4-0.3,0.8,0,1.2c0,0,0.6,0.7,0.6,0.7c-0.1,0-0.5,0-0.5-0.1
		c0-0.1-0.1-0.5-0.2-0.5c-0.1,0.1,0.1,0.6-0.1,0.9c0,0.3-0.2,0.6,0,1c0.4-0.1-0.1-0.7,0.4-0.5c0.3,0.1,0.3,0.7,0.5,0.9
		c0.1,0-0.1,0.3-0.2,0.4c-0.1,0.2-0.2-0.4-0.3-0.2c-0.2,0.2,0.1-0.5-0.4-0.5c0,0.2,0.1,0.4,0.1,0.7c0,0.3,0.1,0.5-0.1,0.8
		C65,16.6,64.7,17,64.9,17c0.3,0,0.7,0.2,1,0.3c0-0.1,0.1-0.1-0.1-0.2c-0.3-0.1-0.2-0.3-0.2-0.4c0.1-0.4,0.4-0.2,0.3,0.3
		c0.2,0.2,0.6,0.6,0.5,0.4c-0.1-0.5,0.4,0,0.6,0.5c0.1,0.2-0.2,0.4,0,0.6c0.1,0.1,0,0.3,0,0.5c0,0.4-0.4,0.6,0,0.9
		c0,0-0.1,0.1-0.1,0.2h0C67.1,20,67.2,20.1,67.2,20.1z"/>
	<path fill="#010101" stroke="#ead44d" stroke-miterlimit="10" d="M75.9,15.8c-0.2,0-0.5,0.3-0.7,0.2c0-0.2-0.5-0.1-0.4,0
		c0.1,0.1,0.4,0.1,0.5,0.2c0,0.1,0.8,0.3,0,0.2c-0.1,0-0.6,0.1,0,0.1c0.3,0,0.4,0,0.4,0.2c0,0.1,0,0.2,0,0.3c0,0-0.2,0-0.2,0.1
		c0,0.2,0.2-0.1,0.3,0.1c0.1,0,0.1,0,0,0.1c0,0.1,0.2,0.1,0,0.2c0.2,0.4-0.3,0.3-0.2,0.4c0,0,0.2,0,0.1,0.2c0.5,0.1,0.3,0.3,0.4,0.6
		c0.3,0,0.6,0.1,0.8,0c0.1-0.1,0.3,0.1,0.3,0.1c0.1,0,0.2,0.2,0.5,0.3c-0.1-0.1,0-0.2-0.2-0.3c-0.1,0,0-0.1,0.1-0.1
		c0.1,0,0.2,0,0.2,0.2c0.4,0.1,0.2,0.3-0.1,0.3c0.1,0.1,0.4,0.3,0.4,0.4c0,0.1,0,0.1-0.4-0.2c-0.1-0.1-0.4,0-0.3,0.1
		c0.1,0.1,0.5,0.2,0.7,0.4c0.3,0.3-0.1-0.6,0.6,0.2c0.1,0,0-0.3,0.4-0.3c-0.4-0.4-0.4-0.5-0.2-0.5c0.3,0.1,0-0.2,0-0.3
		c-0.2,0.1-0.5,0.2-0.3-0.2c0.3,0,0.4,0.2,0.4-0.1c0.1,0,0.2-0.1,0.2-0.1c0.1,0.1,0.1-0.1,0.5-0.1c0.1,0.1,0.2,0.1,0.1-0.1
		c0-0.1,0.2-0.1,0.3-0.1c0-0.3,0.1-0.4-0.2-0.6c-0.3-0.2-0.7,0.1-0.7-0.4c0.1-0.3,0.3-0.4,0.5-0.5c0.3-0.1,0.2-0.2,0.6,0
		c0.2,0.5,0.2,0,0.4,0c0.1,0,0.2-0.1-0.2-0.8c0-0.1,0.1-0.2-0.1-0.2c0.1-0.4-0.2-0.5-0.2-0.9c0-0.2,0.4-0.3,0.4-0.4
		c0-0.2-0.6-0.2-0.7-0.3c-0.2-0.2-0.6-0.1-0.8-0.1c0,0.2-0.3,0.2-0.5,0.3c-0.1,0.2-0.3,0.3-0.6,0.4c-0.2,0-0.1,0.2-0.1,0.3
		c0,0.1,0.4-0.4,0.5-0.3c0,0,0.1,0.1,0.2,0.3c0.1,0.1-0.1,0.3,0,0.5c0.1,0.3,0.2,0.4,0.1,0.8c-0.5-0.5-0.7,0.6-0.5-0.2
		c0-0.1,0.1-0.2,0.2-0.2c0.4,0.1-0.1-0.5-0.1-0.7c0-0.2-0.3-0.2-0.3-0.2c0,0.2-0.1,0.2,0.1,0.3c0.1,0.1-0.1,0.1-0.2,0.2
		c-0.1,0.1-0.4,1.6-0.5,0.3c-0.1,0,0-0.2-0.1-0.1c-0.4,0.1-0.6-0.1-0.1-0.2c0.1,0,0-0.3-0.1-0.2c-0.2,0.1,0-0.4,0.1-0.2
		c0.1,0.3,0.2-0.2,0.3-0.4c-0.1,0-0.2,0-0.2,0.1c-0.2,0-0.3-0.1-0.3,0.1c-0.4,0-0.4-0.2-0.7-0.2c-0.4,0-0.5,0-0.6-0.1
		c-0.2-0.1,0,0.1,0,0.2c0.2,0,0.4,0.1,0.6,0.1c0.5,0.3,0.1,0.6-0.2,0.5c0,0-0.3-0.1-0.3,0c0.1,0,0.3,0.2,0.2,0.3
		c-0.1,0.2-0.3-0.2-0.4,0C76.3,16.2,75.6,16,75.9,15.8z"/>
	<path fill="#010101" stroke="#ead44d" stroke-miterlimit="10" d="M43.1,31.6c-0.1-0.3,0-0.9-0.2-1.2c-0.1-0.2-0.5-0.4-0.7-0.6
		c-0.3-0.2-0.7-0.6-1.1-0.4c-0.4,0.1-0.1-0.2-1-0.1c-0.2,0-0.7,0-0.9,0c0.2,0.2-0.3,0.2-0.3,0c-0.4,0-0.3,0.2-0.4,0.5
		c0,0.1,0,0.4-0.3,0.4c-1-0.1-0.3-0.5-0.6-0.5c-0.7,0-0.3-0.2-0.2-0.3c0-0.1,0.3-0.2,0.4-0.3c0.2-0.1,0.3-0.1,0.4-0.2
		c0.2-0.3,0-0.3,0.1-0.6c0-0.2-0.4-0.9-0.5-1.1c-0.1-0.2-0.3-0.2-0.5-0.2c-0.2,0-0.2-0.1-0.4-0.2c-0.3-0.2-0.6-0.3-0.8-0.5
		c-2.7,0.1-0.5-0.3-0.1-0.4c0.1,0.1,0.4,0.2,0.8,0.5c0.2,0.1,0.4,0.2,0.5,0.3c0.3,0.3,0.4-0.1,0.1-0.4c-0.2-0.2-0.4-0.4-0.7-0.8
		c-0.5-0.6-0.5-1.1-0.5-1.1c0-0.4,0.7,0,0.4-0.3c-0.3-0.1-0.7-0.2-0.7-0.5c-0.1-0.1-0.2,0-0.3-0.1c-0.1-0.1-0.2-0.7-0.5-0.7
		c0-0.3-0.3-0.4-0.3-0.5c-0.1,0-0.2,0.2-0.3,0.1c-0.2-0.1,0.1-0.1,0-0.2c-0.1-0.2-0.4-0.3-0.6-0.3c-0.3,0-0.7-0.1-0.8-0.3
		c-0.1-0.1-0.2,0.2-0.4,0.2c-0.8,0,0.5-0.4-0.1-0.6c-0.3,0-0.4,0-0.3-0.3c0.1-0.4-0.2-0.3-0.2-0.6c0-0.1,0.1-0.4,0-0.4
		c-0.2-0.1-0.2-0.4-0.4-0.5c-0.4-0.6,0.2-0.3-0.1-0.6c-0.2,0-0.3-0.2-0.2-0.4c0-0.1,0.2-0.1,0.1-0.2c0-0.2-0.1,0.1-0.3-0.2
		c-0.1-0.2,0.2,0.2,0-0.6c-0.3,0-0.1-0.4-0.2-0.5c-0.2-0.1-0.1-0.1-0.3-0.2c-0.8-0.2,0.3-0.2-0.4-0.4c-0.5-0.1-0.5-0.1-0.5-0.2
		c-0.3-0.4-0.1-0.4-0.4-0.7c-0.2,0-0.2-0.1-0.2-0.2c-0.1,0-0.1-0.1-0.4,0c-0.6,0-0.3-0.2-0.5-0.2c-0.3,0-0.2-0.2-0.4-0.2
		c-0.4,0-0.2-0.2-0.7-0.3c-0.5,0-0.1,0.2-0.5,0.1c-0.2-0.1,0,0.4-0.2,0.3c-0.1,0-0.2,0.2-0.3,0.1c0,0-0.2,0.2-0.4,0
		c-0.1-0.2-0.1-0.1-0.4-0.1c-0.3,0.1-0.5-0.1-0.8-0.1c-0.4,0,0.4-0.3,0.8-0.3c0.3,0,0.3,0,0.4-0.3c0-0.2,0.9-0.8,0.8-0.5
		c0,0.1,0,0.1,0.1,0.1c0.1,0,0.2-0.1,0.3-0.1c0.1-0.1,0.2,0.1,0.4-0.2c0.2-0.2,0,0.1,0.3-0.1c0.1,0,0.1-0.1,0-0.1
		c0-0.1-0.1-0.1-0.2-0.1c-0.1,0,0-0.2-0.5-0.1c-0.2,0-0.2-0.3-0.2-0.6c-0.1-0.1-1,0-0.8,0.1c0.2,0.1-0.6,0.1-0.4,0
		c0.2-0.1,0.7-0.3,0.9-0.3c0.2,0,0.4-0.1,0.5-0.1c0.2,0.1,0.2-0.2,0.3-0.2c0.1,0.1,0.2,0,0.3-0.2c0.3,0,0,0,0.3-0.3
		c-0.1-0.1-0.1-0.4,0.2-0.3c0.1-0.2,0-0.4,0.1-0.3c0-0.3,0.3-0.1,0.3-0.3c0-0.2,0.3-0.3,0.3-0.5c0-0.3,0-0.3,0.2-0.5
		c0.3-0.4,0.2-0.3,0.4-0.6C29.8,9,29.6,9,29.7,9c0.1-0.2,0.1-0.3,0.1-0.5C30,8.4,29.9,8.3,30,8.2c0-0.1,0.1-0.1,0.1-0.2
		c0-0.1,0.1-0.1,0.2-0.1c0.2-0.1,0.1-0.1,0.1-0.2c0-0.2,0.2,0.1,0.2-0.2c0-0.1,0-0.1,0.2-0.1c0-0.5-0.1-0.4-0.2-0.6
		c0,0,0-0.3-0.2-0.4c-0.4-0.2-0.2-0.2-0.8-0.2c-0.4,0.2-0.2,0-0.3,0c0,0.1-0.1,0.1-0.2,0.1c-0.1,0,0-0.3-0.3-0.1
		c-0.2,0.1-0.2,0-0.4,0c-0.2,0-0.2,0.1-0.4,0.1c-0.2-0.2-0.7-0.1-1-0.2c-0.2-0.1,0,0.3-0.6,0.1C25.7,6.3,25.7,6,25.5,6
		c-0.3-0.1-0.2,0.1-0.3,0.1c-0.3,0-0.4,0-0.3,0c0.2,0.5-0.3,0.1-0.5,0.2c-0.2,0-0.3,0-0.6,0.2c-0.1,0.1-0.2,0.3-0.5,0.2
		c-0.2-0.1-0.4,0-0.3,0.3c-1.4,0.8-0.4-0.4-0.4-0.2c0,0.5,0.2-0.4,0.4-0.5c0.3-0.2,0.4-0.4,0.6-0.6c0.1-0.2,0.3-0.2,0.3-0.3
		c-0.3-0.1-0.2,0.4-0.8,0.1c-0.3,0.4-0.8,0-0.8-0.1c0-0.1,0.5,0.2,0.7,0c0-0.3,0.1-0.6,0.3-0.6c0.2,0,0.2-0.1,0.3-0.3
		c0.1-0.3,0.3,0,0.6-0.4c0.1-0.1,0.3-0.1,0.4-0.2c0.1-0.1,0.1-0.3,0.2-0.4c0.2,0,0.2-0.1,0.3-0.3c0,0,0.3-0.1,0.5-0.1
		c0.2-0.1,0.8-0.7,0.7-0.9c0-0.1-0.4,0.3-0.3-0.2c0-0.2,0.3-0.4,0.4-0.6c-0.1,0-0.4,0.2-0.5,0.1c-0.2-0.2-0.1-0.1-0.4-0.1
		c-0.2,0-0.7-0.2-0.5,0.1c0.4,0.1,0,0.3-0.3,0.1c0-0.1-0.1-0.1-0.4-0.1c-0.1,0-0.5,0-0.2,0.1c-0.3,0-0.3,0.2-0.4,0.2
		c-0.3,0-0.3-0.1-0.6-0.1c-0.5-0.2-0.2,0-0.3,0.1c-0.1,0-0.4-0.1-0.5,0c-0.2,0.3-0.2,0-0.3,0.1c0,0-0.1-0.1-0.2,0
		c-0.1,0.2-0.2,0.5-0.2,0c0-0.2-0.3,0-0.3-0.3c-0.2,0-0.1,0-0.3,0.1c0,0.6-0.9,0.9-0.2,0.2c0.1-0.1-0.3-0.1-0.4-0.3
		c-0.1,0.5-0.2,0-0.4,0c-0.2,0-0.3,0.1-0.5-0.1c-0.3,0,0.3,0.3-0.4,0.6c0,0.1-0.1,0.2,0,0.2c0.7,0,0.4,0.2,0.2,0.2
		c-0.1,0-0.3,0.1,0.1,0.2c0.1,0,0,0.5-0.4,0C19,2.4,19.1,2.8,19,2.6C18.8,2.5,19,3,19,3c0,0.1,1,0.2,0,0.3c-0.2-0.1-0.4-0.1-0.3-0.1
		c0.2,0.1-0.1,0.4-0.4-0.1c-0.3,0,0,0.4,0.2,0.5c0.3,0.2,0.2,0.7,0,0.6c-0.4-0.1,0-0.2-0.5-0.3c0.1,0.1,0,0.3,0,0.4
		c0.2,0,0.3-0.1,0.4,0.2c0.3,0.2,1.4,0.3,0.4,0.4C18.9,5.1,19,5.2,19,5.3c-0.2-0.1-0.9-0.5-0.9-0.2c0.9,0.4,0.6,0.6,0,0.2
		c-0.1-0.1-0.3,0.1-0.3,0.1c0,0-0.4,0.2-0.3-0.2c0-0.2-0.2-0.2-0.3-0.2c-0.3,0.2,0.5,0.3,0,0.6c0,0.1-0.2,0.2-0.2-0.3
		c0,0,0-0.1-0.1-0.2c-0.1,0.1-0.2,0.1-0.4,0.1c0,0.1,0,0.3,0,0.4c0,0.1-0.1,0.2,0,0.3c0.4,0,0.6,0.3,0.3,0.2c-0.1,0-0.1,0.1-0.2,0.1
		c-0.1,0-0.1,0.2,0,0.2c0.3,0,0.2,0.2,0.3,0.2c0.5,0.1,0.3,0.3-0.2,0.1c-0.2-0.1-0.2-0.2-0.3,0.1c-0.1,0.2,0,0.6,0,0.6
		c0.1-0.1,0.3,0.1,0.1,0.2c-0.1,0-0.2,0.3-0.1,0.3c0.1,0.1,0.2-0.2,0.3-0.1C17,8,17.2,7.8,17.3,7.8c0.6,0-0.3,0.2-0.2,0.4
		c0.5,0.2,0.7,0.4-0.2,0.2c-0.3,0.1-0.5,0.1-0.6,0.1c-0.2-0.1-0.2-0.1,0-0.2c0.2-0.1-0.4-0.1-0.3,0c0.1,0.1,0,0.5-0.2,0
		c-0.6,0,0-0.5-0.3-0.5c-0.1,0,0.2-0.4,0.1-0.7c0-0.1,0.1-0.3-0.2-0.5C15.1,6.3,15,6.4,15,6.1c-0.1,0-0.1,0-0.2,0.1
		c-0.1,0.1,0,0.2-0.3,0.2c-0.1,0.5,0.2,0,0.2,0.8c-0.1,0-0.1,0-0.2,0c0,0.3-0.2,0.1-0.2,0c0-0.1-0.1-0.1-0.2-0.1
		c-0.3,0,0.1-0.4-0.3-0.3C13.8,6.7,13.7,6.9,14,7c0.6,0.5,0,0.3-0.1,0.2c-0.1,0.1,0.2,0.9-0.3,0c-0.1-0.1-0.2,0-0.2,0.2
		c0.1,0.1-0.1,0.1-0.1,0.1c0,0.3,0.2,0.1,0.2,0.2c-0.1,0.2,0,0.1,0.3,0.2c0.4,0.2,0.4,0,0.4-0.1c0-0.2,0.1-0.1,0.4,0
		c0.3,0,0.4,0.2,0,0.2c0,0.1-0.1,0.2-0.1,0.2c0,0.1,0.1,0.1,0.2,0.2c0.1,0,0.2-0.1,0.1,0.2c0.3,0,0.2,0.2,0.3,0.2
		c0.1,0,0.3-0.2,0.4-0.1c0-0.3,0.1-0.1,0.2,0.1c0,0.1,0.1,0.4,0.2,0c0.1-0.5,0.2-0.1,0.2-0.1c0,0,0.4-0.1,0.4,0
		c0,0.1-0.1,0.1-0.5,0.2c0.1,0.4-0.2,0.2-0.1,0.5c0.3,0.1,0.3,0,0.4-0.1c0.1-0.1,0.2-0.3,0.3-0.3c0.2,0,0.1-0.4,0.3-0.4
		c0.2,0,0.2-0.2,0.5-0.3c0,0.1-0.3,0.3-0.2,0.4c0,0.1,0.4,0.1,0.4,0.2c0,0.2-0.2,0-0.5-0.1c-0.1,0.1-0.5,0.3-0.3,0.4
		c0,0,0.3,0,0.5,0.2c1.2,0.1,0,0.2-0.1,0.2c-0.1,0,0-0.2-0.5-0.3c-0.1,0-0.1,0.1-0.1,0.2c0,0,0.7,0.2-0.1,0.2
		c-0.1,0.2-0.2,0.2-0.2,0.3c0.1,0.1,0.3,0,0.4,0c0.2,0,0.2-0.1,0.2,0c0.1,0.1-0.1,0.4-0.2,0.3c-0.1,0-0.1,0.2-0.2,0.1
		c0,0.1,0.1,0.5-0.3,0c-0.1-0.1-0.1,0.2-0.5,0.1c-0.3-0.1-0.3,0.2-0.5,0.2c0.2,0.4,0.5,0,1,0.2c0.2,0,0.6-0.2,0.7-0.1
		c0.1,0.2-0.1,0.1-0.5,0.3c-0.4,0-0.5,0.1-0.4,0.2c0.2,0.1,0.2,0.3,0.4,0.3c0.2,0,0.3,0,0.4,0.1c0.1,0.2,0.4,0.1,0.5,0
		c0.4-0.2,0.2-0.4,0.7-0.6c0.1,0,0.2-0.4,0.5-0.3c0.2,0,0.5,0,0.4,0.1c-0.1,0.1-0.2,0.2-0.4,0.2c-0.1,0,0.1,0.2-0.4,0.3
		c-0.2,0-0.2,0.3-0.2,0.4c0.6,0.1,1.5,0.6,0,0.3c-0.3-0.1,0.1,0.5-0.3,0.2c0-0.2-0.4,0-0.3,0.1c0.3-0.1,0,0.1-0.1,0.3
		c0.1,0.2-0.1,0.1-0.1,0.3c-0.1,0.3,0.1,0.4,0.2,0.3c0-0.5,0.1-0.1,0.2-0.2c0.7-0.2,0,0.2,0,0.2c0,0.1,0.1,0,0.2,0
		c0.1,0,0.3,0,0,0.1c-0.1,0.2-0.5,0.3-0.2,0.3c0.1,0-0.2,0.2-0.2,0.2c-0.5,0.6-0.3,0.7-0.1,0.3c0.1-0.1,0.4-0.3,0,0.2
		c0,0-0.2,0.2-0.2,0.2c-0.1,0.1,0,0.2,0.1,0.2c0.4-0.4,0.7-0.6,0,0.3c-0.1,0.1,0,0.2,0.1,0.2c0,0,0.1,0.2,0.2,0.1
		c0.4-0.3,0.5-0.2,0,0.1c0,0-0.1,0.2-0.1,0.2c-0.1,0.1-0.3,0-0.3,0.1c0.1,0.4-0.1,0.3-0.1,0.6c0.1,1-0.2,0.5-0.3,1
		c0,0.1,0,0.4,0.2,0.3c0.2-0.1,0.2-0.1,0.4-0.1c0.4,0,0.2-0.2,0.3-0.2c0.3,0,0-0.2,0-0.2c-0.2,0-0.3-0.1,0-0.2
		c0.1,0,0.1-0.1,0.1-0.2c0-0.1,0.1-0.2,0.1-0.3c0-0.6,0.3-0.1,0.1-0.4c-0.1-0.1,0-0.3,0-0.3c0.2-0.6,0.5-0.3,0.6-0.5
		c0-0.1-0.1-0.1-0.2-0.2c-0.1-0.1-0.1-0.3-0.2-0.3c-0.1,0,0-0.2-0.1-0.3c-0.1-0.1,0-0.2,0-0.2c0.1,0,0.1,0,0.2,0.1
		c0.1,0,0-0.3,0.2-0.2c0.2-0.2,0.3-0.4,0.4-0.4c0.4-0.1,0.1,0.1,0,0.2c0,0.1-0.1,0-0.4,0.5c0,0.1,0,0.3,0,0.4
		c-0.1,0.3,0.1,0.2,0.2,0.3c0.4,0.4,0.3,0,0.1-0.1c-0.1-0.1,0-0.3,0.1-0.3c0-0.3,0.2-0.2,0.3-0.1c0,0.3,0.2,0.3,0.1,0
		c0-0.2,0.1-0.3,0.1,0.3c0,0.1,0.2,0,0.2,0.1c0.1,0,0.2-0.1,0.1-0.2c-0.1-0.2,0.1-0.2,0.1-0.2s-0.3-0.4,0.1-0.2
		c-0.1-0.5,0-0.4,0.2,0c0,0.1,0.4,0,0.4,0c0.1,0,0.1,0.2,0.3,0.2c0.3,0,0.4,0.2,0,0.2c-0.1,0-0.1-0.1-0.4-0.2c-0.1,0-0.3,0-0.3,0
		c0.1,0.3-0.2,0.2,0,0.5c0.1,0.2-0.1,0,0.1,0.4c0,0.3-0.4,0.1-0.2,0.4c0.1,0.1,0.3,0,0.2,0.2c0,0.1,0.3,0.1,0.4,0.2
		c0.3,0.1-0.1,0.4,0.3,0.5c0.2,0,0,0.4-0.1,0.4c-0.3,0-0.4,0.1-0.4,0.2c0.2,0.4-0.1,0.1-0.2,0.4c0.2,0.3-0.1,0.3-0.1,0.5
		c0,0.2-0.1,0.1-0.2,0.2c0,0.2-0.2,0.2-0.2,0.2c-0.1,0.5-0.3,0.4-0.2,0.6c0.1,0.3,0.3,0.4,0.1,0.3c0.2,0.2-0.2,0.4-0.2,0.1
		c0-0.3-0.1-0.5-0.4-0.4c-0.1,0.1,0,0.1-0.1,0.3c-0.1,0.2,0.2,0.2,0.2,0.5c0,0.2,0.2,0.1,0.3,0.2c0.1,0.1,0.1,0.3,0.1,0.3
		c0.1,0,0.2,0.1,0.1,0.2c-0.1,0.1,0,0.4,0.4,0.4c0.1-0.1-0.1,0,0-0.2c0.1-0.2-0.2-0.1-0.1-0.4c0-0.2-0.2,0-0.2-0.4
		c0.1,0,0.3,0,0.2-0.1c0-0.2,0.2-0.2,0.3,0c0.1,0.2,0.4,0,0.6,0.3c0.1,0.2,0.1,0.3,0.4,0.4c0.2,0.1,0.4,0.2,0.5,0
		c0-0.3-0.2-0.2,0.1-0.2c0.1,0,0-0.2-0.1-0.3c-0.1-0.1,0.2,0,0-0.4c0.1,0,0.2,0,0.3,0.2c0.2-0.4,0.1,0,0.1,0.1
		c0.3,0,0.4,0.4,0.5,0.2c0-0.5,0.1-0.2,0.2,0c0,0.1,0.2,0,0.2,0c0.1,0,0.1,0,0.1-0.1c0.1-0.1,0.3-0.2,0.3-0.1c0.5-0.6,0.1,0,0.5,0
		c0.2,0,0.4-0.2,0.4-0.4l0.1-0.3c0.1,0,0.2,0.1,0.1,0.3c0.1,0,0.2-0.2,0.3-0.2c0.1,0,0.1-0.2,0.4-0.2c0.2,0,0.2,0,0.5,0.1
		c0.4,0.1,0,0.2-0.4,0.1c-0.2,0-0.5,0.3-0.5,0.5c0,0.3-0.2,0-0.2,0.1c-0.1,0.4-0.1,0.2-0.2,0.4c0,0.2,0.1,0.2,0,0.3
		c-0.3,0.2,0.1,0.4-0.3,0.6c-0.2,0.1-0.2,0.2,0.1,0.4c0.3,0.2,0.2,0.5,0.5,0.6c0.3,0.1-0.2,0.3,0.1,0.4c0.1,0.1,0.2,0.2,0.3,0.3
		c0.4-0.5,0.4-0.3,0.2,0.1c-0.1,0.1-0.1,0.4,0,0.5c0.1,0.1,0.1-0.1,0.3,0.2c0.1-0.1,0.3-0.4,0.3-0.6c-0.1-0.5,0.1-0.3,0.2-0.1
		c0,0.1,0.4,0.1,0.3,0.1c0.5-0.4,0.2,0.1,0.4,0.1c0.4,0,0.3,0.3-0.1,0.2c-0.1,0-0.1,0.2-0.2,0.3c0.5,0.4-0.2,0.2-0.3,0.3
		c-0.1,0.1-0.1,0.2-0.2,0.2c-0.1,0.1,0,0.1,0,0.3c0,0.3-0.1,0.4,0,0.6c0.6,0,0.6,0,0.1,0.2c-0.2,0-0.1,0.3-0.2,0.4
		c-0.1,0.1-0.3,0-0.1,0.2c0.1,0.1,0.5,0.1,0.5,0.4c0,0.2,0.2,0.5,0.3,0.5c1.1,0.2,0,0.2,0,0.2c0,0-0.4-0.4-0.4-0.6
		c0-0.2-0.2-0.2-0.2-0.2c0.1,0.2-0.5,0-0.5,0.2c0,0.2,0.5,0.4,0.5,0.6c-0.3-0.1-0.5-0.3-0.7-0.4c-0.3-0.2-0.6,0-0.9,0.1
		c-0.5,0.2,0.4,0.6-0.6,0.1c-0.2,0-0.4-0.2-0.6-0.2c0.3,0.2,0.5,0.4-0.1,0.3c-0.3,0-0.6,0.4-0.6,0.3c-0.1-0.1,0-0.3,0.2-0.3
		c0.2,0,0.2-0.1,0-0.2c-0.3-0.1-0.5,0.3-0.5,0c0.1-0.2-0.3-0.2-0.1-0.3c0.1-0.1-0.1-0.2-0.2-0.2c-0.2,0-0.5-0.2-0.6,0
		c-0.1,0.2-0.1,0.1-0.3,0.1c-0.4-0.1-0.1,0.2-0.1,0.4c-0.2,0.1-0.2-0.1-0.4,0c0,0.4,0.3,0.1,0.2,0.3c-0.1,0.2,0.3,0,0.4,0.3
		c0,0.1,0.2,0.2,0.5,0.3c0.2,0,1.1-0.5,0.1,0.2c-0.1,0.1,0.1,0.4-0.2,0.4c-0.2,0-0.3,0.3-0.5,0.4c-0.1,0-0.3,0-0.3,0.1
		c-0.3,0-0.4,0.3-0.4,0.5c0.2,0,0.2-0.1,0.4,0c0.2-0.4,0.5,0.3,0.6,0c0.2-0.1-0.2-0.2,0.1-0.4c0.1-0.1,0.4-0.1,0.6-0.2
		c0.2,0,0.7,0.1,0.6,0.2c-0.1,0.2-0.1,0.3,0,0.4c0.4,0.2,0.1,0.4-0.1,0.6c-0.1,0.1,0.1,0.3,0.2,0.5c0.9,0,0,0.2,0,0.3
		c0,0.3-0.1,0.3-0.1,0.6c0-0.1,0,0.2-0.3,0.4c-0.2,0.1-0.4,0.2-0.6,0.3c-0.2,0.1-0.3,0.2-0.5,0.3c-0.2,0.1-0.4,0-0.6,0
		c-0.1,0-0.4,0-0.2,0.2c0.1,0.1,0,0.2-0.2,0.1c-0.1,0-0.1,0.3-0.3,0.1c-0.1-0.1,0.1,0.2-0.2,0.2c-0.2,0,0-0.2-0.3-0.2
		c-0.1,0-0.3,0.1-0.3,0.1C19,33.8,19.6,33.8,19,34c-0.3,0.1-0.6,0.1-0.6,0.4c0.2,0,0.5,0,0.7,0c0.1,0,0.1,0.3,0,0.3
		c-0.2,0-0.3,0.2-0.4,0.2c-0.1,0.1,0,0.1,0.1,0.2c0.1,0,0.1,0.1,0.2,0.1c-0.1-0.4,0-0.2,0.2-0.3c0.3,0,0.4,0,0.5,0.1
		c0.1,0,0,0.2-0.2,0.1c-0.4-0.2-0.2,0.2-0.1,0.2c0.1,0.1,0,0.3,0.2,0.2c0.2-0.1,0.3,0.2,0.4-0.1c0.1-0.2,0.3,0.1,0.4,0
		c0.1-0.1,0.3,0.1,0.3,0.1c0.1-0.1-0.1-0.2-0.1-0.2c0.2-0.1-0.1-0.2,0.2-0.2c0.2,0,0.6,0,0.8,0c0.1,0.2,0.2,0.4,0.3,0.3
		c0.1-0.1,0.4-0.1,0.6,0c-0.2,0.3-0.7,0-0.7,0.4c0.1,0,0.1,0.1,0.1,0.2c0.3-0.1,0.2,0.2,0.2,0.2c0.2,0,0.1-0.2,0.3-0.1
		c-0.1-0.1-0.1-0.2,0.2-0.1c0.3,0.1,0.3-0.1,0.3-0.1c0.2,0.2-0.1-0.3,0.4-0.2c0.2,0,0.1,0.2,0.3,0.2c0.2,0,0.1,0.5,0.3,0.5
		c0.4-0.1,0.5,0.4,0.8,0.4c0.3,0,0.3,0.2,0.5,0.2c0.3,0,0.5,0,0.6-0.3c0.1-0.2,0.3-0.2,0.5-0.3c0.2-0.1,1-0.3,1-0.5
		c0,0,1.1-0.7,0.2,0.4c-0.1,0.1-0.5,0.1-0.5,0.2c-0.3,0.5-0.5,0.4-0.6,0.6c0,0.2-0.1,0.4,0,0.6c0.1,0.3-0.4-0.2-0.7,0
		c-0.2,0.1,0.1,0.4-0.7,0.1c-0.1,0-0.2-0.1-0.2-0.2c-0.3-0.1-0.5-0.1-0.8,0c-0.4,0-0.3-0.2-1.1,0c-0.4,0.1-0.4,0.1-0.8,0.1
		c0.1,0.1,0,0.1-0.1,0.2c-0.2,0.2,0.1,0,0.1,0.2c0,0.2-0.3,0.7-0.5,0.5c-0.2-0.1-0.2-0.1-0.6-0.1c-0.2,0,0.1,0.5-0.2,0.5
		c0,0.2,0.2,0.5,0,0.6c-0.2,0.1-0.3,0.1-0.3,0.2c0,0.1-0.1,0.1-0.4,0.2c0,0.1,0,0.4-0.1,0.4c-0.1,0-0.4,0-0.5,0c0,0.1,0,0.2-0.1,0.2
		c-0.3,0-0.1-0.1-0.3,0c-0.2,0.2,0,0.1,0,0.4c0,0.3-0.4,0.1-0.4,0.4c0,0,0.1,0.2-0.2,0.2c-0.2,0,0.2,0.2-0.3,0.3
		c-0.2,0-0.3,0.1-0.3,0.2c-0.1,0.1-0.2,0-0.3,0c-0.1,0-0.3,0.1-0.4,0.2c-0.2,0.1-0.4,0.2-0.3,0.3c0.1,0-0.1,0.2-0.1,0.2
		c0,0.2,0.7,0.1,0.7,0c0-0.3-0.2-0.2,0.3-0.2c0.7,0.1,0.5,0.3,0.6,0.5c0.7,0.4,0-0.1,0.5-0.1c0.3,0,0.1-0.1,0.2-0.1
		c0.1-0.1-0.1-0.2,0-0.4c0.1-0.2,0.1-0.3,0.2-0.1c0,0.1,0.1-0.1,0.2-0.2c-0.1-0.2,0.2-0.1,0.3-0.2c0.1-0.1,0.3,0.1,0.3,0
		c0.2-0.1-0.1-0.2,0.1-0.3c0.1-0.1,0-0.2,0.1-0.2c0.2-0.1,0.4,0.2,0.7,0.1c0.2-0.1,0.2-0.2,0.5-0.1c0.2,0.1,0.5,0,0.7,0.2
		c0.3,0,0-0.3,0.2-0.3c0.2,0,0,0.3,0.2,0.2c0.2,0,0.1,0.2,0.2,0.1c0.4-0.3,0.5,0.1,0.6,0.2c0.1,0.2,0.1,0.1,0.3,0.1
		c0-0.3,0.1,0.1,0.4,0c0-0.2,0.1-0.6,0.5-0.6c0-0.1,0-0.3-0.1-0.2c-0.2,0-0.1-0.2,0.1-0.3c-0.3-0.4,0.4-0.8,0.6-0.6
		c0.2,0.1,0-0.3,0.5-0.3c0.6,0-0.1-0.1,0.7-0.1c0.3,0,0.1-0.2,0.8,0c0.3,0.1,0.8,0.3,0.9,0.6c-0.2,0.4,0.4,0.2,0.1-0.1
		c-0.1-0.1,0.1-0.3,0.6-0.1c0.6-0.1,0.8,0.1,0.8,0.2c0.4-0.1,0.6-0.1,0.3-0.3c-0.4-0.3,0.7-0.4,0.6-0.3c-0.2,0.1,0.2-0.2,0.5-0.1
		c0.4,0.1,0.4,0.1,0.6-0.1c0,0,0.3,0,0.5-0.1c0.2,0-0.5-0.4,0.2-0.4c0.4,0,0,0.2,0.1,0.2c0.2,0.1,0.6,0.3,0.7,0.1
		c0.1-0.8,0.3-0.1,0.2,0c0.8,0.1,0.5,0.3,0.7,0.3c0.3,0,0.2,0,0.3-0.2c0.5,0,0.9-0.1,1.4-0.1c0.1,0,0.7,0,0.8,0.1
		c0.4,0.2,0.3,0.1,0.4,0.1c0.5,0,0.4,0.2,0.8,0.2c0.2,0,0.1-0.3,0.4-0.4c0.1,0,0.2,0.1,0.2,0c0-0.1,0.3-0.1,0.4-0.1
		c-0.1-0.3,0.6,0,0.4-0.3c0.4-0.5,1.4,0.5,1.1-0.5C40.3,38.2,40.7,38,41,38c0.1,0,0.3-0.1,0.6-0.2c0.3-0.1,0.5-0.2,0.3-0.4
		c-0.2-0.2-0.2-0.2-0.2-0.3c-0.1-0.5,0.5,0,0.3-0.6c-0.1-0.3-0.4,0.1-0.9,0.1c-0.2,0-0.4,0.1-0.5,0.2c-0.4,0.6-1,0.4-0.1-0.1
		c0-0.2-0.2-0.1-0.3-0.2c-0.1-0.1-0.4-0.3-0.5-0.2c-0.1,0.1-0.2,0.4-0.3,0.4c-1.1,0.2,0.2-0.2,0.1-0.4c-0.7,0-1-0.2-0.1-0.2
		c0.2,0-0.3-0.4,0.3-0.2c0.3,0.1,0.2-0.3,0.5-0.2c0.4,0.1,0.2-0.6,0.2-0.6c-0.5,0-1.2-0.2,0-0.3c0,0,0.2,0.1,0.2-0.2
		c0.2-0.1,0.4,0.3,0.7,0.2c0-0.1,0-0.2,0.2-0.1c0,0,0.4-0.5,0-0.5s-0.5-0.2,0-0.2c-0.3-0.7,0.3,0,0.4,0c0.1,0,0.4-0.3,0.4-0.3
		c0.1-0.3,0.1-0.3,0.5-0.4c0.2-0.2,0.1-0.5,0.2-0.7c0.1-0.2,0-0.1,0.3-0.3c0-0.2,0-0.3,0-0.4C43.1,31.9,42.9,31.7,43.1,31.6z"/>
</g>
</svg>
