<?xml version="1.0" encoding="utf-8"?>
<!-- Generator: Adobe Illustrator 19.0.1, SVG Export Plug-In . SVG Version: 6.00 Build 0)  -->
<svg version="1.1" id="Layer_1" xmlns="http://www.w3.org/2000/svg" xmlns:xlink="http://www.w3.org/1999/xlink" x="0px" y="0px"
	 viewBox="0 0 22.9 23" enable-background="new 0 0 22.9 23" xml:space="preserve">
<g>
	<g>
		<g>
			<path d="M21.3,0H1.7C0.8,0,0,0.7,0,1.7v19.6C0,22.2,0.8,23,1.7,23h19.6c0.9,0,1.7-0.7,1.7-1.7V1.7C22.9,0.7,22.2,0,21.3,0z
				 M6.8,19.6H3.4v-11h3.4V19.6z M5.1,7.1c-1.1,0-2-0.9-2-2c0-1.1,0.9-2,2-2c1.1,0,2,0.9,2,2C7.1,6.2,6.2,7.1,5.1,7.1z M19.6,19.6
				h-3.4v-5.3c0-1.3,0-2.9-1.8-2.9c-1.8,0-2,1.4-2,2.8v5.4H8.9v-11h3.3v1.5h0c0.5-0.9,1.6-1.8,3.2-1.8c3.4,0,4.1,2.3,4.1,5.2V19.6z"
				/>
		</g>
	</g>
</g>
</svg>
