<?xml version="1.0" encoding="utf-8"?>
<!-- Generator: Adobe Illustrator 19.0.1, SVG Export Plug-In . SVG Version: 6.00 Build 0)  -->
<svg version="1.1" id="Layer_1" xmlns="http://www.w3.org/2000/svg" xmlns:xlink="http://www.w3.org/1999/xlink" x="0px" y="0px"
	 viewBox="0 0 70.3 31.2" enable-background="new 0 0 70.3 31.2" xml:space="preserve">
<g>
	<g>
		<g>
			<line fill="none" stroke="#7ED0E0" stroke-width="1.2" stroke-miterlimit="10" x1="47.3" y1="15.6" x2="62.2" y2="15.6"/>
			<line fill="none" stroke="#7ED0E0" stroke-width="1.2" stroke-miterlimit="10" x1="54.7" y1="8.1" x2="54.7" y2="23.1"/>
		</g>
		<path fill="none" stroke="#7ED0E0" stroke-width="1.2" stroke-miterlimit="10" d="M66.7,30.6h-24c-1.7,0-3-1.3-3-3v-24
			c0-1.6,1.3-3,3-3h24c1.7,0,3,1.4,3,3v24C69.7,29.2,68.4,30.6,66.7,30.6z"/>
	</g>
	<path opacity="0.9" fill="#7ED0E0" stroke="#7ED0E0" stroke-width="0.7328" stroke-miterlimit="10" d="M27.4,30.6h-24
		c-1.7,0-3-1.4-3-3v-24c0-1.7,1.3-3,3-3h24c1.6,0,3,1.4,3,3v24C30.4,29.2,29,30.6,27.4,30.6z"/>
	<g>
		<g>
			<line fill="none" stroke="#14252C" stroke-width="0.8785" stroke-miterlimit="10" x1="7.9" y1="15.6" x2="22.8" y2="15.6"/>
		</g>
	</g>
</g>
</svg>
